<ttFont>
    <TTGlyph name=".notdef" xMin="30" yMin="0" xMax="490" yMax="679">
      <contour>
        <pt x="30" y="0" on="1"/>
        <pt x="30" y="679" on="1"/>
        <pt x="490" y="679" on="1"/>
        <pt x="490" y="0" on="1"/>
      </contour>
      <contour>
        <pt x="79" y="46" on="1"/>
        <pt x="441" y="46" on="1"/>
        <pt x="441" y="633" on="1"/>
        <pt x="79" y="633" on="1"/>
      </contour>
    </TTGlyph>
    <TTGlyph name="A" xMin="7" yMin="0" xMax="665" yMax="702">
      <contour>
        <pt x="14" y="0" on="1"/>
        <pt x="7" y="40" on="1"/>
        <pt x="45" y="50" on="0"/>
        <pt x="62" y="62" on="0"/>
        <pt x="70" y="83" on="1"/>
        <pt x="294" y="702" on="1"/>
        <pt x="377" y="702" on="1"/>
        <pt x="606" y="67" on="1"/>
        <pt x="611" y="52" on="0"/>
        <pt x="665" y="42" on="1"/>
        <pt x="661" y="0" on="1"/>
        <pt x="428" y="0" on="1"/>
        <pt x="422" y="40" on="1"/>
        <pt x="492" y="54" on="0"/>
        <pt x="492" y="73" on="1"/>
        <pt x="492" y="81" on="0"/>
        <pt x="488" y="94" on="1"/>
        <pt x="444" y="224" on="1"/>
        <pt x="185" y="224" on="1"/>
        <pt x="134" y="82" on="1"/>
        <pt x="130" y="70" on="0"/>
        <pt x="130" y="61" on="0"/>
        <pt x="136" y="60" on="1"/>
        <pt x="207" y="41" on="1"/>
        <pt x="203" y="0" on="1"/>
      </contour>
      <contour>
        <pt x="204" y="277" on="1"/>
        <pt x="427" y="277" on="1"/>
        <pt x="329" y="558" on="1"/>
        <pt x="322" y="579" on="0"/>
        <pt x="322" y="587" on="1"/>
        <pt x="312" y="587" on="1"/>
      </contour>
    </TTGlyph>
    <TTGlyph name="A.sc" xMin="6" yMin="0" xMax="515" yMax="544">
      <contour>
        <pt x="11" y="0" on="1"/>
        <pt x="6" y="37" on="1"/>
        <pt x="36" y="44" on="0"/>
        <pt x="49" y="53" on="0"/>
        <pt x="55" y="70" on="1"/>
        <pt x="227" y="544" on="1"/>
        <pt x="291" y="544" on="1"/>
        <pt x="469" y="57" on="1"/>
        <pt x="473" y="45" on="0"/>
        <pt x="515" y="38" on="1"/>
        <pt x="512" y="0" on="1"/>
        <pt x="314" y="0" on="1"/>
        <pt x="309" y="37" on="1"/>
        <pt x="364" y="48" on="0"/>
        <pt x="364" y="62" on="1"/>
        <pt x="364" y="68" on="0"/>
        <pt x="361" y="78" on="1"/>
        <pt x="330" y="168" on="1"/>
        <pt x="144" y="168" on="1"/>
        <pt x="109" y="69" on="1"/>
        <pt x="106" y="61" on="0"/>
        <pt x="106" y="53" on="0"/>
        <pt x="110" y="52" on="1"/>
        <pt x="166" y="37" on="1"/>
        <pt x="163" y="0" on="1"/>
      </contour>
      <contour>
        <pt x="159" y="215" on="1"/>
        <pt x="315" y="215" on="1"/>
        <pt x="247" y="418" on="1"/>
        <pt x="242" y="433" on="0"/>
        <pt x="242" y="440" on="1"/>
        <pt x="237" y="440" on="1"/>
      </contour>
    </TTGlyph>
    <TTGlyph name="AE" xMin="14" yMin="0" xMax="855" yMax="693">
      <contour>
        <pt x="328" y="693" on="1"/>
        <pt x="825" y="693" on="1"/>
        <pt x="831" y="656" on="0"/>
        <pt x="831" y="583" on="0"/>
        <pt x="829" y="537" on="1"/>
        <pt x="772" y="530" on="1"/>
        <pt x="758" y="599" on="0"/>
        <pt x="746" y="634" on="0"/>
        <pt x="738" y="635" on="1"/>
        <pt x="714" y="638" on="0"/>
        <pt x="677" y="639" on="1"/>
        <pt x="525" y="642" on="1"/>
        <pt x="525" y="373" on="1"/>
        <pt x="676" y="373" on="1"/>
        <pt x="689" y="373" on="0"/>
        <pt x="708" y="444" on="1"/>
        <pt x="739" y="441" on="1"/>
        <pt x="739" y="368" on="0"/>
        <pt x="744" y="310" on="0"/>
        <pt x="745" y="298" on="0"/>
        <pt x="752" y="252" on="0"/>
        <pt x="753" y="243" on="1"/>
        <pt x="717" y="237" on="1"/>
        <pt x="701" y="294" on="0"/>
        <pt x="690" y="320" on="0"/>
        <pt x="683" y="320" on="1"/>
        <pt x="525" y="320" on="1"/>
        <pt x="525" y="51" on="1"/>
        <pt x="610" y="52" on="1"/>
        <pt x="740" y="54" on="0"/>
        <pt x="757" y="66" on="1"/>
        <pt x="767" y="73" on="0"/>
        <pt x="799" y="183" on="1"/>
        <pt x="854" y="179" on="1"/>
        <pt x="855" y="166" on="0"/>
        <pt x="855" y="74" on="0"/>
        <pt x="844" y="0" on="1"/>
        <pt x="358" y="0" on="1"/>
        <pt x="352" y="39" on="1"/>
        <pt x="405" y="48" on="0"/>
        <pt x="428" y="70" on="0"/>
        <pt x="428" y="101" on="1"/>
        <pt x="428" y="320" on="1"/>
        <pt x="275" y="320" on="1"/>
        <pt x="141" y="87" on="1"/>
        <pt x="132" y="71" on="0"/>
        <pt x="132" y="62" on="0"/>
        <pt x="143" y="59" on="1"/>
        <pt x="211" y="41" on="1"/>
        <pt x="207" y="0" on="1"/>
        <pt x="21" y="0" on="1"/>
        <pt x="14" y="40" on="1"/>
        <pt x="48" y="49" on="0"/>
        <pt x="64" y="60" on="0"/>
        <pt x="77" y="83" on="1"/>
        <pt x="377" y="606" on="1"/>
        <pt x="383" y="616" on="0"/>
        <pt x="383" y="623" on="1"/>
        <pt x="383" y="643" on="0"/>
        <pt x="322" y="654" on="1"/>
      </contour>
      <contour>
        <pt x="422" y="587" on="1"/>
        <pt x="305" y="373" on="1"/>
        <pt x="428" y="373" on="1"/>
        <pt x="428" y="587" on="1"/>
      </contour>
    </TTGlyph>
    <TTGlyph name="Aacute" xMin="7" yMin="0" xMax="665" yMax="914">
      <contour>
        <pt x="14" y="0" on="1"/>
        <pt x="7" y="40" on="1"/>
        <pt x="45" y="50" on="0"/>
        <pt x="62" y="62" on="0"/>
        <pt x="70" y="83" on="1"/>
        <pt x="294" y="702" on="1"/>
        <pt x="377" y="702" on="1"/>
        <pt x="606" y="67" on="1"/>
        <pt x="611" y="52" on="0"/>
        <pt x="665" y="42" on="1"/>
        <pt x="661" y="0" on="1"/>
        <pt x="428" y="0" on="1"/>
        <pt x="422" y="40" on="1"/>
        <pt x="492" y="54" on="0"/>
        <pt x="492" y="73" on="1"/>
        <pt x="492" y="81" on="0"/>
        <pt x="488" y="94" on="1"/>
        <pt x="444" y="224" on="1"/>
        <pt x="185" y="224" on="1"/>
        <pt x="134" y="82" on="1"/>
        <pt x="130" y="70" on="0"/>
        <pt x="130" y="61" on="0"/>
        <pt x="136" y="60" on="1"/>
        <pt x="207" y="41" on="1"/>
        <pt x="203" y="0" on="1"/>
      </contour>
      <contour>
        <pt x="204" y="277" on="1"/>
        <pt x="427" y="277" on="1"/>
        <pt x="329" y="558" on="1"/>
        <pt x="322" y="579" on="0"/>
        <pt x="322" y="587" on="1"/>
        <pt x="312" y="587" on="1"/>
      </contour>
      <contour>
        <pt x="504" y="863" on="1"/>
        <pt x="496" y="842" on="1"/>
        <pt x="295" y="749" on="1"/>
        <pt x="270" y="785" on="1"/>
        <pt x="444" y="914" on="1"/>
      </contour>
    </TTGlyph>
    <TTGlyph name="Aacute.sc" xMin="6" yMin="0" xMax="515" yMax="765">
      <contour>
        <pt x="11" y="0" on="1"/>
        <pt x="6" y="37" on="1"/>
        <pt x="36" y="44" on="0"/>
        <pt x="49" y="53" on="0"/>
        <pt x="55" y="70" on="1"/>
        <pt x="227" y="544" on="1"/>
        <pt x="291" y="544" on="1"/>
        <pt x="469" y="57" on="1"/>
        <pt x="473" y="45" on="0"/>
        <pt x="515" y="38" on="1"/>
        <pt x="512" y="0" on="1"/>
        <pt x="314" y="0" on="1"/>
        <pt x="309" y="37" on="1"/>
        <pt x="364" y="48" on="0"/>
        <pt x="364" y="62" on="1"/>
        <pt x="364" y="68" on="0"/>
        <pt x="361" y="78" on="1"/>
        <pt x="330" y="168" on="1"/>
        <pt x="144" y="168" on="1"/>
        <pt x="109" y="69" on="1"/>
        <pt x="106" y="61" on="0"/>
        <pt x="106" y="53" on="0"/>
        <pt x="110" y="52" on="1"/>
        <pt x="166" y="37" on="1"/>
        <pt x="163" y="0" on="1"/>
      </contour>
      <contour>
        <pt x="159" y="215" on="1"/>
        <pt x="315" y="215" on="1"/>
        <pt x="247" y="418" on="1"/>
        <pt x="242" y="433" on="0"/>
        <pt x="242" y="440" on="1"/>
        <pt x="237" y="440" on="1"/>
      </contour>
      <contour>
        <pt x="394" y="714" on="1"/>
        <pt x="386" y="693" on="1"/>
        <pt x="185" y="600" on="1"/>
        <pt x="160" y="636" on="1"/>
        <pt x="334" y="765" on="1"/>
      </contour>
    </TTGlyph>
    <TTGlyph name="Abreve" xMin="7" yMin="0" xMax="665" yMax="900">
      <contour>
        <pt x="14" y="0" on="1"/>
        <pt x="7" y="40" on="1"/>
        <pt x="45" y="50" on="0"/>
        <pt x="62" y="62" on="0"/>
        <pt x="70" y="83" on="1"/>
        <pt x="294" y="702" on="1"/>
        <pt x="377" y="702" on="1"/>
        <pt x="606" y="67" on="1"/>
        <pt x="611" y="52" on="0"/>
        <pt x="665" y="42" on="1"/>
        <pt x="661" y="0" on="1"/>
        <pt x="428" y="0" on="1"/>
        <pt x="422" y="40" on="1"/>
        <pt x="492" y="54" on="0"/>
        <pt x="492" y="73" on="1"/>
        <pt x="492" y="81" on="0"/>
        <pt x="488" y="94" on="1"/>
        <pt x="444" y="224" on="1"/>
        <pt x="185" y="224" on="1"/>
        <pt x="134" y="82" on="1"/>
        <pt x="130" y="70" on="0"/>
        <pt x="130" y="61" on="0"/>
        <pt x="136" y="60" on="1"/>
        <pt x="207" y="41" on="1"/>
        <pt x="203" y="0" on="1"/>
      </contour>
      <contour>
        <pt x="204" y="277" on="1"/>
        <pt x="427" y="277" on="1"/>
        <pt x="329" y="558" on="1"/>
        <pt x="322" y="579" on="0"/>
        <pt x="322" y="587" on="1"/>
        <pt x="312" y="587" on="1"/>
      </contour>
      <contour>
        <pt x="451" y="900" on="1"/>
        <pt x="488" y="900" on="1"/>
        <pt x="484" y="838" on="0"/>
        <pt x="410" y="760" on="0"/>
        <pt x="268" y="760" on="0"/>
        <pt x="194" y="838" on="0"/>
        <pt x="190" y="900" on="1"/>
        <pt x="227" y="900" on="1"/>
        <pt x="244" y="828" on="0"/>
        <pt x="434" y="828" on="0"/>
      </contour>
    </TTGlyph>
    <TTGlyph name="Abreve.sc" xMin="6" yMin="0" xMax="515" yMax="751">
      <contour>
        <pt x="11" y="0" on="1"/>
        <pt x="6" y="37" on="1"/>
        <pt x="36" y="44" on="0"/>
        <pt x="49" y="53" on="0"/>
        <pt x="55" y="70" on="1"/>
        <pt x="227" y="544" on="1"/>
        <pt x="291" y="544" on="1"/>
        <pt x="469" y="57" on="1"/>
        <pt x="473" y="45" on="0"/>
        <pt x="515" y="38" on="1"/>
        <pt x="512" y="0" on="1"/>
        <pt x="314" y="0" on="1"/>
        <pt x="309" y="37" on="1"/>
        <pt x="364" y="48" on="0"/>
        <pt x="364" y="62" on="1"/>
        <pt x="364" y="68" on="0"/>
        <pt x="361" y="78" on="1"/>
        <pt x="330" y="168" on="1"/>
        <pt x="144" y="168" on="1"/>
        <pt x="109" y="69" on="1"/>
        <pt x="106" y="61" on="0"/>
        <pt x="106" y="53" on="0"/>
        <pt x="110" y="52" on="1"/>
        <pt x="166" y="37" on="1"/>
        <pt x="163" y="0" on="1"/>
      </contour>
      <contour>
        <pt x="159" y="215" on="1"/>
        <pt x="315" y="215" on="1"/>
        <pt x="247" y="418" on="1"/>
        <pt x="242" y="433" on="0"/>
        <pt x="242" y="440" on="1"/>
        <pt x="237" y="440" on="1"/>
      </contour>
      <contour>
        <pt x="378" y="751" on="1"/>
        <pt x="415" y="751" on="1"/>
        <pt x="411" y="689" on="0"/>
        <pt x="337" y="611" on="0"/>
        <pt x="195" y="611" on="0"/>
        <pt x="121" y="689" on="0"/>
        <pt x="117" y="751" on="1"/>
        <pt x="154" y="751" on="1"/>
        <pt x="171" y="679" on="0"/>
        <pt x="361" y="679" on="0"/>
      </contour>
    </TTGlyph>
    <TTGlyph name="Acircumflex" xMin="7" yMin="0" xMax="665" yMax="914">
      <contour>
        <pt x="14" y="0" on="1"/>
        <pt x="7" y="40" on="1"/>
        <pt x="45" y="50" on="0"/>
        <pt x="62" y="62" on="0"/>
        <pt x="70" y="83" on="1"/>
        <pt x="294" y="702" on="1"/>
        <pt x="377" y="702" on="1"/>
        <pt x="606" y="67" on="1"/>
        <pt x="611" y="52" on="0"/>
        <pt x="665" y="42" on="1"/>
        <pt x="661" y="0" on="1"/>
        <pt x="428" y="0" on="1"/>
        <pt x="422" y="40" on="1"/>
        <pt x="492" y="54" on="0"/>
        <pt x="492" y="73" on="1"/>
        <pt x="492" y="81" on="0"/>
        <pt x="488" y="94" on="1"/>
        <pt x="444" y="224" on="1"/>
        <pt x="185" y="224" on="1"/>
        <pt x="134" y="82" on="1"/>
        <pt x="130" y="70" on="0"/>
        <pt x="130" y="61" on="0"/>
        <pt x="136" y="60" on="1"/>
        <pt x="207" y="41" on="1"/>
        <pt x="203" y="0" on="1"/>
      </contour>
      <contour>
        <pt x="204" y="277" on="1"/>
        <pt x="427" y="277" on="1"/>
        <pt x="329" y="558" on="1"/>
        <pt x="322" y="579" on="0"/>
        <pt x="322" y="587" on="1"/>
        <pt x="312" y="587" on="1"/>
      </contour>
      <contour>
        <pt x="476" y="749" on="1"/>
        <pt x="337" y="840" on="1"/>
        <pt x="198" y="749" on="1"/>
        <pt x="173" y="775" on="1"/>
        <pt x="309" y="914" on="1"/>
        <pt x="365" y="914" on="1"/>
        <pt x="501" y="775" on="1"/>
      </contour>
    </TTGlyph>
    <TTGlyph name="Acircumflex.sc" xMin="6" yMin="0" xMax="515" yMax="765">
      <contour>
        <pt x="11" y="0" on="1"/>
        <pt x="6" y="37" on="1"/>
        <pt x="36" y="44" on="0"/>
        <pt x="49" y="53" on="0"/>
        <pt x="55" y="70" on="1"/>
        <pt x="227" y="544" on="1"/>
        <pt x="291" y="544" on="1"/>
        <pt x="469" y="57" on="1"/>
        <pt x="473" y="45" on="0"/>
        <pt x="515" y="38" on="1"/>
        <pt x="512" y="0" on="1"/>
        <pt x="314" y="0" on="1"/>
        <pt x="309" y="37" on="1"/>
        <pt x="364" y="48" on="0"/>
        <pt x="364" y="62" on="1"/>
        <pt x="364" y="68" on="0"/>
        <pt x="361" y="78" on="1"/>
        <pt x="330" y="168" on="1"/>
        <pt x="144" y="168" on="1"/>
        <pt x="109" y="69" on="1"/>
        <pt x="106" y="61" on="0"/>
        <pt x="106" y="53" on="0"/>
        <pt x="110" y="52" on="1"/>
        <pt x="166" y="37" on="1"/>
        <pt x="163" y="0" on="1"/>
      </contour>
      <contour>
        <pt x="159" y="215" on="1"/>
        <pt x="315" y="215" on="1"/>
        <pt x="247" y="418" on="1"/>
        <pt x="242" y="433" on="0"/>
        <pt x="242" y="440" on="1"/>
        <pt x="237" y="440" on="1"/>
      </contour>
      <contour>
        <pt x="402" y="600" on="1"/>
        <pt x="263" y="691" on="1"/>
        <pt x="124" y="600" on="1"/>
        <pt x="99" y="626" on="1"/>
        <pt x="235" y="765" on="1"/>
        <pt x="291" y="765" on="1"/>
        <pt x="427" y="626" on="1"/>
      </contour>
    </TTGlyph>
    <TTGlyph name="Adieresis" xMin="7" yMin="0" xMax="665" yMax="885">
      <contour>
        <pt x="14" y="0" on="1"/>
        <pt x="7" y="40" on="1"/>
        <pt x="45" y="50" on="0"/>
        <pt x="62" y="62" on="0"/>
        <pt x="70" y="83" on="1"/>
        <pt x="294" y="702" on="1"/>
        <pt x="377" y="702" on="1"/>
        <pt x="606" y="67" on="1"/>
        <pt x="611" y="52" on="0"/>
        <pt x="665" y="42" on="1"/>
        <pt x="661" y="0" on="1"/>
        <pt x="428" y="0" on="1"/>
        <pt x="422" y="40" on="1"/>
        <pt x="492" y="54" on="0"/>
        <pt x="492" y="73" on="1"/>
        <pt x="492" y="81" on="0"/>
        <pt x="488" y="94" on="1"/>
        <pt x="444" y="224" on="1"/>
        <pt x="185" y="224" on="1"/>
        <pt x="134" y="82" on="1"/>
        <pt x="130" y="70" on="0"/>
        <pt x="130" y="61" on="0"/>
        <pt x="136" y="60" on="1"/>
        <pt x="207" y="41" on="1"/>
        <pt x="203" y="0" on="1"/>
      </contour>
      <contour>
        <pt x="204" y="277" on="1"/>
        <pt x="427" y="277" on="1"/>
        <pt x="329" y="558" on="1"/>
        <pt x="322" y="579" on="0"/>
        <pt x="322" y="587" on="1"/>
        <pt x="312" y="587" on="1"/>
      </contour>
      <contour>
        <pt x="433" y="775" on="1"/>
        <pt x="381" y="775" on="0"/>
        <pt x="381" y="831" on="1"/>
        <pt x="381" y="853" on="0"/>
        <pt x="410" y="885" on="0"/>
        <pt x="433" y="885" on="1"/>
        <pt x="486" y="885" on="0"/>
        <pt x="486" y="831" on="1"/>
        <pt x="486" y="808" on="0"/>
        <pt x="456" y="775" on="0"/>
      </contour>
      <contour>
        <pt x="240" y="775" on="1"/>
        <pt x="188" y="775" on="0"/>
        <pt x="188" y="831" on="1"/>
        <pt x="188" y="853" on="0"/>
        <pt x="217" y="885" on="0"/>
        <pt x="240" y="885" on="1"/>
        <pt x="293" y="885" on="0"/>
        <pt x="293" y="831" on="1"/>
        <pt x="293" y="808" on="0"/>
        <pt x="263" y="775" on="0"/>
      </contour>
    </TTGlyph>
    <TTGlyph name="Adieresis.sc" xMin="6" yMin="0" xMax="515" yMax="736">
      <contour>
        <pt x="11" y="0" on="1"/>
        <pt x="6" y="37" on="1"/>
        <pt x="36" y="44" on="0"/>
        <pt x="49" y="53" on="0"/>
        <pt x="55" y="70" on="1"/>
        <pt x="227" y="544" on="1"/>
        <pt x="291" y="544" on="1"/>
        <pt x="469" y="57" on="1"/>
        <pt x="473" y="45" on="0"/>
        <pt x="515" y="38" on="1"/>
        <pt x="512" y="0" on="1"/>
        <pt x="314" y="0" on="1"/>
        <pt x="309" y="37" on="1"/>
        <pt x="364" y="48" on="0"/>
        <pt x="364" y="62" on="1"/>
        <pt x="364" y="68" on="0"/>
        <pt x="361" y="78" on="1"/>
        <pt x="330" y="168" on="1"/>
        <pt x="144" y="168" on="1"/>
        <pt x="109" y="69" on="1"/>
        <pt x="106" y="61" on="0"/>
        <pt x="106" y="53" on="0"/>
        <pt x="110" y="52" on="1"/>
        <pt x="166" y="37" on="1"/>
        <pt x="163" y="0" on="1"/>
      </contour>
      <contour>
        <pt x="159" y="215" on="1"/>
        <pt x="315" y="215" on="1"/>
        <pt x="247" y="418" on="1"/>
        <pt x="242" y="433" on="0"/>
        <pt x="242" y="440" on="1"/>
        <pt x="237" y="440" on="1"/>
      </contour>
      <contour>
        <pt x="359" y="626" on="1"/>
        <pt x="307" y="626" on="0"/>
        <pt x="307" y="682" on="1"/>
        <pt x="307" y="704" on="0"/>
        <pt x="336" y="736" on="0"/>
        <pt x="359" y="736" on="1"/>
        <pt x="412" y="736" on="0"/>
        <pt x="412" y="682" on="1"/>
        <pt x="412" y="659" on="0"/>
        <pt x="382" y="626" on="0"/>
      </contour>
      <contour>
        <pt x="166" y="626" on="1"/>
        <pt x="114" y="626" on="0"/>
        <pt x="114" y="682" on="1"/>
        <pt x="114" y="704" on="0"/>
        <pt x="143" y="736" on="0"/>
        <pt x="166" y="736" on="1"/>
        <pt x="219" y="736" on="0"/>
        <pt x="219" y="682" on="1"/>
        <pt x="219" y="659" on="0"/>
        <pt x="189" y="626" on="0"/>
      </contour>
    </TTGlyph>
    <TTGlyph name="Agrave" xMin="7" yMin="0" xMax="665" yMax="914">
      <contour>
        <pt x="14" y="0" on="1"/>
        <pt x="7" y="40" on="1"/>
        <pt x="45" y="50" on="0"/>
        <pt x="62" y="62" on="0"/>
        <pt x="70" y="83" on="1"/>
        <pt x="294" y="702" on="1"/>
        <pt x="377" y="702" on="1"/>
        <pt x="606" y="67" on="1"/>
        <pt x="611" y="52" on="0"/>
        <pt x="665" y="42" on="1"/>
        <pt x="661" y="0" on="1"/>
        <pt x="428" y="0" on="1"/>
        <pt x="422" y="40" on="1"/>
        <pt x="492" y="54" on="0"/>
        <pt x="492" y="73" on="1"/>
        <pt x="492" y="81" on="0"/>
        <pt x="488" y="94" on="1"/>
        <pt x="444" y="224" on="1"/>
        <pt x="185" y="224" on="1"/>
        <pt x="134" y="82" on="1"/>
        <pt x="130" y="70" on="0"/>
        <pt x="130" y="61" on="0"/>
        <pt x="136" y="60" on="1"/>
        <pt x="207" y="41" on="1"/>
        <pt x="203" y="0" on="1"/>
      </contour>
      <contour>
        <pt x="204" y="277" on="1"/>
        <pt x="427" y="277" on="1"/>
        <pt x="329" y="558" on="1"/>
        <pt x="322" y="579" on="0"/>
        <pt x="322" y="587" on="1"/>
        <pt x="312" y="587" on="1"/>
      </contour>
      <contour>
        <pt x="178" y="842" on="1"/>
        <pt x="170" y="863" on="1"/>
        <pt x="230" y="914" on="1"/>
        <pt x="404" y="785" on="1"/>
        <pt x="379" y="749" on="1"/>
      </contour>
    </TTGlyph>
    <TTGlyph name="Agrave.sc" xMin="6" yMin="0" xMax="515" yMax="765">
      <contour>
        <pt x="11" y="0" on="1"/>
        <pt x="6" y="37" on="1"/>
        <pt x="36" y="44" on="0"/>
        <pt x="49" y="53" on="0"/>
        <pt x="55" y="70" on="1"/>
        <pt x="227" y="544" on="1"/>
        <pt x="291" y="544" on="1"/>
        <pt x="469" y="57" on="1"/>
        <pt x="473" y="45" on="0"/>
        <pt x="515" y="38" on="1"/>
        <pt x="512" y="0" on="1"/>
        <pt x="314" y="0" on="1"/>
        <pt x="309" y="37" on="1"/>
        <pt x="364" y="48" on="0"/>
        <pt x="364" y="62" on="1"/>
        <pt x="364" y="68" on="0"/>
        <pt x="361" y="78" on="1"/>
        <pt x="330" y="168" on="1"/>
        <pt x="144" y="168" on="1"/>
        <pt x="109" y="69" on="1"/>
        <pt x="106" y="61" on="0"/>
        <pt x="106" y="53" on="0"/>
        <pt x="110" y="52" on="1"/>
        <pt x="166" y="37" on="1"/>
        <pt x="163" y="0" on="1"/>
      </contour>
      <contour>
        <pt x="159" y="215" on="1"/>
        <pt x="315" y="215" on="1"/>
        <pt x="247" y="418" on="1"/>
        <pt x="242" y="433" on="0"/>
        <pt x="242" y="440" on="1"/>
        <pt x="237" y="440" on="1"/>
      </contour>
      <contour>
        <pt x="96" y="693" on="1"/>
        <pt x="88" y="714" on="1"/>
        <pt x="148" y="765" on="1"/>
        <pt x="322" y="636" on="1"/>
        <pt x="297" y="600" on="1"/>
      </contour>
    </TTGlyph>
    <TTGlyph name="Amacron" xMin="7" yMin="0" xMax="665" yMax="836">
      <component glyphName="A" x="0" y="0" flags="0x1004"/>
      <component glyphName="macron" x="191" y="134" flags="0x1004"/>
    </TTGlyph>
    <TTGlyph name="Amacron.sc" xMin="6" yMin="0" xMax="515" yMax="710">
      <contour>
        <pt x="11" y="0" on="1"/>
        <pt x="6" y="37" on="1"/>
        <pt x="36" y="44" on="0"/>
        <pt x="49" y="53" on="0"/>
        <pt x="55" y="70" on="1"/>
        <pt x="227" y="544" on="1"/>
        <pt x="291" y="544" on="1"/>
        <pt x="469" y="57" on="1"/>
        <pt x="473" y="45" on="0"/>
        <pt x="515" y="38" on="1"/>
        <pt x="512" y="0" on="1"/>
        <pt x="314" y="0" on="1"/>
        <pt x="309" y="37" on="1"/>
        <pt x="364" y="48" on="0"/>
        <pt x="364" y="62" on="1"/>
        <pt x="364" y="68" on="0"/>
        <pt x="361" y="78" on="1"/>
        <pt x="330" y="168" on="1"/>
        <pt x="144" y="168" on="1"/>
        <pt x="109" y="69" on="1"/>
        <pt x="106" y="61" on="0"/>
        <pt x="106" y="53" on="0"/>
        <pt x="110" y="52" on="1"/>
        <pt x="166" y="37" on="1"/>
        <pt x="163" y="0" on="1"/>
      </contour>
      <contour>
        <pt x="159" y="215" on="1"/>
        <pt x="315" y="215" on="1"/>
        <pt x="247" y="418" on="1"/>
        <pt x="242" y="433" on="0"/>
        <pt x="242" y="440" on="1"/>
        <pt x="237" y="440" on="1"/>
      </contour>
      <contour>
        <pt x="143" y="650" on="1"/>
        <pt x="143" y="710" on="1"/>
        <pt x="392" y="710" on="1"/>
        <pt x="392" y="650" on="1"/>
      </contour>
    </TTGlyph>
    <TTGlyph name="Aogonek" xMin="7" yMin="-215" xMax="665" yMax="702">
      <contour>
        <pt x="628" y="-169" on="1"/>
        <pt x="577" y="-215" on="0"/>
        <pt x="518" y="-215" on="1"/>
        <pt x="479" y="-215" on="0"/>
        <pt x="420" y="-164" on="0"/>
        <pt x="420" y="-125" on="1"/>
        <pt x="420" y="-67" on="0"/>
        <pt x="481" y="-20" on="1"/>
        <pt x="496" y="-9" on="0"/>
        <pt x="514" y="0" on="1"/>
        <pt x="428" y="0" on="1"/>
        <pt x="422" y="40" on="1"/>
        <pt x="492" y="54" on="0"/>
        <pt x="492" y="73" on="1"/>
        <pt x="492" y="81" on="0"/>
        <pt x="488" y="94" on="1"/>
        <pt x="444" y="224" on="1"/>
        <pt x="185" y="224" on="1"/>
        <pt x="134" y="82" on="1"/>
        <pt x="130" y="70" on="0"/>
        <pt x="130" y="61" on="0"/>
        <pt x="136" y="60" on="1"/>
        <pt x="207" y="41" on="1"/>
        <pt x="203" y="0" on="1"/>
        <pt x="14" y="0" on="1"/>
        <pt x="7" y="40" on="1"/>
        <pt x="45" y="50" on="0"/>
        <pt x="62" y="62" on="0"/>
        <pt x="70" y="83" on="1"/>
        <pt x="294" y="702" on="1"/>
        <pt x="377" y="702" on="1"/>
        <pt x="606" y="67" on="1"/>
        <pt x="611" y="52" on="0"/>
        <pt x="665" y="42" on="1"/>
        <pt x="661" y="0" on="1"/>
        <pt x="643" y="0" on="1"/>
        <pt x="583" y="-2" on="0"/>
        <pt x="501" y="-61" on="0"/>
        <pt x="501" y="-105" on="1"/>
        <pt x="501" y="-131" on="0"/>
        <pt x="532" y="-159" on="0"/>
        <pt x="587" y="-159" on="0"/>
        <pt x="616" y="-149" on="1"/>
      </contour>
      <contour>
        <pt x="204" y="277" on="1"/>
        <pt x="427" y="277" on="1"/>
        <pt x="329" y="558" on="1"/>
        <pt x="322" y="579" on="0"/>
        <pt x="322" y="587" on="1"/>
        <pt x="312" y="587" on="1"/>
      </contour>
    </TTGlyph>
    <TTGlyph name="Aogonek.sc" xMin="6" yMin="-212" xMax="515" yMax="544">
      <contour>
        <pt x="11" y="0" on="1"/>
        <pt x="6" y="37" on="1"/>
        <pt x="36" y="44" on="0"/>
        <pt x="49" y="53" on="0"/>
        <pt x="55" y="70" on="1"/>
        <pt x="227" y="544" on="1"/>
        <pt x="291" y="544" on="1"/>
        <pt x="469" y="57" on="1"/>
        <pt x="473" y="45" on="0"/>
        <pt x="515" y="38" on="1"/>
        <pt x="512" y="0" on="1"/>
        <pt x="314" y="0" on="1"/>
        <pt x="309" y="37" on="1"/>
        <pt x="364" y="48" on="0"/>
        <pt x="364" y="62" on="1"/>
        <pt x="364" y="68" on="0"/>
        <pt x="361" y="78" on="1"/>
        <pt x="330" y="168" on="1"/>
        <pt x="144" y="168" on="1"/>
        <pt x="109" y="69" on="1"/>
        <pt x="106" y="61" on="0"/>
        <pt x="106" y="53" on="0"/>
        <pt x="110" y="52" on="1"/>
        <pt x="166" y="37" on="1"/>
        <pt x="163" y="0" on="1"/>
      </contour>
      <contour>
        <pt x="159" y="215" on="1"/>
        <pt x="315" y="215" on="1"/>
        <pt x="247" y="418" on="1"/>
        <pt x="242" y="433" on="0"/>
        <pt x="242" y="440" on="1"/>
        <pt x="237" y="440" on="1"/>
      </contour>
      <contour>
        <pt x="450" y="-171" on="1"/>
        <pt x="405" y="-212" on="0"/>
        <pt x="319" y="-212" on="0"/>
        <pt x="269" y="-163" on="0"/>
        <pt x="269" y="-77" on="0"/>
        <pt x="351" y="8" on="0"/>
        <pt x="431" y="33" on="1"/>
        <pt x="442" y="13" on="1"/>
        <pt x="336" y="-39" on="0"/>
        <pt x="336" y="-111" on="1"/>
        <pt x="336" y="-134" on="0"/>
        <pt x="364" y="-162" on="0"/>
        <pt x="414" y="-162" on="0"/>
        <pt x="439" y="-153" on="1"/>
      </contour>
    </TTGlyph>
    <TTGlyph name="Aring" xMin="7" yMin="0" xMax="665" yMax="919">
      <contour>
        <pt x="14" y="0" on="1"/>
        <pt x="7" y="40" on="1"/>
        <pt x="45" y="50" on="0"/>
        <pt x="62" y="62" on="0"/>
        <pt x="70" y="83" on="1"/>
        <pt x="294" y="702" on="1"/>
        <pt x="377" y="702" on="1"/>
        <pt x="606" y="67" on="1"/>
        <pt x="611" y="52" on="0"/>
        <pt x="665" y="42" on="1"/>
        <pt x="661" y="0" on="1"/>
        <pt x="428" y="0" on="1"/>
        <pt x="422" y="40" on="1"/>
        <pt x="492" y="54" on="0"/>
        <pt x="492" y="73" on="1"/>
        <pt x="492" y="81" on="0"/>
        <pt x="488" y="94" on="1"/>
        <pt x="444" y="224" on="1"/>
        <pt x="185" y="224" on="1"/>
        <pt x="134" y="82" on="1"/>
        <pt x="130" y="70" on="0"/>
        <pt x="130" y="61" on="0"/>
        <pt x="136" y="60" on="1"/>
        <pt x="207" y="41" on="1"/>
        <pt x="203" y="0" on="1"/>
      </contour>
      <contour>
        <pt x="204" y="277" on="1"/>
        <pt x="427" y="277" on="1"/>
        <pt x="329" y="558" on="1"/>
        <pt x="322" y="579" on="0"/>
        <pt x="322" y="587" on="1"/>
        <pt x="312" y="587" on="1"/>
      </contour>
      <contour>
        <pt x="440" y="791" on="0"/>
        <pt x="381" y="739" on="0"/>
        <pt x="298" y="739" on="0"/>
        <pt x="243" y="786" on="0"/>
        <pt x="243" y="868" on="0"/>
        <pt x="302" y="919" on="0"/>
        <pt x="384" y="919" on="0"/>
        <pt x="440" y="871" on="0"/>
      </contour>
      <contour>
        <pt x="292" y="806" on="0"/>
        <pt x="318" y="782" on="0"/>
        <pt x="361" y="782" on="0"/>
        <pt x="390" y="810" on="0"/>
        <pt x="390" y="852" on="0"/>
        <pt x="364" y="876" on="0"/>
        <pt x="344" y="876" on="1"/>
        <pt x="292" y="876" on="0"/>
        <pt x="292" y="827" on="1"/>
      </contour>
    </TTGlyph>
    <TTGlyph name="Aring.sc" xMin="6" yMin="0" xMax="515" yMax="770">
      <contour>
        <pt x="11" y="0" on="1"/>
        <pt x="6" y="37" on="1"/>
        <pt x="36" y="44" on="0"/>
        <pt x="49" y="53" on="0"/>
        <pt x="55" y="70" on="1"/>
        <pt x="227" y="544" on="1"/>
        <pt x="291" y="544" on="1"/>
        <pt x="469" y="57" on="1"/>
        <pt x="473" y="45" on="0"/>
        <pt x="515" y="38" on="1"/>
        <pt x="512" y="0" on="1"/>
        <pt x="314" y="0" on="1"/>
        <pt x="309" y="37" on="1"/>
        <pt x="364" y="48" on="0"/>
        <pt x="364" y="62" on="1"/>
        <pt x="364" y="68" on="0"/>
        <pt x="361" y="78" on="1"/>
        <pt x="330" y="168" on="1"/>
        <pt x="144" y="168" on="1"/>
        <pt x="109" y="69" on="1"/>
        <pt x="106" y="61" on="0"/>
        <pt x="106" y="53" on="0"/>
        <pt x="110" y="52" on="1"/>
        <pt x="166" y="37" on="1"/>
        <pt x="163" y="0" on="1"/>
      </contour>
      <contour>
        <pt x="159" y="215" on="1"/>
        <pt x="315" y="215" on="1"/>
        <pt x="247" y="418" on="1"/>
        <pt x="242" y="433" on="0"/>
        <pt x="242" y="440" on="1"/>
        <pt x="237" y="440" on="1"/>
      </contour>
      <contour>
        <pt x="359" y="642" on="0"/>
        <pt x="300" y="590" on="0"/>
        <pt x="217" y="590" on="0"/>
        <pt x="162" y="637" on="0"/>
        <pt x="162" y="719" on="0"/>
        <pt x="221" y="770" on="0"/>
        <pt x="303" y="770" on="0"/>
        <pt x="359" y="722" on="0"/>
      </contour>
      <contour>
        <pt x="211" y="657" on="0"/>
        <pt x="237" y="633" on="0"/>
        <pt x="280" y="633" on="0"/>
        <pt x="309" y="661" on="0"/>
        <pt x="309" y="703" on="0"/>
        <pt x="283" y="727" on="0"/>
        <pt x="263" y="727" on="1"/>
        <pt x="211" y="727" on="0"/>
        <pt x="211" y="678" on="1"/>
      </contour>
    </TTGlyph>
    <TTGlyph name="Atilde" xMin="7" yMin="0" xMax="665" yMax="891">
      <contour>
        <pt x="14" y="0" on="1"/>
        <pt x="7" y="40" on="1"/>
        <pt x="45" y="50" on="0"/>
        <pt x="62" y="62" on="0"/>
        <pt x="70" y="83" on="1"/>
        <pt x="294" y="702" on="1"/>
        <pt x="377" y="702" on="1"/>
        <pt x="606" y="67" on="1"/>
        <pt x="611" y="52" on="0"/>
        <pt x="665" y="42" on="1"/>
        <pt x="661" y="0" on="1"/>
        <pt x="428" y="0" on="1"/>
        <pt x="422" y="40" on="1"/>
        <pt x="492" y="54" on="0"/>
        <pt x="492" y="73" on="1"/>
        <pt x="492" y="81" on="0"/>
        <pt x="488" y="94" on="1"/>
        <pt x="444" y="224" on="1"/>
        <pt x="185" y="224" on="1"/>
        <pt x="134" y="82" on="1"/>
        <pt x="130" y="70" on="0"/>
        <pt x="130" y="61" on="0"/>
        <pt x="136" y="60" on="1"/>
        <pt x="207" y="41" on="1"/>
        <pt x="203" y="0" on="1"/>
      </contour>
      <contour>
        <pt x="204" y="277" on="1"/>
        <pt x="427" y="277" on="1"/>
        <pt x="329" y="558" on="1"/>
        <pt x="322" y="579" on="0"/>
        <pt x="322" y="587" on="1"/>
        <pt x="312" y="587" on="1"/>
      </contour>
      <contour>
        <pt x="493" y="891" on="1"/>
        <pt x="518" y="879" on="1"/>
        <pt x="497" y="833" on="0"/>
        <pt x="454" y="778" on="0"/>
        <pt x="409" y="778" on="0"/>
        <pt x="276" y="805" on="0"/>
        <pt x="252" y="805" on="1"/>
        <pt x="214" y="805" on="0"/>
        <pt x="180" y="771" on="1"/>
        <pt x="157" y="787" on="1"/>
        <pt x="189" y="840" on="0"/>
        <pt x="235" y="883" on="0"/>
        <pt x="281" y="883" on="0"/>
        <pt x="410" y="856" on="0"/>
        <pt x="460" y="856" on="0"/>
      </contour>
    </TTGlyph>
    <TTGlyph name="Atilde.sc" xMin="6" yMin="0" xMax="515" yMax="742">
      <contour>
        <pt x="11" y="0" on="1"/>
        <pt x="6" y="37" on="1"/>
        <pt x="36" y="44" on="0"/>
        <pt x="49" y="53" on="0"/>
        <pt x="55" y="70" on="1"/>
        <pt x="227" y="544" on="1"/>
        <pt x="291" y="544" on="1"/>
        <pt x="469" y="57" on="1"/>
        <pt x="473" y="45" on="0"/>
        <pt x="515" y="38" on="1"/>
        <pt x="512" y="0" on="1"/>
        <pt x="314" y="0" on="1"/>
        <pt x="309" y="37" on="1"/>
        <pt x="364" y="48" on="0"/>
        <pt x="364" y="62" on="1"/>
        <pt x="364" y="68" on="0"/>
        <pt x="361" y="78" on="1"/>
        <pt x="330" y="168" on="1"/>
        <pt x="144" y="168" on="1"/>
        <pt x="109" y="69" on="1"/>
        <pt x="106" y="61" on="0"/>
        <pt x="106" y="53" on="0"/>
        <pt x="110" y="52" on="1"/>
        <pt x="166" y="37" on="1"/>
        <pt x="163" y="0" on="1"/>
      </contour>
      <contour>
        <pt x="159" y="215" on="1"/>
        <pt x="315" y="215" on="1"/>
        <pt x="247" y="418" on="1"/>
        <pt x="242" y="433" on="0"/>
        <pt x="242" y="440" on="1"/>
        <pt x="237" y="440" on="1"/>
      </contour>
      <contour>
        <pt x="421" y="742" on="1"/>
        <pt x="446" y="730" on="1"/>
        <pt x="425" y="684" on="0"/>
        <pt x="382" y="629" on="0"/>
        <pt x="337" y="629" on="0"/>
        <pt x="204" y="656" on="0"/>
        <pt x="180" y="656" on="1"/>
        <pt x="142" y="656" on="0"/>
        <pt x="108" y="622" on="1"/>
        <pt x="85" y="638" on="1"/>
        <pt x="117" y="691" on="0"/>
        <pt x="163" y="734" on="0"/>
        <pt x="209" y="734" on="0"/>
        <pt x="338" y="707" on="0"/>
        <pt x="388" y="707" on="0"/>
      </contour>
    </TTGlyph>
    <TTGlyph name="B" xMin="44" yMin="0" xMax="584" yMax="693">
      <contour>
        <pt x="50" y="0" on="1"/>
        <pt x="44" y="39" on="1"/>
        <pt x="97" y="48" on="0"/>
        <pt x="120" y="70" on="0"/>
        <pt x="120" y="101" on="1"/>
        <pt x="120" y="592" on="1"/>
        <pt x="120" y="623" on="0"/>
        <pt x="97" y="645" on="0"/>
        <pt x="44" y="654" on="1"/>
        <pt x="50" y="693" on="1"/>
        <pt x="314" y="693" on="1"/>
        <pt x="423" y="693" on="0"/>
        <pt x="539" y="606" on="0"/>
        <pt x="539" y="528" on="1"/>
        <pt x="539" y="466" on="0"/>
        <pt x="472" y="381" on="0"/>
        <pt x="434" y="369" on="1"/>
        <pt x="434" y="362" on="1"/>
        <pt x="498" y="350" on="0"/>
        <pt x="584" y="254" on="0"/>
        <pt x="584" y="117" on="0"/>
        <pt x="465" y="0" on="0"/>
        <pt x="342" y="0" on="1"/>
      </contour>
      <contour>
        <pt x="217" y="383" on="1"/>
        <pt x="273" y="383" on="1"/>
        <pt x="355" y="383" on="0"/>
        <pt x="432" y="454" on="0"/>
        <pt x="432" y="516" on="1"/>
        <pt x="432" y="640" on="0"/>
        <pt x="284" y="640" on="1"/>
        <pt x="217" y="640" on="1"/>
      </contour>
      <contour>
        <pt x="217" y="97" on="1"/>
        <pt x="217" y="68" on="0"/>
        <pt x="232" y="62" on="1"/>
        <pt x="247" y="52" on="0"/>
        <pt x="293" y="52" on="1"/>
        <pt x="389" y="52" on="0"/>
        <pt x="473" y="120" on="0"/>
        <pt x="473" y="184" on="1"/>
        <pt x="473" y="277" on="0"/>
        <pt x="398" y="312" on="1"/>
        <pt x="361" y="330" on="0"/>
        <pt x="314" y="330" on="1"/>
        <pt x="217" y="330" on="1"/>
      </contour>
    </TTGlyph>
    <TTGlyph name="B.sc" xMin="48" yMin="0" xMax="487" yMax="537">
      <contour>
        <pt x="53" y="0" on="1"/>
        <pt x="48" y="36" on="1"/>
        <pt x="89" y="43" on="0"/>
        <pt x="107" y="60" on="0"/>
        <pt x="107" y="84" on="1"/>
        <pt x="107" y="453" on="1"/>
        <pt x="107" y="477" on="0"/>
        <pt x="89" y="494" on="0"/>
        <pt x="48" y="501" on="1"/>
        <pt x="53" y="537" on="1"/>
        <pt x="268" y="537" on="1"/>
        <pt x="357" y="537" on="0"/>
        <pt x="452" y="469" on="0"/>
        <pt x="452" y="361" on="0"/>
        <pt x="399" y="295" on="0"/>
        <pt x="370" y="286" on="1"/>
        <pt x="370" y="281" on="1"/>
        <pt x="420" y="271" on="0"/>
        <pt x="487" y="196" on="0"/>
        <pt x="487" y="91" on="0"/>
        <pt x="390" y="0" on="0"/>
        <pt x="290" y="0" on="1"/>
      </contour>
      <contour>
        <pt x="200" y="300" on="1"/>
        <pt x="240" y="300" on="1"/>
        <pt x="352" y="300" on="0"/>
        <pt x="352" y="400" on="1"/>
        <pt x="352" y="490" on="0"/>
        <pt x="248" y="490" on="1"/>
        <pt x="200" y="490" on="1"/>
      </contour>
      <contour>
        <pt x="270" y="253" on="1"/>
        <pt x="200" y="253" on="1"/>
        <pt x="200" y="81" on="1"/>
        <pt x="200" y="60" on="0"/>
        <pt x="211" y="54" on="1"/>
        <pt x="219" y="46" on="0"/>
        <pt x="255" y="46" on="1"/>
        <pt x="384" y="46" on="0"/>
        <pt x="384" y="143" on="1"/>
        <pt x="384" y="203" on="0"/>
        <pt x="315" y="253" on="0"/>
      </contour>
    </TTGlyph>
    <TTGlyph name="C" xMin="35" yMin="-9" xMax="596" yMax="702">
      <contour>
        <pt x="35" y="331" on="1"/>
        <pt x="35" y="445" on="0"/>
        <pt x="82" y="534" on="1"/>
        <pt x="137" y="639" on="0"/>
        <pt x="247" y="680" on="1"/>
        <pt x="308" y="702" on="0"/>
        <pt x="440" y="702" on="0"/>
        <pt x="562" y="682" on="0"/>
        <pt x="581" y="674" on="1"/>
        <pt x="587" y="637" on="0"/>
        <pt x="587" y="556" on="0"/>
        <pt x="585" y="506" on="1"/>
        <pt x="528" y="498" on="1"/>
        <pt x="506" y="614" on="0"/>
        <pt x="489" y="626" on="1"/>
        <pt x="480" y="633" on="0"/>
        <pt x="405" y="649" on="0"/>
        <pt x="368" y="649" on="1"/>
        <pt x="258" y="649" on="0"/>
        <pt x="146" y="487" on="0"/>
        <pt x="146" y="355" on="1"/>
        <pt x="146" y="199" on="0"/>
        <pt x="288" y="47" on="0"/>
        <pt x="393" y="47" on="1"/>
        <pt x="431" y="47" on="0"/>
        <pt x="498" y="65" on="0"/>
        <pt x="519" y="81" on="0"/>
        <pt x="541" y="200" on="1"/>
        <pt x="596" y="198" on="1"/>
        <pt x="596" y="122" on="0"/>
        <pt x="585" y="36" on="1"/>
        <pt x="554" y="19" on="0"/>
        <pt x="429" y="-9" on="0"/>
        <pt x="364" y="-9" on="1"/>
        <pt x="201" y="-9" on="0"/>
        <pt x="35" y="183" on="0"/>
      </contour>
    </TTGlyph>
    <TTGlyph name="C.sc" xMin="38" yMin="-7" xMax="480" yMax="544">
      <contour>
        <pt x="38" y="268" on="1"/>
        <pt x="38" y="321" on="0"/>
        <pt x="68" y="411" on="0"/>
        <pt x="129" y="493" on="0"/>
        <pt x="238" y="544" on="0"/>
        <pt x="395" y="544" on="0"/>
        <pt x="475" y="504" on="1"/>
        <pt x="476" y="495" on="0"/>
        <pt x="476" y="404" on="0"/>
        <pt x="464" y="359" on="1"/>
        <pt x="404" y="352" on="1"/>
        <pt x="395" y="434" on="0"/>
        <pt x="388" y="469" on="0"/>
        <pt x="382" y="473" on="1"/>
        <pt x="354" y="497" on="0"/>
        <pt x="306" y="497" on="1"/>
        <pt x="225" y="497" on="0"/>
        <pt x="141" y="375" on="0"/>
        <pt x="141" y="159" on="0"/>
        <pt x="253" y="40" on="0"/>
        <pt x="326" y="40" on="1"/>
        <pt x="348" y="40" on="0"/>
        <pt x="389" y="51" on="0"/>
        <pt x="393" y="57" on="1"/>
        <pt x="408" y="84" on="0"/>
        <pt x="417" y="157" on="1"/>
        <pt x="471" y="154" on="1"/>
        <pt x="480" y="111" on="0"/>
        <pt x="480" y="40" on="0"/>
        <pt x="478" y="22" on="1"/>
        <pt x="459" y="12" on="0"/>
        <pt x="353" y="-7" on="0"/>
        <pt x="320" y="-7" on="1"/>
        <pt x="164" y="-7" on="0"/>
        <pt x="98" y="78" on="1"/>
        <pt x="38" y="155" on="0"/>
      </contour>
    </TTGlyph>
    <TTGlyph name="Cacute" xMin="35" yMin="-9" xMax="596" yMax="914">
      <contour>
        <pt x="35" y="331" on="1"/>
        <pt x="35" y="445" on="0"/>
        <pt x="82" y="534" on="1"/>
        <pt x="137" y="639" on="0"/>
        <pt x="247" y="680" on="1"/>
        <pt x="308" y="702" on="0"/>
        <pt x="440" y="702" on="0"/>
        <pt x="562" y="682" on="0"/>
        <pt x="581" y="674" on="1"/>
        <pt x="587" y="637" on="0"/>
        <pt x="587" y="556" on="0"/>
        <pt x="585" y="506" on="1"/>
        <pt x="528" y="498" on="1"/>
        <pt x="506" y="614" on="0"/>
        <pt x="489" y="626" on="1"/>
        <pt x="480" y="633" on="0"/>
        <pt x="405" y="649" on="0"/>
        <pt x="368" y="649" on="1"/>
        <pt x="258" y="649" on="0"/>
        <pt x="146" y="487" on="0"/>
        <pt x="146" y="355" on="1"/>
        <pt x="146" y="199" on="0"/>
        <pt x="288" y="47" on="0"/>
        <pt x="393" y="47" on="1"/>
        <pt x="431" y="47" on="0"/>
        <pt x="498" y="65" on="0"/>
        <pt x="519" y="81" on="0"/>
        <pt x="541" y="200" on="1"/>
        <pt x="596" y="198" on="1"/>
        <pt x="596" y="122" on="0"/>
        <pt x="585" y="36" on="1"/>
        <pt x="554" y="19" on="0"/>
        <pt x="429" y="-9" on="0"/>
        <pt x="364" y="-9" on="1"/>
        <pt x="201" y="-9" on="0"/>
        <pt x="35" y="183" on="0"/>
      </contour>
      <contour>
        <pt x="521" y="863" on="1"/>
        <pt x="513" y="842" on="1"/>
        <pt x="312" y="749" on="1"/>
        <pt x="287" y="785" on="1"/>
        <pt x="461" y="914" on="1"/>
      </contour>
    </TTGlyph>
    <TTGlyph name="Cacute.sc" xMin="38" yMin="-7" xMax="480" yMax="765">
      <contour>
        <pt x="38" y="268" on="1"/>
        <pt x="38" y="321" on="0"/>
        <pt x="68" y="411" on="0"/>
        <pt x="129" y="493" on="0"/>
        <pt x="238" y="544" on="0"/>
        <pt x="395" y="544" on="0"/>
        <pt x="475" y="504" on="1"/>
        <pt x="476" y="495" on="0"/>
        <pt x="476" y="404" on="0"/>
        <pt x="464" y="359" on="1"/>
        <pt x="404" y="352" on="1"/>
        <pt x="395" y="434" on="0"/>
        <pt x="388" y="469" on="0"/>
        <pt x="382" y="473" on="1"/>
        <pt x="354" y="497" on="0"/>
        <pt x="306" y="497" on="1"/>
        <pt x="225" y="497" on="0"/>
        <pt x="141" y="375" on="0"/>
        <pt x="141" y="159" on="0"/>
        <pt x="253" y="40" on="0"/>
        <pt x="326" y="40" on="1"/>
        <pt x="348" y="40" on="0"/>
        <pt x="389" y="51" on="0"/>
        <pt x="393" y="57" on="1"/>
        <pt x="408" y="84" on="0"/>
        <pt x="417" y="157" on="1"/>
        <pt x="471" y="154" on="1"/>
        <pt x="480" y="111" on="0"/>
        <pt x="480" y="40" on="0"/>
        <pt x="478" y="22" on="1"/>
        <pt x="459" y="12" on="0"/>
        <pt x="353" y="-7" on="0"/>
        <pt x="320" y="-7" on="1"/>
        <pt x="164" y="-7" on="0"/>
        <pt x="98" y="78" on="1"/>
        <pt x="38" y="155" on="0"/>
      </contour>
      <contour>
        <pt x="425" y="714" on="1"/>
        <pt x="417" y="693" on="1"/>
        <pt x="216" y="600" on="1"/>
        <pt x="191" y="636" on="1"/>
        <pt x="365" y="765" on="1"/>
      </contour>
    </TTGlyph>
    <TTGlyph name="Ccaron" xMin="35" yMin="-9" xMax="596" yMax="917">
      <contour>
        <pt x="35" y="331" on="1"/>
        <pt x="35" y="445" on="0"/>
        <pt x="82" y="534" on="1"/>
        <pt x="137" y="639" on="0"/>
        <pt x="247" y="680" on="1"/>
        <pt x="308" y="702" on="0"/>
        <pt x="440" y="702" on="0"/>
        <pt x="562" y="682" on="0"/>
        <pt x="581" y="674" on="1"/>
        <pt x="587" y="637" on="0"/>
        <pt x="587" y="556" on="0"/>
        <pt x="585" y="506" on="1"/>
        <pt x="528" y="498" on="1"/>
        <pt x="506" y="614" on="0"/>
        <pt x="489" y="626" on="1"/>
        <pt x="480" y="633" on="0"/>
        <pt x="405" y="649" on="0"/>
        <pt x="368" y="649" on="1"/>
        <pt x="258" y="649" on="0"/>
        <pt x="146" y="487" on="0"/>
        <pt x="146" y="355" on="1"/>
        <pt x="146" y="199" on="0"/>
        <pt x="288" y="47" on="0"/>
        <pt x="393" y="47" on="1"/>
        <pt x="431" y="47" on="0"/>
        <pt x="498" y="65" on="0"/>
        <pt x="519" y="81" on="0"/>
        <pt x="541" y="200" on="1"/>
        <pt x="596" y="198" on="1"/>
        <pt x="596" y="122" on="0"/>
        <pt x="585" y="36" on="1"/>
        <pt x="554" y="19" on="0"/>
        <pt x="429" y="-9" on="0"/>
        <pt x="364" y="-9" on="1"/>
        <pt x="201" y="-9" on="0"/>
        <pt x="35" y="183" on="0"/>
      </contour>
      <contour>
        <pt x="233" y="917" on="1"/>
        <pt x="372" y="826" on="1"/>
        <pt x="511" y="917" on="1"/>
        <pt x="536" y="891" on="1"/>
        <pt x="400" y="752" on="1"/>
        <pt x="344" y="752" on="1"/>
        <pt x="208" y="891" on="1"/>
      </contour>
    </TTGlyph>
    <TTGlyph name="Ccaron.sc" xMin="38" yMin="-7" xMax="480" yMax="768">
      <contour>
        <pt x="38" y="268" on="1"/>
        <pt x="38" y="321" on="0"/>
        <pt x="68" y="411" on="0"/>
        <pt x="129" y="493" on="0"/>
        <pt x="238" y="544" on="0"/>
        <pt x="395" y="544" on="0"/>
        <pt x="475" y="504" on="1"/>
        <pt x="476" y="495" on="0"/>
        <pt x="476" y="404" on="0"/>
        <pt x="464" y="359" on="1"/>
        <pt x="404" y="352" on="1"/>
        <pt x="395" y="434" on="0"/>
        <pt x="388" y="469" on="0"/>
        <pt x="382" y="473" on="1"/>
        <pt x="354" y="497" on="0"/>
        <pt x="306" y="497" on="1"/>
        <pt x="225" y="497" on="0"/>
        <pt x="141" y="375" on="0"/>
        <pt x="141" y="159" on="0"/>
        <pt x="253" y="40" on="0"/>
        <pt x="326" y="40" on="1"/>
        <pt x="348" y="40" on="0"/>
        <pt x="389" y="51" on="0"/>
        <pt x="393" y="57" on="1"/>
        <pt x="408" y="84" on="0"/>
        <pt x="417" y="157" on="1"/>
        <pt x="471" y="154" on="1"/>
        <pt x="480" y="111" on="0"/>
        <pt x="480" y="40" on="0"/>
        <pt x="478" y="22" on="1"/>
        <pt x="459" y="12" on="0"/>
        <pt x="353" y="-7" on="0"/>
        <pt x="320" y="-7" on="1"/>
        <pt x="164" y="-7" on="0"/>
        <pt x="98" y="78" on="1"/>
        <pt x="38" y="155" on="0"/>
      </contour>
      <contour>
        <pt x="130" y="768" on="1"/>
        <pt x="269" y="677" on="1"/>
        <pt x="408" y="768" on="1"/>
        <pt x="433" y="742" on="1"/>
        <pt x="297" y="603" on="1"/>
        <pt x="241" y="603" on="1"/>
        <pt x="105" y="742" on="1"/>
      </contour>
    </TTGlyph>
    <TTGlyph name="Ccedilla" xMin="35" yMin="-217" xMax="596" yMax="702">
      <contour>
        <pt x="296" y="-217" on="1"/>
        <pt x="292" y="-186" on="1"/>
        <pt x="336" y="-181" on="0"/>
        <pt x="387" y="-150" on="0"/>
        <pt x="387" y="-112" on="0"/>
        <pt x="363" y="-90" on="0"/>
        <pt x="318" y="-90" on="0"/>
        <pt x="300" y="-100" on="1"/>
        <pt x="291" y="-89" on="1"/>
        <pt x="315" y="-7" on="1"/>
        <pt x="188" y="6" on="0"/>
        <pt x="118" y="87" on="1"/>
        <pt x="35" y="183" on="0"/>
        <pt x="35" y="331" on="1"/>
        <pt x="35" y="445" on="0"/>
        <pt x="82" y="534" on="1"/>
        <pt x="137" y="639" on="0"/>
        <pt x="247" y="680" on="1"/>
        <pt x="308" y="702" on="0"/>
        <pt x="440" y="702" on="0"/>
        <pt x="562" y="682" on="0"/>
        <pt x="581" y="674" on="1"/>
        <pt x="587" y="637" on="0"/>
        <pt x="587" y="556" on="0"/>
        <pt x="585" y="506" on="1"/>
        <pt x="528" y="498" on="1"/>
        <pt x="506" y="614" on="0"/>
        <pt x="489" y="626" on="1"/>
        <pt x="480" y="633" on="0"/>
        <pt x="405" y="649" on="0"/>
        <pt x="368" y="649" on="1"/>
        <pt x="258" y="649" on="0"/>
        <pt x="146" y="487" on="0"/>
        <pt x="146" y="355" on="1"/>
        <pt x="146" y="199" on="0"/>
        <pt x="288" y="47" on="0"/>
        <pt x="393" y="47" on="1"/>
        <pt x="431" y="47" on="0"/>
        <pt x="498" y="65" on="0"/>
        <pt x="519" y="81" on="0"/>
        <pt x="541" y="200" on="1"/>
        <pt x="596" y="198" on="1"/>
        <pt x="596" y="122" on="0"/>
        <pt x="585" y="36" on="1"/>
        <pt x="554" y="19" on="0"/>
        <pt x="492" y="5" on="1"/>
        <pt x="431" y="-9" on="0"/>
        <pt x="368" y="-9" on="1"/>
        <pt x="357" y="-48" on="1"/>
        <pt x="373" y="-45" on="0"/>
        <pt x="392" y="-45" on="1"/>
        <pt x="424" y="-45" on="0"/>
        <pt x="469" y="-79" on="0"/>
        <pt x="469" y="-109" on="1"/>
        <pt x="469" y="-151" on="0"/>
        <pt x="376" y="-213" on="0"/>
      </contour>
    </TTGlyph>
    <TTGlyph name="Ccedilla.sc" xMin="38" yMin="-217" xMax="480" yMax="544">
      <contour>
        <pt x="38" y="268" on="1"/>
        <pt x="38" y="155" on="0"/>
        <pt x="98" y="78" on="1"/>
        <pt x="164" y="-7" on="0"/>
        <pt x="320" y="-7" on="1"/>
        <pt x="353" y="-7" on="0"/>
        <pt x="459" y="12" on="0"/>
        <pt x="478" y="22" on="1"/>
        <pt x="480" y="40" on="0"/>
        <pt x="480" y="111" on="0"/>
        <pt x="471" y="154" on="1"/>
        <pt x="417" y="157" on="1"/>
        <pt x="408" y="84" on="0"/>
        <pt x="393" y="57" on="1"/>
        <pt x="389" y="51" on="0"/>
        <pt x="348" y="40" on="0"/>
        <pt x="326" y="40" on="1"/>
        <pt x="253" y="40" on="0"/>
        <pt x="141" y="159" on="0"/>
        <pt x="141" y="375" on="0"/>
        <pt x="225" y="497" on="0"/>
        <pt x="306" y="497" on="1"/>
        <pt x="354" y="497" on="0"/>
        <pt x="382" y="473" on="1"/>
        <pt x="388" y="469" on="0"/>
        <pt x="395" y="434" on="0"/>
        <pt x="404" y="352" on="1"/>
        <pt x="464" y="359" on="1"/>
        <pt x="476" y="404" on="0"/>
        <pt x="476" y="495" on="0"/>
        <pt x="475" y="504" on="1"/>
        <pt x="395" y="544" on="0"/>
        <pt x="238" y="544" on="0"/>
        <pt x="129" y="493" on="0"/>
        <pt x="68" y="411" on="0"/>
        <pt x="38" y="321" on="0"/>
      </contour>
      <contour>
        <pt x="230" y="-89" on="1"/>
        <pt x="268" y="40" on="1"/>
        <pt x="317" y="27" on="1"/>
        <pt x="285" y="-86" on="1"/>
      </contour>
      <contour>
        <pt x="235" y="-217" on="1"/>
        <pt x="231" y="-186" on="1"/>
        <pt x="326" y="-173" on="0"/>
        <pt x="326" y="-128" on="1"/>
        <pt x="326" y="-112" on="0"/>
        <pt x="302" y="-90" on="0"/>
        <pt x="257" y="-90" on="0"/>
        <pt x="239" y="-100" on="1"/>
        <pt x="230" y="-89" on="1"/>
        <pt x="278" y="-52" on="1"/>
        <pt x="300" y="-45" on="0"/>
        <pt x="363" y="-45" on="0"/>
        <pt x="408" y="-79" on="0"/>
        <pt x="408" y="-109" on="1"/>
        <pt x="408" y="-151" on="0"/>
        <pt x="315" y="-213" on="0"/>
      </contour>
    </TTGlyph>
    <TTGlyph name="Ccircumflex" xMin="35" yMin="-9" xMax="596" yMax="914">
      <contour>
        <pt x="35" y="331" on="1"/>
        <pt x="35" y="445" on="0"/>
        <pt x="82" y="534" on="1"/>
        <pt x="137" y="639" on="0"/>
        <pt x="247" y="680" on="1"/>
        <pt x="308" y="702" on="0"/>
        <pt x="440" y="702" on="0"/>
        <pt x="562" y="682" on="0"/>
        <pt x="581" y="674" on="1"/>
        <pt x="587" y="637" on="0"/>
        <pt x="587" y="556" on="0"/>
        <pt x="585" y="506" on="1"/>
        <pt x="528" y="498" on="1"/>
        <pt x="506" y="614" on="0"/>
        <pt x="489" y="626" on="1"/>
        <pt x="480" y="633" on="0"/>
        <pt x="405" y="649" on="0"/>
        <pt x="368" y="649" on="1"/>
        <pt x="258" y="649" on="0"/>
        <pt x="146" y="487" on="0"/>
        <pt x="146" y="355" on="1"/>
        <pt x="146" y="199" on="0"/>
        <pt x="288" y="47" on="0"/>
        <pt x="393" y="47" on="1"/>
        <pt x="431" y="47" on="0"/>
        <pt x="498" y="65" on="0"/>
        <pt x="519" y="81" on="0"/>
        <pt x="541" y="200" on="1"/>
        <pt x="596" y="198" on="1"/>
        <pt x="596" y="122" on="0"/>
        <pt x="585" y="36" on="1"/>
        <pt x="554" y="19" on="0"/>
        <pt x="429" y="-9" on="0"/>
        <pt x="364" y="-9" on="1"/>
        <pt x="201" y="-9" on="0"/>
        <pt x="35" y="183" on="0"/>
      </contour>
      <contour>
        <pt x="490" y="749" on="1"/>
        <pt x="351" y="840" on="1"/>
        <pt x="212" y="749" on="1"/>
        <pt x="187" y="775" on="1"/>
        <pt x="323" y="914" on="1"/>
        <pt x="379" y="914" on="1"/>
        <pt x="515" y="775" on="1"/>
      </contour>
    </TTGlyph>
    <TTGlyph name="Ccircumflex.sc" xMin="38" yMin="-7" xMax="480" yMax="765">
      <contour>
        <pt x="38" y="268" on="1"/>
        <pt x="38" y="321" on="0"/>
        <pt x="68" y="411" on="0"/>
        <pt x="129" y="493" on="0"/>
        <pt x="238" y="544" on="0"/>
        <pt x="395" y="544" on="0"/>
        <pt x="475" y="504" on="1"/>
        <pt x="476" y="495" on="0"/>
        <pt x="476" y="404" on="0"/>
        <pt x="464" y="359" on="1"/>
        <pt x="404" y="352" on="1"/>
        <pt x="395" y="434" on="0"/>
        <pt x="388" y="469" on="0"/>
        <pt x="382" y="473" on="1"/>
        <pt x="354" y="497" on="0"/>
        <pt x="306" y="497" on="1"/>
        <pt x="225" y="497" on="0"/>
        <pt x="141" y="375" on="0"/>
        <pt x="141" y="159" on="0"/>
        <pt x="253" y="40" on="0"/>
        <pt x="326" y="40" on="1"/>
        <pt x="348" y="40" on="0"/>
        <pt x="389" y="51" on="0"/>
        <pt x="393" y="57" on="1"/>
        <pt x="408" y="84" on="0"/>
        <pt x="417" y="157" on="1"/>
        <pt x="471" y="154" on="1"/>
        <pt x="480" y="111" on="0"/>
        <pt x="480" y="40" on="0"/>
        <pt x="478" y="22" on="1"/>
        <pt x="459" y="12" on="0"/>
        <pt x="353" y="-7" on="0"/>
        <pt x="320" y="-7" on="1"/>
        <pt x="164" y="-7" on="0"/>
        <pt x="98" y="78" on="1"/>
        <pt x="38" y="155" on="0"/>
      </contour>
      <contour>
        <pt x="422" y="600" on="1"/>
        <pt x="283" y="691" on="1"/>
        <pt x="144" y="600" on="1"/>
        <pt x="119" y="626" on="1"/>
        <pt x="255" y="765" on="1"/>
        <pt x="311" y="765" on="1"/>
        <pt x="447" y="626" on="1"/>
      </contour>
    </TTGlyph>
    <TTGlyph name="D" xMin="44" yMin="0" xMax="678" yMax="693">
      <contour>
        <pt x="50" y="0" on="1"/>
        <pt x="44" y="39" on="1"/>
        <pt x="97" y="48" on="0"/>
        <pt x="120" y="70" on="0"/>
        <pt x="120" y="101" on="1"/>
        <pt x="120" y="592" on="1"/>
        <pt x="120" y="623" on="0"/>
        <pt x="97" y="645" on="0"/>
        <pt x="44" y="654" on="1"/>
        <pt x="50" y="693" on="1"/>
        <pt x="363" y="693" on="1"/>
        <pt x="449" y="693" on="0"/>
        <pt x="575" y="638" on="0"/>
        <pt x="610" y="590" on="1"/>
        <pt x="678" y="498" on="0"/>
        <pt x="678" y="368" on="1"/>
        <pt x="678" y="225" on="0"/>
        <pt x="602" y="119" on="1"/>
        <pt x="564" y="65" on="0"/>
        <pt x="429" y="0" on="0"/>
        <pt x="341" y="0" on="1"/>
      </contour>
      <contour>
        <pt x="217" y="93" on="1"/>
        <pt x="217" y="71" on="0"/>
        <pt x="238" y="67" on="1"/>
        <pt x="308" y="53" on="0"/>
        <pt x="344" y="53" on="1"/>
        <pt x="455" y="53" on="0"/>
        <pt x="567" y="211" on="0"/>
        <pt x="567" y="343" on="1"/>
        <pt x="567" y="426" on="0"/>
        <pt x="524" y="548" on="0"/>
        <pt x="488" y="580" on="1"/>
        <pt x="420" y="640" on="0"/>
        <pt x="340" y="640" on="1"/>
        <pt x="217" y="640" on="1"/>
      </contour>
    </TTGlyph>
    <TTGlyph name="D.sc" xMin="48" yMin="0" xMax="559" yMax="537">
      <contour>
        <pt x="53" y="0" on="1"/>
        <pt x="48" y="36" on="1"/>
        <pt x="89" y="43" on="0"/>
        <pt x="107" y="60" on="0"/>
        <pt x="107" y="84" on="1"/>
        <pt x="107" y="453" on="1"/>
        <pt x="107" y="477" on="0"/>
        <pt x="89" y="494" on="0"/>
        <pt x="48" y="501" on="1"/>
        <pt x="53" y="537" on="1"/>
        <pt x="306" y="537" on="1"/>
        <pt x="375" y="537" on="0"/>
        <pt x="477" y="494" on="0"/>
        <pt x="505" y="457" on="1"/>
        <pt x="559" y="386" on="0"/>
        <pt x="559" y="285" on="1"/>
        <pt x="559" y="197" on="0"/>
        <pt x="520" y="126" on="1"/>
        <pt x="478" y="48" on="0"/>
        <pt x="392" y="17" on="1"/>
        <pt x="345" y="0" on="0"/>
        <pt x="288" y="0" on="1"/>
      </contour>
      <contour>
        <pt x="200" y="78" on="1"/>
        <pt x="200" y="61" on="0"/>
        <pt x="217" y="57" on="1"/>
        <pt x="260" y="47" on="0"/>
        <pt x="291" y="47" on="1"/>
        <pt x="373" y="47" on="0"/>
        <pt x="457" y="166" on="0"/>
        <pt x="457" y="266" on="1"/>
        <pt x="457" y="328" on="0"/>
        <pt x="425" y="420" on="0"/>
        <pt x="398" y="444" on="1"/>
        <pt x="348" y="490" on="0"/>
        <pt x="288" y="490" on="1"/>
        <pt x="200" y="490" on="1"/>
      </contour>
    </TTGlyph>
    <TTGlyph name="Dcaron" xMin="44" yMin="0" xMax="678" yMax="917">
      <contour>
        <pt x="50" y="0" on="1"/>
        <pt x="44" y="39" on="1"/>
        <pt x="97" y="48" on="0"/>
        <pt x="120" y="70" on="0"/>
        <pt x="120" y="101" on="1"/>
        <pt x="120" y="592" on="1"/>
        <pt x="120" y="623" on="0"/>
        <pt x="97" y="645" on="0"/>
        <pt x="44" y="654" on="1"/>
        <pt x="50" y="693" on="1"/>
        <pt x="363" y="693" on="1"/>
        <pt x="449" y="693" on="0"/>
        <pt x="575" y="638" on="0"/>
        <pt x="610" y="590" on="1"/>
        <pt x="678" y="498" on="0"/>
        <pt x="678" y="368" on="1"/>
        <pt x="678" y="225" on="0"/>
        <pt x="602" y="119" on="1"/>
        <pt x="564" y="65" on="0"/>
        <pt x="429" y="0" on="0"/>
        <pt x="341" y="0" on="1"/>
      </contour>
      <contour>
        <pt x="217" y="93" on="1"/>
        <pt x="217" y="71" on="0"/>
        <pt x="238" y="67" on="1"/>
        <pt x="308" y="53" on="0"/>
        <pt x="344" y="53" on="1"/>
        <pt x="455" y="53" on="0"/>
        <pt x="567" y="211" on="0"/>
        <pt x="567" y="343" on="1"/>
        <pt x="567" y="426" on="0"/>
        <pt x="524" y="548" on="0"/>
        <pt x="488" y="580" on="1"/>
        <pt x="420" y="640" on="0"/>
        <pt x="340" y="640" on="1"/>
        <pt x="217" y="640" on="1"/>
      </contour>
      <contour>
        <pt x="172" y="917" on="1"/>
        <pt x="311" y="826" on="1"/>
        <pt x="450" y="917" on="1"/>
        <pt x="475" y="891" on="1"/>
        <pt x="339" y="752" on="1"/>
        <pt x="283" y="752" on="1"/>
        <pt x="147" y="891" on="1"/>
      </contour>
    </TTGlyph>
    <TTGlyph name="Dcaron.sc" xMin="48" yMin="0" xMax="559" yMax="768">
      <contour>
        <pt x="53" y="0" on="1"/>
        <pt x="48" y="36" on="1"/>
        <pt x="89" y="43" on="0"/>
        <pt x="107" y="60" on="0"/>
        <pt x="107" y="84" on="1"/>
        <pt x="107" y="453" on="1"/>
        <pt x="107" y="477" on="0"/>
        <pt x="89" y="494" on="0"/>
        <pt x="48" y="501" on="1"/>
        <pt x="53" y="537" on="1"/>
        <pt x="306" y="537" on="1"/>
        <pt x="375" y="537" on="0"/>
        <pt x="477" y="494" on="0"/>
        <pt x="505" y="457" on="1"/>
        <pt x="559" y="386" on="0"/>
        <pt x="559" y="285" on="1"/>
        <pt x="559" y="197" on="0"/>
        <pt x="520" y="126" on="1"/>
        <pt x="478" y="48" on="0"/>
        <pt x="392" y="17" on="1"/>
        <pt x="345" y="0" on="0"/>
        <pt x="288" y="0" on="1"/>
      </contour>
      <contour>
        <pt x="200" y="78" on="1"/>
        <pt x="200" y="61" on="0"/>
        <pt x="217" y="57" on="1"/>
        <pt x="260" y="47" on="0"/>
        <pt x="291" y="47" on="1"/>
        <pt x="373" y="47" on="0"/>
        <pt x="457" y="166" on="0"/>
        <pt x="457" y="266" on="1"/>
        <pt x="457" y="328" on="0"/>
        <pt x="425" y="420" on="0"/>
        <pt x="398" y="444" on="1"/>
        <pt x="348" y="490" on="0"/>
        <pt x="288" y="490" on="1"/>
        <pt x="200" y="490" on="1"/>
      </contour>
      <contour>
        <pt x="119" y="768" on="1"/>
        <pt x="258" y="677" on="1"/>
        <pt x="397" y="768" on="1"/>
        <pt x="422" y="742" on="1"/>
        <pt x="286" y="603" on="1"/>
        <pt x="230" y="603" on="1"/>
        <pt x="94" y="742" on="1"/>
      </contour>
    </TTGlyph>
    <TTGlyph name="Dcroat" xMin="27" yMin="0" xMax="678" yMax="693">
      <contour>
        <pt x="27" y="338" on="1"/>
        <pt x="27" y="398" on="1"/>
        <pt x="120" y="398" on="1"/>
        <pt x="120" y="592" on="1"/>
        <pt x="120" y="623" on="0"/>
        <pt x="97" y="645" on="0"/>
        <pt x="44" y="654" on="1"/>
        <pt x="50" y="693" on="1"/>
        <pt x="363" y="693" on="1"/>
        <pt x="449" y="693" on="0"/>
        <pt x="575" y="638" on="0"/>
        <pt x="610" y="590" on="1"/>
        <pt x="678" y="498" on="0"/>
        <pt x="678" y="368" on="1"/>
        <pt x="678" y="225" on="0"/>
        <pt x="602" y="119" on="1"/>
        <pt x="564" y="65" on="0"/>
        <pt x="429" y="0" on="0"/>
        <pt x="341" y="0" on="1"/>
        <pt x="50" y="0" on="1"/>
        <pt x="44" y="39" on="1"/>
        <pt x="97" y="48" on="0"/>
        <pt x="120" y="70" on="0"/>
        <pt x="120" y="101" on="1"/>
        <pt x="120" y="338" on="1"/>
      </contour>
      <contour>
        <pt x="238" y="67" on="1"/>
        <pt x="308" y="53" on="0"/>
        <pt x="344" y="53" on="1"/>
        <pt x="455" y="53" on="0"/>
        <pt x="567" y="211" on="0"/>
        <pt x="567" y="343" on="1"/>
        <pt x="567" y="426" on="0"/>
        <pt x="524" y="548" on="0"/>
        <pt x="488" y="580" on="1"/>
        <pt x="420" y="640" on="0"/>
        <pt x="340" y="640" on="1"/>
        <pt x="217" y="640" on="1"/>
        <pt x="217" y="398" on="1"/>
        <pt x="384" y="398" on="1"/>
        <pt x="384" y="338" on="1"/>
        <pt x="217" y="338" on="1"/>
        <pt x="217" y="93" on="1"/>
        <pt x="217" y="71" on="0"/>
      </contour>
    </TTGlyph>
    <TTGlyph name="Delta" xMin="47" yMin="0" xMax="591" yMax="702">
      <contour>
        <pt x="287" y="702" on="1"/>
        <pt x="356" y="702" on="1"/>
        <pt x="591" y="42" on="1"/>
        <pt x="591" y="0" on="1"/>
        <pt x="47" y="0" on="1"/>
        <pt x="47" y="40" on="1"/>
      </contour>
      <contour>
        <pt x="298" y="587" on="1"/>
        <pt x="114" y="53" on="1"/>
        <pt x="476" y="53" on="1"/>
        <pt x="311" y="558" on="1"/>
        <pt x="305" y="576" on="0"/>
        <pt x="305" y="587" on="1"/>
      </contour>
    </TTGlyph>
    <TTGlyph name="E" xMin="44" yMin="0" xMax="548" yMax="693">
      <contour>
        <pt x="50" y="0" on="1"/>
        <pt x="44" y="39" on="1"/>
        <pt x="97" y="48" on="0"/>
        <pt x="120" y="70" on="0"/>
        <pt x="120" y="101" on="1"/>
        <pt x="120" y="592" on="1"/>
        <pt x="120" y="623" on="0"/>
        <pt x="97" y="645" on="0"/>
        <pt x="44" y="654" on="1"/>
        <pt x="50" y="693" on="1"/>
        <pt x="516" y="693" on="1"/>
        <pt x="522" y="656" on="0"/>
        <pt x="522" y="583" on="0"/>
        <pt x="520" y="537" on="1"/>
        <pt x="463" y="530" on="1"/>
        <pt x="449" y="599" on="0"/>
        <pt x="437" y="634" on="0"/>
        <pt x="429" y="635" on="1"/>
        <pt x="405" y="638" on="0"/>
        <pt x="368" y="639" on="1"/>
        <pt x="217" y="642" on="1"/>
        <pt x="217" y="373" on="1"/>
        <pt x="367" y="373" on="1"/>
        <pt x="380" y="373" on="0"/>
        <pt x="399" y="444" on="1"/>
        <pt x="430" y="441" on="1"/>
        <pt x="430" y="368" on="0"/>
        <pt x="435" y="310" on="0"/>
        <pt x="436" y="298" on="0"/>
        <pt x="443" y="252" on="0"/>
        <pt x="444" y="243" on="1"/>
        <pt x="408" y="237" on="1"/>
        <pt x="392" y="294" on="0"/>
        <pt x="381" y="320" on="0"/>
        <pt x="374" y="320" on="1"/>
        <pt x="217" y="320" on="1"/>
        <pt x="217" y="51" on="1"/>
        <pt x="306" y="52" on="1"/>
        <pt x="419" y="52" on="0"/>
        <pt x="444" y="64" on="1"/>
        <pt x="447" y="66" on="0"/>
        <pt x="448" y="66" on="1"/>
        <pt x="465" y="71" on="0"/>
        <pt x="492" y="184" on="1"/>
        <pt x="547" y="179" on="1"/>
        <pt x="548" y="162" on="0"/>
        <pt x="548" y="75" on="0"/>
        <pt x="537" y="0" on="1"/>
      </contour>
    </TTGlyph>
    <TTGlyph name="E.sc" xMin="48" yMin="0" xMax="448" yMax="537">
      <contour>
        <pt x="53" y="0" on="1"/>
        <pt x="48" y="36" on="1"/>
        <pt x="89" y="43" on="0"/>
        <pt x="107" y="60" on="0"/>
        <pt x="107" y="84" on="1"/>
        <pt x="107" y="453" on="1"/>
        <pt x="107" y="477" on="0"/>
        <pt x="89" y="494" on="0"/>
        <pt x="48" y="501" on="1"/>
        <pt x="53" y="537" on="1"/>
        <pt x="412" y="537" on="1"/>
        <pt x="417" y="505" on="0"/>
        <pt x="417" y="445" on="0"/>
        <pt x="415" y="411" on="1"/>
        <pt x="365" y="405" on="1"/>
        <pt x="354" y="459" on="0"/>
        <pt x="345" y="486" on="0"/>
        <pt x="339" y="487" on="1"/>
        <pt x="308" y="489" on="0"/>
        <pt x="291" y="490" on="1"/>
        <pt x="200" y="492" on="1"/>
        <pt x="200" y="292" on="1"/>
        <pt x="293" y="292" on="1"/>
        <pt x="303" y="292" on="0"/>
        <pt x="318" y="347" on="1"/>
        <pt x="348" y="345" on="1"/>
        <pt x="348" y="266" on="0"/>
        <pt x="359" y="186" on="1"/>
        <pt x="325" y="181" on="1"/>
        <pt x="313" y="223" on="0"/>
        <pt x="304" y="245" on="0"/>
        <pt x="299" y="245" on="1"/>
        <pt x="200" y="245" on="1"/>
        <pt x="200" y="45" on="1"/>
        <pt x="259" y="46" on="1"/>
        <pt x="339" y="47" on="0"/>
        <pt x="365" y="51" on="1"/>
        <pt x="379" y="57" on="0"/>
        <pt x="404" y="147" on="1"/>
        <pt x="447" y="142" on="1"/>
        <pt x="448" y="130" on="0"/>
        <pt x="448" y="35" on="0"/>
        <pt x="435" y="0" on="1"/>
      </contour>
    </TTGlyph>
    <TTGlyph name="Eacute" xMin="44" yMin="0" xMax="548" yMax="914">
      <contour>
        <pt x="50" y="0" on="1"/>
        <pt x="44" y="39" on="1"/>
        <pt x="97" y="48" on="0"/>
        <pt x="120" y="70" on="0"/>
        <pt x="120" y="101" on="1"/>
        <pt x="120" y="592" on="1"/>
        <pt x="120" y="623" on="0"/>
        <pt x="97" y="645" on="0"/>
        <pt x="44" y="654" on="1"/>
        <pt x="50" y="693" on="1"/>
        <pt x="516" y="693" on="1"/>
        <pt x="522" y="656" on="0"/>
        <pt x="522" y="583" on="0"/>
        <pt x="520" y="537" on="1"/>
        <pt x="463" y="530" on="1"/>
        <pt x="449" y="599" on="0"/>
        <pt x="437" y="634" on="0"/>
        <pt x="429" y="635" on="1"/>
        <pt x="405" y="638" on="0"/>
        <pt x="368" y="639" on="1"/>
        <pt x="217" y="642" on="1"/>
        <pt x="217" y="373" on="1"/>
        <pt x="367" y="373" on="1"/>
        <pt x="380" y="373" on="0"/>
        <pt x="399" y="444" on="1"/>
        <pt x="430" y="441" on="1"/>
        <pt x="430" y="368" on="0"/>
        <pt x="435" y="310" on="0"/>
        <pt x="436" y="298" on="0"/>
        <pt x="443" y="252" on="0"/>
        <pt x="444" y="243" on="1"/>
        <pt x="408" y="237" on="1"/>
        <pt x="392" y="294" on="0"/>
        <pt x="381" y="320" on="0"/>
        <pt x="374" y="320" on="1"/>
        <pt x="217" y="320" on="1"/>
        <pt x="217" y="51" on="1"/>
        <pt x="306" y="52" on="1"/>
        <pt x="419" y="52" on="0"/>
        <pt x="444" y="64" on="1"/>
        <pt x="447" y="66" on="0"/>
        <pt x="448" y="66" on="1"/>
        <pt x="465" y="71" on="0"/>
        <pt x="492" y="184" on="1"/>
        <pt x="547" y="179" on="1"/>
        <pt x="548" y="162" on="0"/>
        <pt x="548" y="75" on="0"/>
        <pt x="537" y="0" on="1"/>
      </contour>
      <contour>
        <pt x="438" y="863" on="1"/>
        <pt x="430" y="842" on="1"/>
        <pt x="229" y="749" on="1"/>
        <pt x="204" y="785" on="1"/>
        <pt x="378" y="914" on="1"/>
      </contour>
    </TTGlyph>
    <TTGlyph name="Eacute.sc" xMin="48" yMin="0" xMax="448" yMax="765">
      <contour>
        <pt x="53" y="0" on="1"/>
        <pt x="48" y="36" on="1"/>
        <pt x="89" y="43" on="0"/>
        <pt x="107" y="60" on="0"/>
        <pt x="107" y="84" on="1"/>
        <pt x="107" y="453" on="1"/>
        <pt x="107" y="477" on="0"/>
        <pt x="89" y="494" on="0"/>
        <pt x="48" y="501" on="1"/>
        <pt x="53" y="537" on="1"/>
        <pt x="412" y="537" on="1"/>
        <pt x="417" y="505" on="0"/>
        <pt x="417" y="445" on="0"/>
        <pt x="415" y="411" on="1"/>
        <pt x="365" y="405" on="1"/>
        <pt x="354" y="459" on="0"/>
        <pt x="345" y="486" on="0"/>
        <pt x="339" y="487" on="1"/>
        <pt x="308" y="489" on="0"/>
        <pt x="291" y="490" on="1"/>
        <pt x="200" y="492" on="1"/>
        <pt x="200" y="292" on="1"/>
        <pt x="293" y="292" on="1"/>
        <pt x="303" y="292" on="0"/>
        <pt x="318" y="347" on="1"/>
        <pt x="348" y="345" on="1"/>
        <pt x="348" y="266" on="0"/>
        <pt x="359" y="186" on="1"/>
        <pt x="325" y="181" on="1"/>
        <pt x="313" y="223" on="0"/>
        <pt x="304" y="245" on="0"/>
        <pt x="299" y="245" on="1"/>
        <pt x="200" y="245" on="1"/>
        <pt x="200" y="45" on="1"/>
        <pt x="259" y="46" on="1"/>
        <pt x="339" y="47" on="0"/>
        <pt x="365" y="51" on="1"/>
        <pt x="379" y="57" on="0"/>
        <pt x="404" y="147" on="1"/>
        <pt x="447" y="142" on="1"/>
        <pt x="448" y="130" on="0"/>
        <pt x="448" y="35" on="0"/>
        <pt x="435" y="0" on="1"/>
      </contour>
      <contour>
        <pt x="385" y="714" on="1"/>
        <pt x="377" y="693" on="1"/>
        <pt x="176" y="600" on="1"/>
        <pt x="151" y="636" on="1"/>
        <pt x="325" y="765" on="1"/>
      </contour>
    </TTGlyph>
    <TTGlyph name="Ebreve" xMin="44" yMin="0" xMax="548" yMax="900">
      <contour>
        <pt x="50" y="0" on="1"/>
        <pt x="44" y="39" on="1"/>
        <pt x="97" y="48" on="0"/>
        <pt x="120" y="70" on="0"/>
        <pt x="120" y="101" on="1"/>
        <pt x="120" y="592" on="1"/>
        <pt x="120" y="623" on="0"/>
        <pt x="97" y="645" on="0"/>
        <pt x="44" y="654" on="1"/>
        <pt x="50" y="693" on="1"/>
        <pt x="516" y="693" on="1"/>
        <pt x="522" y="656" on="0"/>
        <pt x="522" y="583" on="0"/>
        <pt x="520" y="537" on="1"/>
        <pt x="463" y="530" on="1"/>
        <pt x="449" y="599" on="0"/>
        <pt x="437" y="634" on="0"/>
        <pt x="429" y="635" on="1"/>
        <pt x="405" y="638" on="0"/>
        <pt x="368" y="639" on="1"/>
        <pt x="217" y="642" on="1"/>
        <pt x="217" y="373" on="1"/>
        <pt x="367" y="373" on="1"/>
        <pt x="380" y="373" on="0"/>
        <pt x="399" y="444" on="1"/>
        <pt x="430" y="441" on="1"/>
        <pt x="430" y="368" on="0"/>
        <pt x="435" y="310" on="0"/>
        <pt x="436" y="298" on="0"/>
        <pt x="443" y="252" on="0"/>
        <pt x="444" y="243" on="1"/>
        <pt x="408" y="237" on="1"/>
        <pt x="392" y="294" on="0"/>
        <pt x="381" y="320" on="0"/>
        <pt x="374" y="320" on="1"/>
        <pt x="217" y="320" on="1"/>
        <pt x="217" y="51" on="1"/>
        <pt x="306" y="52" on="1"/>
        <pt x="419" y="52" on="0"/>
        <pt x="444" y="64" on="1"/>
        <pt x="447" y="66" on="0"/>
        <pt x="448" y="66" on="1"/>
        <pt x="465" y="71" on="0"/>
        <pt x="492" y="184" on="1"/>
        <pt x="547" y="179" on="1"/>
        <pt x="548" y="162" on="0"/>
        <pt x="548" y="75" on="0"/>
        <pt x="537" y="0" on="1"/>
      </contour>
      <contour>
        <pt x="413" y="900" on="1"/>
        <pt x="450" y="900" on="1"/>
        <pt x="446" y="838" on="0"/>
        <pt x="372" y="760" on="0"/>
        <pt x="230" y="760" on="0"/>
        <pt x="156" y="838" on="0"/>
        <pt x="152" y="900" on="1"/>
        <pt x="189" y="900" on="1"/>
        <pt x="206" y="828" on="0"/>
        <pt x="396" y="828" on="0"/>
      </contour>
    </TTGlyph>
    <TTGlyph name="Ebreve.sc" xMin="48" yMin="0" xMax="448" yMax="751">
      <contour>
        <pt x="53" y="0" on="1"/>
        <pt x="48" y="36" on="1"/>
        <pt x="89" y="43" on="0"/>
        <pt x="107" y="60" on="0"/>
        <pt x="107" y="84" on="1"/>
        <pt x="107" y="453" on="1"/>
        <pt x="107" y="477" on="0"/>
        <pt x="89" y="494" on="0"/>
        <pt x="48" y="501" on="1"/>
        <pt x="53" y="537" on="1"/>
        <pt x="412" y="537" on="1"/>
        <pt x="417" y="505" on="0"/>
        <pt x="417" y="445" on="0"/>
        <pt x="415" y="411" on="1"/>
        <pt x="365" y="405" on="1"/>
        <pt x="354" y="459" on="0"/>
        <pt x="345" y="486" on="0"/>
        <pt x="339" y="487" on="1"/>
        <pt x="308" y="489" on="0"/>
        <pt x="291" y="490" on="1"/>
        <pt x="200" y="492" on="1"/>
        <pt x="200" y="292" on="1"/>
        <pt x="293" y="292" on="1"/>
        <pt x="303" y="292" on="0"/>
        <pt x="318" y="347" on="1"/>
        <pt x="348" y="345" on="1"/>
        <pt x="348" y="266" on="0"/>
        <pt x="359" y="186" on="1"/>
        <pt x="325" y="181" on="1"/>
        <pt x="313" y="223" on="0"/>
        <pt x="304" y="245" on="0"/>
        <pt x="299" y="245" on="1"/>
        <pt x="200" y="245" on="1"/>
        <pt x="200" y="45" on="1"/>
        <pt x="259" y="46" on="1"/>
        <pt x="339" y="47" on="0"/>
        <pt x="365" y="51" on="1"/>
        <pt x="379" y="57" on="0"/>
        <pt x="404" y="147" on="1"/>
        <pt x="447" y="142" on="1"/>
        <pt x="448" y="130" on="0"/>
        <pt x="448" y="35" on="0"/>
        <pt x="435" y="0" on="1"/>
      </contour>
      <contour>
        <pt x="351" y="751" on="1"/>
        <pt x="388" y="751" on="1"/>
        <pt x="384" y="689" on="0"/>
        <pt x="310" y="611" on="0"/>
        <pt x="168" y="611" on="0"/>
        <pt x="94" y="689" on="0"/>
        <pt x="90" y="751" on="1"/>
        <pt x="127" y="751" on="1"/>
        <pt x="144" y="679" on="0"/>
        <pt x="334" y="679" on="0"/>
      </contour>
    </TTGlyph>
    <TTGlyph name="Ecaron" xMin="44" yMin="0" xMax="548" yMax="917">
      <contour>
        <pt x="50" y="0" on="1"/>
        <pt x="44" y="39" on="1"/>
        <pt x="97" y="48" on="0"/>
        <pt x="120" y="70" on="0"/>
        <pt x="120" y="101" on="1"/>
        <pt x="120" y="592" on="1"/>
        <pt x="120" y="623" on="0"/>
        <pt x="97" y="645" on="0"/>
        <pt x="44" y="654" on="1"/>
        <pt x="50" y="693" on="1"/>
        <pt x="516" y="693" on="1"/>
        <pt x="522" y="656" on="0"/>
        <pt x="522" y="583" on="0"/>
        <pt x="520" y="537" on="1"/>
        <pt x="463" y="530" on="1"/>
        <pt x="449" y="599" on="0"/>
        <pt x="437" y="634" on="0"/>
        <pt x="429" y="635" on="1"/>
        <pt x="405" y="638" on="0"/>
        <pt x="368" y="639" on="1"/>
        <pt x="217" y="642" on="1"/>
        <pt x="217" y="373" on="1"/>
        <pt x="367" y="373" on="1"/>
        <pt x="380" y="373" on="0"/>
        <pt x="399" y="444" on="1"/>
        <pt x="430" y="441" on="1"/>
        <pt x="430" y="368" on="0"/>
        <pt x="435" y="310" on="0"/>
        <pt x="436" y="298" on="0"/>
        <pt x="443" y="252" on="0"/>
        <pt x="444" y="243" on="1"/>
        <pt x="408" y="237" on="1"/>
        <pt x="392" y="294" on="0"/>
        <pt x="381" y="320" on="0"/>
        <pt x="374" y="320" on="1"/>
        <pt x="217" y="320" on="1"/>
        <pt x="217" y="51" on="1"/>
        <pt x="306" y="52" on="1"/>
        <pt x="419" y="52" on="0"/>
        <pt x="444" y="64" on="1"/>
        <pt x="447" y="66" on="0"/>
        <pt x="448" y="66" on="1"/>
        <pt x="465" y="71" on="0"/>
        <pt x="492" y="184" on="1"/>
        <pt x="547" y="179" on="1"/>
        <pt x="548" y="162" on="0"/>
        <pt x="548" y="75" on="0"/>
        <pt x="537" y="0" on="1"/>
      </contour>
      <contour>
        <pt x="150" y="917" on="1"/>
        <pt x="289" y="826" on="1"/>
        <pt x="428" y="917" on="1"/>
        <pt x="453" y="891" on="1"/>
        <pt x="317" y="752" on="1"/>
        <pt x="261" y="752" on="1"/>
        <pt x="125" y="891" on="1"/>
      </contour>
    </TTGlyph>
    <TTGlyph name="Ecaron.sc" xMin="48" yMin="0" xMax="448" yMax="768">
      <contour>
        <pt x="53" y="0" on="1"/>
        <pt x="48" y="36" on="1"/>
        <pt x="89" y="43" on="0"/>
        <pt x="107" y="60" on="0"/>
        <pt x="107" y="84" on="1"/>
        <pt x="107" y="453" on="1"/>
        <pt x="107" y="477" on="0"/>
        <pt x="89" y="494" on="0"/>
        <pt x="48" y="501" on="1"/>
        <pt x="53" y="537" on="1"/>
        <pt x="412" y="537" on="1"/>
        <pt x="417" y="505" on="0"/>
        <pt x="417" y="445" on="0"/>
        <pt x="415" y="411" on="1"/>
        <pt x="365" y="405" on="1"/>
        <pt x="354" y="459" on="0"/>
        <pt x="345" y="486" on="0"/>
        <pt x="339" y="487" on="1"/>
        <pt x="308" y="489" on="0"/>
        <pt x="291" y="490" on="1"/>
        <pt x="200" y="492" on="1"/>
        <pt x="200" y="292" on="1"/>
        <pt x="293" y="292" on="1"/>
        <pt x="303" y="292" on="0"/>
        <pt x="318" y="347" on="1"/>
        <pt x="348" y="345" on="1"/>
        <pt x="348" y="266" on="0"/>
        <pt x="359" y="186" on="1"/>
        <pt x="325" y="181" on="1"/>
        <pt x="313" y="223" on="0"/>
        <pt x="304" y="245" on="0"/>
        <pt x="299" y="245" on="1"/>
        <pt x="200" y="245" on="1"/>
        <pt x="200" y="45" on="1"/>
        <pt x="259" y="46" on="1"/>
        <pt x="339" y="47" on="0"/>
        <pt x="365" y="51" on="1"/>
        <pt x="379" y="57" on="0"/>
        <pt x="404" y="147" on="1"/>
        <pt x="447" y="142" on="1"/>
        <pt x="448" y="130" on="0"/>
        <pt x="448" y="35" on="0"/>
        <pt x="435" y="0" on="1"/>
      </contour>
      <contour>
        <pt x="110" y="768" on="1"/>
        <pt x="249" y="677" on="1"/>
        <pt x="388" y="768" on="1"/>
        <pt x="413" y="742" on="1"/>
        <pt x="277" y="603" on="1"/>
        <pt x="221" y="603" on="1"/>
        <pt x="85" y="742" on="1"/>
      </contour>
    </TTGlyph>
    <TTGlyph name="Ecircumflex" xMin="44" yMin="0" xMax="548" yMax="914">
      <contour>
        <pt x="50" y="0" on="1"/>
        <pt x="44" y="39" on="1"/>
        <pt x="97" y="48" on="0"/>
        <pt x="120" y="70" on="0"/>
        <pt x="120" y="101" on="1"/>
        <pt x="120" y="592" on="1"/>
        <pt x="120" y="623" on="0"/>
        <pt x="97" y="645" on="0"/>
        <pt x="44" y="654" on="1"/>
        <pt x="50" y="693" on="1"/>
        <pt x="516" y="693" on="1"/>
        <pt x="522" y="656" on="0"/>
        <pt x="522" y="583" on="0"/>
        <pt x="520" y="537" on="1"/>
        <pt x="463" y="530" on="1"/>
        <pt x="449" y="599" on="0"/>
        <pt x="437" y="634" on="0"/>
        <pt x="429" y="635" on="1"/>
        <pt x="405" y="638" on="0"/>
        <pt x="368" y="639" on="1"/>
        <pt x="217" y="642" on="1"/>
        <pt x="217" y="373" on="1"/>
        <pt x="367" y="373" on="1"/>
        <pt x="380" y="373" on="0"/>
        <pt x="399" y="444" on="1"/>
        <pt x="430" y="441" on="1"/>
        <pt x="430" y="368" on="0"/>
        <pt x="435" y="310" on="0"/>
        <pt x="436" y="298" on="0"/>
        <pt x="443" y="252" on="0"/>
        <pt x="444" y="243" on="1"/>
        <pt x="408" y="237" on="1"/>
        <pt x="392" y="294" on="0"/>
        <pt x="381" y="320" on="0"/>
        <pt x="374" y="320" on="1"/>
        <pt x="217" y="320" on="1"/>
        <pt x="217" y="51" on="1"/>
        <pt x="306" y="52" on="1"/>
        <pt x="419" y="52" on="0"/>
        <pt x="444" y="64" on="1"/>
        <pt x="447" y="66" on="0"/>
        <pt x="448" y="66" on="1"/>
        <pt x="465" y="71" on="0"/>
        <pt x="492" y="184" on="1"/>
        <pt x="547" y="179" on="1"/>
        <pt x="548" y="162" on="0"/>
        <pt x="548" y="75" on="0"/>
        <pt x="537" y="0" on="1"/>
      </contour>
      <contour>
        <pt x="430" y="749" on="1"/>
        <pt x="291" y="840" on="1"/>
        <pt x="152" y="749" on="1"/>
        <pt x="127" y="775" on="1"/>
        <pt x="263" y="914" on="1"/>
        <pt x="319" y="914" on="1"/>
        <pt x="455" y="775" on="1"/>
      </contour>
    </TTGlyph>
    <TTGlyph name="Ecircumflex.sc" xMin="48" yMin="0" xMax="448" yMax="765">
      <contour>
        <pt x="53" y="0" on="1"/>
        <pt x="48" y="36" on="1"/>
        <pt x="89" y="43" on="0"/>
        <pt x="107" y="60" on="0"/>
        <pt x="107" y="84" on="1"/>
        <pt x="107" y="453" on="1"/>
        <pt x="107" y="477" on="0"/>
        <pt x="89" y="494" on="0"/>
        <pt x="48" y="501" on="1"/>
        <pt x="53" y="537" on="1"/>
        <pt x="412" y="537" on="1"/>
        <pt x="417" y="505" on="0"/>
        <pt x="417" y="445" on="0"/>
        <pt x="415" y="411" on="1"/>
        <pt x="365" y="405" on="1"/>
        <pt x="354" y="459" on="0"/>
        <pt x="345" y="486" on="0"/>
        <pt x="339" y="487" on="1"/>
        <pt x="308" y="489" on="0"/>
        <pt x="291" y="490" on="1"/>
        <pt x="200" y="492" on="1"/>
        <pt x="200" y="292" on="1"/>
        <pt x="293" y="292" on="1"/>
        <pt x="303" y="292" on="0"/>
        <pt x="318" y="347" on="1"/>
        <pt x="348" y="345" on="1"/>
        <pt x="348" y="266" on="0"/>
        <pt x="359" y="186" on="1"/>
        <pt x="325" y="181" on="1"/>
        <pt x="313" y="223" on="0"/>
        <pt x="304" y="245" on="0"/>
        <pt x="299" y="245" on="1"/>
        <pt x="200" y="245" on="1"/>
        <pt x="200" y="45" on="1"/>
        <pt x="259" y="46" on="1"/>
        <pt x="339" y="47" on="0"/>
        <pt x="365" y="51" on="1"/>
        <pt x="379" y="57" on="0"/>
        <pt x="404" y="147" on="1"/>
        <pt x="447" y="142" on="1"/>
        <pt x="448" y="130" on="0"/>
        <pt x="448" y="35" on="0"/>
        <pt x="435" y="0" on="1"/>
      </contour>
      <contour>
        <pt x="379" y="600" on="1"/>
        <pt x="240" y="691" on="1"/>
        <pt x="101" y="600" on="1"/>
        <pt x="76" y="626" on="1"/>
        <pt x="212" y="765" on="1"/>
        <pt x="268" y="765" on="1"/>
        <pt x="404" y="626" on="1"/>
      </contour>
    </TTGlyph>
    <TTGlyph name="Edieresis" xMin="44" yMin="0" xMax="548" yMax="885">
      <contour>
        <pt x="50" y="0" on="1"/>
        <pt x="44" y="39" on="1"/>
        <pt x="97" y="48" on="0"/>
        <pt x="120" y="70" on="0"/>
        <pt x="120" y="101" on="1"/>
        <pt x="120" y="592" on="1"/>
        <pt x="120" y="623" on="0"/>
        <pt x="97" y="645" on="0"/>
        <pt x="44" y="654" on="1"/>
        <pt x="50" y="693" on="1"/>
        <pt x="516" y="693" on="1"/>
        <pt x="522" y="656" on="0"/>
        <pt x="522" y="583" on="0"/>
        <pt x="520" y="537" on="1"/>
        <pt x="463" y="530" on="1"/>
        <pt x="449" y="599" on="0"/>
        <pt x="437" y="634" on="0"/>
        <pt x="429" y="635" on="1"/>
        <pt x="405" y="638" on="0"/>
        <pt x="368" y="639" on="1"/>
        <pt x="217" y="642" on="1"/>
        <pt x="217" y="373" on="1"/>
        <pt x="367" y="373" on="1"/>
        <pt x="380" y="373" on="0"/>
        <pt x="399" y="444" on="1"/>
        <pt x="430" y="441" on="1"/>
        <pt x="430" y="368" on="0"/>
        <pt x="435" y="310" on="0"/>
        <pt x="436" y="298" on="0"/>
        <pt x="443" y="252" on="0"/>
        <pt x="444" y="243" on="1"/>
        <pt x="408" y="237" on="1"/>
        <pt x="392" y="294" on="0"/>
        <pt x="381" y="320" on="0"/>
        <pt x="374" y="320" on="1"/>
        <pt x="217" y="320" on="1"/>
        <pt x="217" y="51" on="1"/>
        <pt x="306" y="52" on="1"/>
        <pt x="419" y="52" on="0"/>
        <pt x="444" y="64" on="1"/>
        <pt x="447" y="66" on="0"/>
        <pt x="448" y="66" on="1"/>
        <pt x="465" y="71" on="0"/>
        <pt x="492" y="184" on="1"/>
        <pt x="547" y="179" on="1"/>
        <pt x="548" y="162" on="0"/>
        <pt x="548" y="75" on="0"/>
        <pt x="537" y="0" on="1"/>
      </contour>
      <contour>
        <pt x="388" y="775" on="1"/>
        <pt x="336" y="775" on="0"/>
        <pt x="336" y="831" on="1"/>
        <pt x="336" y="853" on="0"/>
        <pt x="365" y="885" on="0"/>
        <pt x="388" y="885" on="1"/>
        <pt x="441" y="885" on="0"/>
        <pt x="441" y="831" on="1"/>
        <pt x="441" y="808" on="0"/>
        <pt x="411" y="775" on="0"/>
      </contour>
      <contour>
        <pt x="195" y="775" on="1"/>
        <pt x="143" y="775" on="0"/>
        <pt x="143" y="831" on="1"/>
        <pt x="143" y="853" on="0"/>
        <pt x="172" y="885" on="0"/>
        <pt x="195" y="885" on="1"/>
        <pt x="248" y="885" on="0"/>
        <pt x="248" y="831" on="1"/>
        <pt x="248" y="808" on="0"/>
        <pt x="218" y="775" on="0"/>
      </contour>
    </TTGlyph>
    <TTGlyph name="Edieresis.sc" xMin="48" yMin="0" xMax="448" yMax="736">
      <contour>
        <pt x="53" y="0" on="1"/>
        <pt x="48" y="36" on="1"/>
        <pt x="89" y="43" on="0"/>
        <pt x="107" y="60" on="0"/>
        <pt x="107" y="84" on="1"/>
        <pt x="107" y="453" on="1"/>
        <pt x="107" y="477" on="0"/>
        <pt x="89" y="494" on="0"/>
        <pt x="48" y="501" on="1"/>
        <pt x="53" y="537" on="1"/>
        <pt x="412" y="537" on="1"/>
        <pt x="417" y="505" on="0"/>
        <pt x="417" y="445" on="0"/>
        <pt x="415" y="411" on="1"/>
        <pt x="365" y="405" on="1"/>
        <pt x="354" y="459" on="0"/>
        <pt x="345" y="486" on="0"/>
        <pt x="339" y="487" on="1"/>
        <pt x="308" y="489" on="0"/>
        <pt x="291" y="490" on="1"/>
        <pt x="200" y="492" on="1"/>
        <pt x="200" y="292" on="1"/>
        <pt x="293" y="292" on="1"/>
        <pt x="303" y="292" on="0"/>
        <pt x="318" y="347" on="1"/>
        <pt x="348" y="345" on="1"/>
        <pt x="348" y="266" on="0"/>
        <pt x="359" y="186" on="1"/>
        <pt x="325" y="181" on="1"/>
        <pt x="313" y="223" on="0"/>
        <pt x="304" y="245" on="0"/>
        <pt x="299" y="245" on="1"/>
        <pt x="200" y="245" on="1"/>
        <pt x="200" y="45" on="1"/>
        <pt x="259" y="46" on="1"/>
        <pt x="339" y="47" on="0"/>
        <pt x="365" y="51" on="1"/>
        <pt x="379" y="57" on="0"/>
        <pt x="404" y="147" on="1"/>
        <pt x="447" y="142" on="1"/>
        <pt x="448" y="130" on="0"/>
        <pt x="448" y="35" on="0"/>
        <pt x="435" y="0" on="1"/>
      </contour>
      <contour>
        <pt x="336" y="626" on="1"/>
        <pt x="284" y="626" on="0"/>
        <pt x="284" y="682" on="1"/>
        <pt x="284" y="704" on="0"/>
        <pt x="313" y="736" on="0"/>
        <pt x="336" y="736" on="1"/>
        <pt x="389" y="736" on="0"/>
        <pt x="389" y="682" on="1"/>
        <pt x="389" y="659" on="0"/>
        <pt x="359" y="626" on="0"/>
      </contour>
      <contour>
        <pt x="143" y="626" on="1"/>
        <pt x="91" y="626" on="0"/>
        <pt x="91" y="682" on="1"/>
        <pt x="91" y="704" on="0"/>
        <pt x="120" y="736" on="0"/>
        <pt x="143" y="736" on="1"/>
        <pt x="196" y="736" on="0"/>
        <pt x="196" y="682" on="1"/>
        <pt x="196" y="659" on="0"/>
        <pt x="166" y="626" on="0"/>
      </contour>
    </TTGlyph>
    <TTGlyph name="Egrave" xMin="44" yMin="0" xMax="548" yMax="914">
      <contour>
        <pt x="50" y="0" on="1"/>
        <pt x="44" y="39" on="1"/>
        <pt x="97" y="48" on="0"/>
        <pt x="120" y="70" on="0"/>
        <pt x="120" y="101" on="1"/>
        <pt x="120" y="592" on="1"/>
        <pt x="120" y="623" on="0"/>
        <pt x="97" y="645" on="0"/>
        <pt x="44" y="654" on="1"/>
        <pt x="50" y="693" on="1"/>
        <pt x="516" y="693" on="1"/>
        <pt x="522" y="656" on="0"/>
        <pt x="522" y="583" on="0"/>
        <pt x="520" y="537" on="1"/>
        <pt x="463" y="530" on="1"/>
        <pt x="449" y="599" on="0"/>
        <pt x="437" y="634" on="0"/>
        <pt x="429" y="635" on="1"/>
        <pt x="405" y="638" on="0"/>
        <pt x="368" y="639" on="1"/>
        <pt x="217" y="642" on="1"/>
        <pt x="217" y="373" on="1"/>
        <pt x="367" y="373" on="1"/>
        <pt x="380" y="373" on="0"/>
        <pt x="399" y="444" on="1"/>
        <pt x="430" y="441" on="1"/>
        <pt x="430" y="368" on="0"/>
        <pt x="435" y="310" on="0"/>
        <pt x="436" y="298" on="0"/>
        <pt x="443" y="252" on="0"/>
        <pt x="444" y="243" on="1"/>
        <pt x="408" y="237" on="1"/>
        <pt x="392" y="294" on="0"/>
        <pt x="381" y="320" on="0"/>
        <pt x="374" y="320" on="1"/>
        <pt x="217" y="320" on="1"/>
        <pt x="217" y="51" on="1"/>
        <pt x="306" y="52" on="1"/>
        <pt x="419" y="52" on="0"/>
        <pt x="444" y="64" on="1"/>
        <pt x="447" y="66" on="0"/>
        <pt x="448" y="66" on="1"/>
        <pt x="465" y="71" on="0"/>
        <pt x="492" y="184" on="1"/>
        <pt x="547" y="179" on="1"/>
        <pt x="548" y="162" on="0"/>
        <pt x="548" y="75" on="0"/>
        <pt x="537" y="0" on="1"/>
      </contour>
      <contour>
        <pt x="132" y="842" on="1"/>
        <pt x="124" y="863" on="1"/>
        <pt x="184" y="914" on="1"/>
        <pt x="358" y="785" on="1"/>
        <pt x="333" y="749" on="1"/>
      </contour>
    </TTGlyph>
    <TTGlyph name="Egrave.sc" xMin="48" yMin="0" xMax="448" yMax="765">
      <contour>
        <pt x="53" y="0" on="1"/>
        <pt x="48" y="36" on="1"/>
        <pt x="89" y="43" on="0"/>
        <pt x="107" y="60" on="0"/>
        <pt x="107" y="84" on="1"/>
        <pt x="107" y="453" on="1"/>
        <pt x="107" y="477" on="0"/>
        <pt x="89" y="494" on="0"/>
        <pt x="48" y="501" on="1"/>
        <pt x="53" y="537" on="1"/>
        <pt x="412" y="537" on="1"/>
        <pt x="417" y="505" on="0"/>
        <pt x="417" y="445" on="0"/>
        <pt x="415" y="411" on="1"/>
        <pt x="365" y="405" on="1"/>
        <pt x="354" y="459" on="0"/>
        <pt x="345" y="486" on="0"/>
        <pt x="339" y="487" on="1"/>
        <pt x="308" y="489" on="0"/>
        <pt x="291" y="490" on="1"/>
        <pt x="200" y="492" on="1"/>
        <pt x="200" y="292" on="1"/>
        <pt x="293" y="292" on="1"/>
        <pt x="303" y="292" on="0"/>
        <pt x="318" y="347" on="1"/>
        <pt x="348" y="345" on="1"/>
        <pt x="348" y="266" on="0"/>
        <pt x="359" y="186" on="1"/>
        <pt x="325" y="181" on="1"/>
        <pt x="313" y="223" on="0"/>
        <pt x="304" y="245" on="0"/>
        <pt x="299" y="245" on="1"/>
        <pt x="200" y="245" on="1"/>
        <pt x="200" y="45" on="1"/>
        <pt x="259" y="46" on="1"/>
        <pt x="339" y="47" on="0"/>
        <pt x="365" y="51" on="1"/>
        <pt x="379" y="57" on="0"/>
        <pt x="404" y="147" on="1"/>
        <pt x="447" y="142" on="1"/>
        <pt x="448" y="130" on="0"/>
        <pt x="448" y="35" on="0"/>
        <pt x="435" y="0" on="1"/>
      </contour>
      <contour>
        <pt x="87" y="693" on="1"/>
        <pt x="79" y="714" on="1"/>
        <pt x="139" y="765" on="1"/>
        <pt x="313" y="636" on="1"/>
        <pt x="288" y="600" on="1"/>
      </contour>
    </TTGlyph>
    <TTGlyph name="Emacron" xMin="44" yMin="0" xMax="548" yMax="836">
      <component glyphName="E" x="0" y="0" flags="0x1004"/>
      <component glyphName="macron" x="160" y="134" flags="0x1004"/>
    </TTGlyph>
    <TTGlyph name="Emacron.sc" xMin="48" yMin="0" xMax="448" yMax="710">
      <contour>
        <pt x="53" y="0" on="1"/>
        <pt x="48" y="36" on="1"/>
        <pt x="89" y="43" on="0"/>
        <pt x="107" y="60" on="0"/>
        <pt x="107" y="84" on="1"/>
        <pt x="107" y="453" on="1"/>
        <pt x="107" y="477" on="0"/>
        <pt x="89" y="494" on="0"/>
        <pt x="48" y="501" on="1"/>
        <pt x="53" y="537" on="1"/>
        <pt x="412" y="537" on="1"/>
        <pt x="417" y="505" on="0"/>
        <pt x="417" y="445" on="0"/>
        <pt x="415" y="411" on="1"/>
        <pt x="365" y="405" on="1"/>
        <pt x="354" y="459" on="0"/>
        <pt x="345" y="486" on="0"/>
        <pt x="339" y="487" on="1"/>
        <pt x="308" y="489" on="0"/>
        <pt x="291" y="490" on="1"/>
        <pt x="200" y="492" on="1"/>
        <pt x="200" y="292" on="1"/>
        <pt x="293" y="292" on="1"/>
        <pt x="303" y="292" on="0"/>
        <pt x="318" y="347" on="1"/>
        <pt x="348" y="345" on="1"/>
        <pt x="348" y="266" on="0"/>
        <pt x="359" y="186" on="1"/>
        <pt x="325" y="181" on="1"/>
        <pt x="313" y="223" on="0"/>
        <pt x="304" y="245" on="0"/>
        <pt x="299" y="245" on="1"/>
        <pt x="200" y="245" on="1"/>
        <pt x="200" y="45" on="1"/>
        <pt x="259" y="46" on="1"/>
        <pt x="339" y="47" on="0"/>
        <pt x="365" y="51" on="1"/>
        <pt x="379" y="57" on="0"/>
        <pt x="404" y="147" on="1"/>
        <pt x="447" y="142" on="1"/>
        <pt x="448" y="130" on="0"/>
        <pt x="448" y="35" on="0"/>
        <pt x="435" y="0" on="1"/>
      </contour>
      <contour>
        <pt x="115" y="650" on="1"/>
        <pt x="115" y="710" on="1"/>
        <pt x="364" y="710" on="1"/>
        <pt x="364" y="650" on="1"/>
      </contour>
    </TTGlyph>
    <TTGlyph name="Eng" xMin="44" yMin="-219" xMax="739" yMax="693">
      <contour>
        <pt x="186" y="693" on="1"/>
        <pt x="241" y="693" on="1"/>
        <pt x="583" y="189" on="1"/>
        <pt x="590" y="189" on="1"/>
        <pt x="590" y="572" on="1"/>
        <pt x="590" y="617" on="0"/>
        <pt x="557" y="647" on="0"/>
        <pt x="494" y="654" on="1"/>
        <pt x="500" y="693" on="1"/>
        <pt x="735" y="693" on="1"/>
        <pt x="739" y="654" on="1"/>
        <pt x="677" y="642" on="1"/>
        <pt x="657" y="638" on="0"/>
        <pt x="657" y="616" on="1"/>
        <pt x="657" y="169" on="1"/>
        <pt x="657" y="103" on="1"/>
        <pt x="657" y="-219" on="0"/>
        <pt x="492" y="-219" on="1"/>
        <pt x="466" y="-219" on="0"/>
        <pt x="440" y="-212" on="1"/>
        <pt x="437" y="-200" on="0"/>
        <pt x="437" y="-158" on="0"/>
        <pt x="454" y="-130" on="1"/>
        <pt x="494" y="-140" on="0"/>
        <pt x="535" y="-140" on="0"/>
        <pt x="545" y="-133" on="1"/>
        <pt x="566" y="-119" on="0"/>
        <pt x="578" y="-62" on="1"/>
        <pt x="585" y="-28" on="0"/>
        <pt x="588" y="10" on="1"/>
        <pt x="195" y="592" on="1"/>
        <pt x="187" y="592" on="1"/>
        <pt x="187" y="100" on="1"/>
        <pt x="187" y="75" on="0"/>
        <pt x="206" y="51" on="0"/>
        <pt x="231" y="48" on="1"/>
        <pt x="301" y="39" on="1"/>
        <pt x="297" y="0" on="1"/>
        <pt x="50" y="0" on="1"/>
        <pt x="44" y="39" on="1"/>
        <pt x="97" y="48" on="0"/>
        <pt x="120" y="70" on="0"/>
        <pt x="120" y="101" on="1"/>
        <pt x="120" y="592" on="1"/>
        <pt x="120" y="623" on="0"/>
        <pt x="97" y="645" on="0"/>
        <pt x="44" y="654" on="1"/>
        <pt x="50" y="693" on="1"/>
        <pt x="127" y="693" on="1"/>
      </contour>
    </TTGlyph>
    <TTGlyph name="Eogonek" xMin="44" yMin="-215" xMax="548" yMax="693">
      <contour>
        <pt x="521" y="-169" on="1"/>
        <pt x="470" y="-215" on="0"/>
        <pt x="411" y="-215" on="1"/>
        <pt x="372" y="-215" on="0"/>
        <pt x="313" y="-164" on="0"/>
        <pt x="313" y="-125" on="1"/>
        <pt x="313" y="-67" on="0"/>
        <pt x="374" y="-20" on="1"/>
        <pt x="389" y="-9" on="0"/>
        <pt x="407" y="0" on="1"/>
        <pt x="50" y="0" on="1"/>
        <pt x="44" y="39" on="1"/>
        <pt x="97" y="48" on="0"/>
        <pt x="120" y="70" on="0"/>
        <pt x="120" y="101" on="1"/>
        <pt x="120" y="592" on="1"/>
        <pt x="120" y="623" on="0"/>
        <pt x="97" y="645" on="0"/>
        <pt x="44" y="654" on="1"/>
        <pt x="50" y="693" on="1"/>
        <pt x="516" y="693" on="1"/>
        <pt x="522" y="656" on="0"/>
        <pt x="522" y="583" on="0"/>
        <pt x="520" y="537" on="1"/>
        <pt x="463" y="530" on="1"/>
        <pt x="449" y="599" on="0"/>
        <pt x="437" y="634" on="0"/>
        <pt x="429" y="635" on="1"/>
        <pt x="405" y="638" on="0"/>
        <pt x="368" y="639" on="1"/>
        <pt x="217" y="642" on="1"/>
        <pt x="217" y="373" on="1"/>
        <pt x="367" y="373" on="1"/>
        <pt x="380" y="373" on="0"/>
        <pt x="399" y="444" on="1"/>
        <pt x="430" y="441" on="1"/>
        <pt x="430" y="368" on="0"/>
        <pt x="435" y="310" on="0"/>
        <pt x="436" y="298" on="0"/>
        <pt x="443" y="252" on="0"/>
        <pt x="444" y="243" on="1"/>
        <pt x="408" y="237" on="1"/>
        <pt x="392" y="294" on="0"/>
        <pt x="381" y="320" on="0"/>
        <pt x="374" y="320" on="1"/>
        <pt x="217" y="320" on="1"/>
        <pt x="217" y="51" on="1"/>
        <pt x="306" y="52" on="1"/>
        <pt x="419" y="52" on="0"/>
        <pt x="444" y="64" on="1"/>
        <pt x="447" y="66" on="0"/>
        <pt x="448" y="66" on="1"/>
        <pt x="465" y="71" on="0"/>
        <pt x="492" y="184" on="1"/>
        <pt x="547" y="179" on="1"/>
        <pt x="548" y="162" on="0"/>
        <pt x="548" y="75" on="0"/>
        <pt x="537" y="0" on="1"/>
        <pt x="536" y="0" on="1"/>
        <pt x="476" y="-2" on="0"/>
        <pt x="394" y="-61" on="0"/>
        <pt x="394" y="-105" on="1"/>
        <pt x="394" y="-131" on="0"/>
        <pt x="425" y="-159" on="0"/>
        <pt x="480" y="-159" on="0"/>
        <pt x="509" y="-149" on="1"/>
      </contour>
    </TTGlyph>
    <TTGlyph name="Eogonek.sc" xMin="48" yMin="-212" xMax="448" yMax="537">
      <contour>
        <pt x="53" y="0" on="1"/>
        <pt x="48" y="36" on="1"/>
        <pt x="89" y="43" on="0"/>
        <pt x="107" y="60" on="0"/>
        <pt x="107" y="84" on="1"/>
        <pt x="107" y="453" on="1"/>
        <pt x="107" y="477" on="0"/>
        <pt x="89" y="494" on="0"/>
        <pt x="48" y="501" on="1"/>
        <pt x="53" y="537" on="1"/>
        <pt x="412" y="537" on="1"/>
        <pt x="417" y="505" on="0"/>
        <pt x="417" y="445" on="0"/>
        <pt x="415" y="411" on="1"/>
        <pt x="365" y="405" on="1"/>
        <pt x="354" y="459" on="0"/>
        <pt x="345" y="486" on="0"/>
        <pt x="339" y="487" on="1"/>
        <pt x="308" y="489" on="0"/>
        <pt x="291" y="490" on="1"/>
        <pt x="200" y="492" on="1"/>
        <pt x="200" y="292" on="1"/>
        <pt x="293" y="292" on="1"/>
        <pt x="303" y="292" on="0"/>
        <pt x="318" y="347" on="1"/>
        <pt x="348" y="345" on="1"/>
        <pt x="348" y="266" on="0"/>
        <pt x="359" y="186" on="1"/>
        <pt x="325" y="181" on="1"/>
        <pt x="313" y="223" on="0"/>
        <pt x="304" y="245" on="0"/>
        <pt x="299" y="245" on="1"/>
        <pt x="200" y="245" on="1"/>
        <pt x="200" y="45" on="1"/>
        <pt x="259" y="46" on="1"/>
        <pt x="339" y="47" on="0"/>
        <pt x="365" y="51" on="1"/>
        <pt x="379" y="57" on="0"/>
        <pt x="404" y="147" on="1"/>
        <pt x="447" y="142" on="1"/>
        <pt x="448" y="130" on="0"/>
        <pt x="448" y="35" on="0"/>
        <pt x="435" y="0" on="1"/>
      </contour>
      <contour>
        <pt x="426" y="-171" on="1"/>
        <pt x="381" y="-212" on="0"/>
        <pt x="295" y="-212" on="0"/>
        <pt x="245" y="-163" on="0"/>
        <pt x="245" y="-77" on="0"/>
        <pt x="327" y="8" on="0"/>
        <pt x="407" y="33" on="1"/>
        <pt x="418" y="13" on="1"/>
        <pt x="312" y="-39" on="0"/>
        <pt x="312" y="-111" on="1"/>
        <pt x="312" y="-134" on="0"/>
        <pt x="340" y="-162" on="0"/>
        <pt x="390" y="-162" on="0"/>
        <pt x="415" y="-153" on="1"/>
      </contour>
    </TTGlyph>
    <TTGlyph name="Eth" xMin="27" yMin="0" xMax="678" yMax="693">
      <contour>
        <pt x="27" y="338" on="1"/>
        <pt x="27" y="398" on="1"/>
        <pt x="120" y="398" on="1"/>
        <pt x="120" y="592" on="1"/>
        <pt x="120" y="623" on="0"/>
        <pt x="97" y="645" on="0"/>
        <pt x="44" y="654" on="1"/>
        <pt x="50" y="693" on="1"/>
        <pt x="363" y="693" on="1"/>
        <pt x="449" y="693" on="0"/>
        <pt x="575" y="638" on="0"/>
        <pt x="610" y="590" on="1"/>
        <pt x="678" y="498" on="0"/>
        <pt x="678" y="368" on="1"/>
        <pt x="678" y="225" on="0"/>
        <pt x="602" y="119" on="1"/>
        <pt x="564" y="65" on="0"/>
        <pt x="429" y="0" on="0"/>
        <pt x="341" y="0" on="1"/>
        <pt x="50" y="0" on="1"/>
        <pt x="44" y="39" on="1"/>
        <pt x="97" y="48" on="0"/>
        <pt x="120" y="70" on="0"/>
        <pt x="120" y="101" on="1"/>
        <pt x="120" y="338" on="1"/>
      </contour>
      <contour>
        <pt x="238" y="67" on="1"/>
        <pt x="308" y="53" on="0"/>
        <pt x="344" y="53" on="1"/>
        <pt x="455" y="53" on="0"/>
        <pt x="567" y="211" on="0"/>
        <pt x="567" y="343" on="1"/>
        <pt x="567" y="426" on="0"/>
        <pt x="524" y="548" on="0"/>
        <pt x="488" y="580" on="1"/>
        <pt x="420" y="640" on="0"/>
        <pt x="340" y="640" on="1"/>
        <pt x="217" y="640" on="1"/>
        <pt x="217" y="398" on="1"/>
        <pt x="384" y="398" on="1"/>
        <pt x="384" y="338" on="1"/>
        <pt x="217" y="338" on="1"/>
        <pt x="217" y="93" on="1"/>
        <pt x="217" y="71" on="0"/>
      </contour>
    </TTGlyph>
    <TTGlyph name="Euro" xMin="10" yMin="-9" xMax="544" yMax="702">
      <contour>
        <pt x="385" y="368" on="1"/>
        <pt x="10" y="368" on="1"/>
        <pt x="10" y="419" on="1"/>
        <pt x="84" y="419" on="1"/>
        <pt x="103" y="541" on="0"/>
        <pt x="241" y="702" on="0"/>
        <pt x="367" y="702" on="1"/>
        <pt x="412" y="702" on="0"/>
        <pt x="513" y="682" on="0"/>
        <pt x="529" y="674" on="1"/>
        <pt x="535" y="637" on="0"/>
        <pt x="535" y="556" on="0"/>
        <pt x="533" y="506" on="1"/>
        <pt x="476" y="498" on="1"/>
        <pt x="454" y="614" on="0"/>
        <pt x="437" y="626" on="1"/>
        <pt x="431" y="633" on="0"/>
        <pt x="376" y="649" on="0"/>
        <pt x="350" y="649" on="1"/>
        <pt x="280" y="649" on="0"/>
        <pt x="201" y="525" on="0"/>
        <pt x="192" y="419" on="1"/>
        <pt x="385" y="419" on="1"/>
      </contour>
      <contour>
        <pt x="10" y="297" on="1"/>
        <pt x="385" y="297" on="1"/>
        <pt x="385" y="246" on="1"/>
        <pt x="197" y="246" on="1"/>
        <pt x="215" y="145" on="0"/>
        <pt x="311" y="47" on="0"/>
        <pt x="375" y="47" on="1"/>
        <pt x="402" y="47" on="0"/>
        <pt x="449" y="65" on="0"/>
        <pt x="455" y="72" on="1"/>
        <pt x="467" y="81" on="0"/>
        <pt x="489" y="200" on="1"/>
        <pt x="544" y="198" on="1"/>
        <pt x="544" y="122" on="0"/>
        <pt x="533" y="36" on="1"/>
        <pt x="507" y="19" on="0"/>
        <pt x="401" y="-9" on="0"/>
        <pt x="346" y="-9" on="1"/>
        <pt x="233" y="-9" on="0"/>
        <pt x="102" y="131" on="0"/>
        <pt x="84" y="246" on="1"/>
        <pt x="10" y="246" on="1"/>
      </contour>
    </TTGlyph>
    <TTGlyph name="Euro.tab" xMin="17" yMin="-9" xMax="502" yMax="702">
      <contour>
        <pt x="343" y="368" on="1"/>
        <pt x="17" y="368" on="1"/>
        <pt x="17" y="419" on="1"/>
        <pt x="62" y="419" on="1"/>
        <pt x="78" y="536" on="0"/>
        <pt x="138" y="614" on="1"/>
        <pt x="170" y="655" on="0"/>
        <pt x="269" y="702" on="0"/>
        <pt x="376" y="702" on="0"/>
        <pt x="472" y="682" on="0"/>
        <pt x="487" y="674" on="1"/>
        <pt x="493" y="637" on="0"/>
        <pt x="493" y="556" on="0"/>
        <pt x="491" y="506" on="1"/>
        <pt x="434" y="498" on="1"/>
        <pt x="412" y="614" on="0"/>
        <pt x="395" y="626" on="1"/>
        <pt x="390" y="633" on="0"/>
        <pt x="339" y="649" on="0"/>
        <pt x="315" y="649" on="1"/>
        <pt x="251" y="649" on="0"/>
        <pt x="178" y="525" on="0"/>
        <pt x="169" y="419" on="1"/>
        <pt x="343" y="419" on="1"/>
      </contour>
      <contour>
        <pt x="17" y="297" on="1"/>
        <pt x="343" y="297" on="1"/>
        <pt x="343" y="246" on="1"/>
        <pt x="175" y="246" on="1"/>
        <pt x="191" y="145" on="0"/>
        <pt x="281" y="47" on="0"/>
        <pt x="340" y="47" on="1"/>
        <pt x="365" y="47" on="0"/>
        <pt x="408" y="65" on="0"/>
        <pt x="413" y="72" on="1"/>
        <pt x="425" y="81" on="0"/>
        <pt x="447" y="200" on="1"/>
        <pt x="502" y="198" on="1"/>
        <pt x="502" y="122" on="0"/>
        <pt x="491" y="36" on="1"/>
        <pt x="466" y="19" on="0"/>
        <pt x="364" y="-9" on="0"/>
        <pt x="311" y="-9" on="1"/>
        <pt x="204" y="-9" on="0"/>
        <pt x="79" y="131" on="0"/>
        <pt x="62" y="246" on="1"/>
        <pt x="17" y="246" on="1"/>
      </contour>
    </TTGlyph>
    <TTGlyph name="F" xMin="44" yMin="0" xMax="522" yMax="693">
      <contour>
        <pt x="50" y="0" on="1"/>
        <pt x="44" y="39" on="1"/>
        <pt x="97" y="48" on="0"/>
        <pt x="120" y="70" on="0"/>
        <pt x="120" y="101" on="1"/>
        <pt x="120" y="592" on="1"/>
        <pt x="120" y="623" on="0"/>
        <pt x="97" y="645" on="0"/>
        <pt x="44" y="654" on="1"/>
        <pt x="50" y="693" on="1"/>
        <pt x="516" y="693" on="1"/>
        <pt x="522" y="656" on="0"/>
        <pt x="522" y="583" on="0"/>
        <pt x="520" y="537" on="1"/>
        <pt x="463" y="530" on="1"/>
        <pt x="449" y="599" on="0"/>
        <pt x="437" y="634" on="0"/>
        <pt x="429" y="635" on="1"/>
        <pt x="405" y="638" on="0"/>
        <pt x="368" y="639" on="1"/>
        <pt x="217" y="642" on="1"/>
        <pt x="217" y="364" on="1"/>
        <pt x="371" y="364" on="1"/>
        <pt x="396" y="364" on="0"/>
        <pt x="415" y="435" on="1"/>
        <pt x="446" y="432" on="1"/>
        <pt x="446" y="359" on="0"/>
        <pt x="451" y="301" on="0"/>
        <pt x="452" y="289" on="0"/>
        <pt x="459" y="243" on="0"/>
        <pt x="460" y="234" on="1"/>
        <pt x="424" y="228" on="1"/>
        <pt x="400" y="311" on="0"/>
        <pt x="378" y="311" on="1"/>
        <pt x="217" y="311" on="1"/>
        <pt x="217" y="77" on="1"/>
        <pt x="217" y="53" on="0"/>
        <pt x="237" y="51" on="1"/>
        <pt x="338" y="39" on="1"/>
        <pt x="334" y="0" on="1"/>
      </contour>
    </TTGlyph>
    <TTGlyph name="F.sc" xMin="48" yMin="0" xMax="417" yMax="537">
      <contour>
        <pt x="53" y="0" on="1"/>
        <pt x="48" y="36" on="1"/>
        <pt x="89" y="43" on="0"/>
        <pt x="107" y="60" on="0"/>
        <pt x="107" y="84" on="1"/>
        <pt x="107" y="453" on="1"/>
        <pt x="107" y="477" on="0"/>
        <pt x="89" y="494" on="0"/>
        <pt x="48" y="501" on="1"/>
        <pt x="53" y="537" on="1"/>
        <pt x="412" y="537" on="1"/>
        <pt x="417" y="505" on="0"/>
        <pt x="417" y="445" on="0"/>
        <pt x="415" y="411" on="1"/>
        <pt x="365" y="405" on="1"/>
        <pt x="354" y="459" on="0"/>
        <pt x="345" y="486" on="0"/>
        <pt x="339" y="487" on="1"/>
        <pt x="308" y="489" on="0"/>
        <pt x="291" y="490" on="1"/>
        <pt x="200" y="492" on="1"/>
        <pt x="200" y="285" on="1"/>
        <pt x="293" y="285" on="1"/>
        <pt x="303" y="285" on="0"/>
        <pt x="318" y="340" on="1"/>
        <pt x="348" y="338" on="1"/>
        <pt x="348" y="259" on="0"/>
        <pt x="359" y="179" on="1"/>
        <pt x="325" y="174" on="1"/>
        <pt x="313" y="216" on="0"/>
        <pt x="304" y="238" on="0"/>
        <pt x="299" y="238" on="1"/>
        <pt x="200" y="238" on="1"/>
        <pt x="200" y="65" on="1"/>
        <pt x="200" y="47" on="0"/>
        <pt x="216" y="45" on="1"/>
        <pt x="295" y="36" on="1"/>
        <pt x="292" y="0" on="1"/>
      </contour>
    </TTGlyph>
    <TTGlyph name="G" xMin="35" yMin="-9" xMax="658" yMax="702">
      <contour>
        <pt x="587" y="37" on="1"/>
        <pt x="554" y="20" on="0"/>
        <pt x="429" y="-9" on="0"/>
        <pt x="364" y="-9" on="1"/>
        <pt x="201" y="-9" on="0"/>
        <pt x="35" y="183" on="0"/>
        <pt x="35" y="331" on="1"/>
        <pt x="35" y="445" on="0"/>
        <pt x="82" y="534" on="1"/>
        <pt x="137" y="639" on="0"/>
        <pt x="247" y="680" on="1"/>
        <pt x="308" y="702" on="0"/>
        <pt x="440" y="702" on="0"/>
        <pt x="562" y="682" on="0"/>
        <pt x="581" y="674" on="1"/>
        <pt x="587" y="637" on="0"/>
        <pt x="587" y="556" on="0"/>
        <pt x="585" y="506" on="1"/>
        <pt x="528" y="498" on="1"/>
        <pt x="506" y="614" on="0"/>
        <pt x="489" y="626" on="1"/>
        <pt x="480" y="633" on="0"/>
        <pt x="405" y="649" on="0"/>
        <pt x="368" y="649" on="1"/>
        <pt x="258" y="649" on="0"/>
        <pt x="146" y="487" on="0"/>
        <pt x="146" y="355" on="1"/>
        <pt x="146" y="199" on="0"/>
        <pt x="288" y="47" on="0"/>
        <pt x="393" y="47" on="1"/>
        <pt x="448" y="47" on="0"/>
        <pt x="490" y="63" on="1"/>
        <pt x="490" y="202" on="1"/>
        <pt x="490" y="233" on="0"/>
        <pt x="467" y="255" on="0"/>
        <pt x="414" y="264" on="1"/>
        <pt x="420" y="303" on="1"/>
        <pt x="654" y="303" on="1"/>
        <pt x="658" y="264" on="1"/>
        <pt x="607" y="252" on="1"/>
        <pt x="587" y="248" on="0"/>
        <pt x="587" y="226" on="1"/>
      </contour>
    </TTGlyph>
    <TTGlyph name="G.sc" xMin="33" yMin="-7" xMax="536" yMax="544">
      <contour>
        <pt x="480" y="15" on="1"/>
        <pt x="379" y="-7" on="0"/>
        <pt x="300" y="-7" on="1"/>
        <pt x="162" y="-7" on="0"/>
        <pt x="33" y="151" on="0"/>
        <pt x="33" y="276" on="1"/>
        <pt x="33" y="370" on="0"/>
        <pt x="96" y="452" on="1"/>
        <pt x="127" y="493" on="0"/>
        <pt x="236" y="544" on="0"/>
        <pt x="385" y="544" on="0"/>
        <pt x="476" y="512" on="1"/>
        <pt x="476" y="490" on="1"/>
        <pt x="476" y="415" on="0"/>
        <pt x="465" y="374" on="1"/>
        <pt x="405" y="367" on="1"/>
        <pt x="404" y="377" on="0"/>
        <pt x="392" y="472" on="0"/>
        <pt x="389" y="476" on="1"/>
        <pt x="370" y="497" on="0"/>
        <pt x="304" y="497" on="1"/>
        <pt x="222" y="497" on="0"/>
        <pt x="136" y="378" on="0"/>
        <pt x="136" y="156" on="0"/>
        <pt x="249" y="40" on="0"/>
        <pt x="317" y="40" on="1"/>
        <pt x="360" y="40" on="0"/>
        <pt x="387" y="49" on="1"/>
        <pt x="387" y="157" on="1"/>
        <pt x="387" y="181" on="0"/>
        <pt x="369" y="198" on="0"/>
        <pt x="328" y="205" on="1"/>
        <pt x="333" y="235" on="1"/>
        <pt x="533" y="235" on="1"/>
        <pt x="536" y="205" on="1"/>
        <pt x="496" y="195" on="1"/>
        <pt x="480" y="192" on="0"/>
        <pt x="480" y="175" on="1"/>
      </contour>
    </TTGlyph>
    <TTGlyph name="Gbreve" xMin="35" yMin="-9" xMax="658" yMax="900">
      <contour>
        <pt x="587" y="37" on="1"/>
        <pt x="554" y="20" on="0"/>
        <pt x="429" y="-9" on="0"/>
        <pt x="364" y="-9" on="1"/>
        <pt x="201" y="-9" on="0"/>
        <pt x="35" y="183" on="0"/>
        <pt x="35" y="331" on="1"/>
        <pt x="35" y="445" on="0"/>
        <pt x="82" y="534" on="1"/>
        <pt x="137" y="639" on="0"/>
        <pt x="247" y="680" on="1"/>
        <pt x="308" y="702" on="0"/>
        <pt x="440" y="702" on="0"/>
        <pt x="562" y="682" on="0"/>
        <pt x="581" y="674" on="1"/>
        <pt x="587" y="637" on="0"/>
        <pt x="587" y="556" on="0"/>
        <pt x="585" y="506" on="1"/>
        <pt x="528" y="498" on="1"/>
        <pt x="506" y="614" on="0"/>
        <pt x="489" y="626" on="1"/>
        <pt x="480" y="633" on="0"/>
        <pt x="405" y="649" on="0"/>
        <pt x="368" y="649" on="1"/>
        <pt x="258" y="649" on="0"/>
        <pt x="146" y="487" on="0"/>
        <pt x="146" y="355" on="1"/>
        <pt x="146" y="199" on="0"/>
        <pt x="288" y="47" on="0"/>
        <pt x="393" y="47" on="1"/>
        <pt x="448" y="47" on="0"/>
        <pt x="490" y="63" on="1"/>
        <pt x="490" y="202" on="1"/>
        <pt x="490" y="233" on="0"/>
        <pt x="467" y="255" on="0"/>
        <pt x="414" y="264" on="1"/>
        <pt x="420" y="303" on="1"/>
        <pt x="654" y="303" on="1"/>
        <pt x="658" y="264" on="1"/>
        <pt x="607" y="252" on="1"/>
        <pt x="587" y="248" on="0"/>
        <pt x="587" y="226" on="1"/>
      </contour>
      <contour>
        <pt x="490" y="900" on="1"/>
        <pt x="527" y="900" on="1"/>
        <pt x="523" y="838" on="0"/>
        <pt x="449" y="760" on="0"/>
        <pt x="307" y="760" on="0"/>
        <pt x="233" y="838" on="0"/>
        <pt x="229" y="900" on="1"/>
        <pt x="266" y="900" on="1"/>
        <pt x="283" y="828" on="0"/>
        <pt x="473" y="828" on="0"/>
      </contour>
    </TTGlyph>
    <TTGlyph name="Gbreve.sc" xMin="33" yMin="-7" xMax="536" yMax="751">
      <contour>
        <pt x="480" y="15" on="1"/>
        <pt x="379" y="-7" on="0"/>
        <pt x="300" y="-7" on="1"/>
        <pt x="162" y="-7" on="0"/>
        <pt x="33" y="151" on="0"/>
        <pt x="33" y="276" on="1"/>
        <pt x="33" y="370" on="0"/>
        <pt x="96" y="452" on="1"/>
        <pt x="127" y="493" on="0"/>
        <pt x="236" y="544" on="0"/>
        <pt x="385" y="544" on="0"/>
        <pt x="476" y="512" on="1"/>
        <pt x="476" y="490" on="1"/>
        <pt x="476" y="415" on="0"/>
        <pt x="465" y="374" on="1"/>
        <pt x="405" y="367" on="1"/>
        <pt x="404" y="377" on="0"/>
        <pt x="392" y="472" on="0"/>
        <pt x="389" y="476" on="1"/>
        <pt x="370" y="497" on="0"/>
        <pt x="304" y="497" on="1"/>
        <pt x="222" y="497" on="0"/>
        <pt x="136" y="378" on="0"/>
        <pt x="136" y="156" on="0"/>
        <pt x="249" y="40" on="0"/>
        <pt x="317" y="40" on="1"/>
        <pt x="360" y="40" on="0"/>
        <pt x="387" y="49" on="1"/>
        <pt x="387" y="157" on="1"/>
        <pt x="387" y="181" on="0"/>
        <pt x="369" y="198" on="0"/>
        <pt x="328" y="205" on="1"/>
        <pt x="333" y="235" on="1"/>
        <pt x="533" y="235" on="1"/>
        <pt x="536" y="205" on="1"/>
        <pt x="496" y="195" on="1"/>
        <pt x="480" y="192" on="0"/>
        <pt x="480" y="175" on="1"/>
      </contour>
      <contour>
        <pt x="390" y="751" on="1"/>
        <pt x="427" y="751" on="1"/>
        <pt x="423" y="689" on="0"/>
        <pt x="349" y="611" on="0"/>
        <pt x="207" y="611" on="0"/>
        <pt x="133" y="689" on="0"/>
        <pt x="129" y="751" on="1"/>
        <pt x="166" y="751" on="1"/>
        <pt x="183" y="679" on="0"/>
        <pt x="373" y="679" on="0"/>
      </contour>
    </TTGlyph>
    <TTGlyph name="Gcaron" xMin="35" yMin="-9" xMax="658" yMax="917">
      <contour>
        <pt x="587" y="37" on="1"/>
        <pt x="554" y="20" on="0"/>
        <pt x="429" y="-9" on="0"/>
        <pt x="364" y="-9" on="1"/>
        <pt x="201" y="-9" on="0"/>
        <pt x="35" y="183" on="0"/>
        <pt x="35" y="331" on="1"/>
        <pt x="35" y="445" on="0"/>
        <pt x="82" y="534" on="1"/>
        <pt x="137" y="639" on="0"/>
        <pt x="247" y="680" on="1"/>
        <pt x="308" y="702" on="0"/>
        <pt x="440" y="702" on="0"/>
        <pt x="562" y="682" on="0"/>
        <pt x="581" y="674" on="1"/>
        <pt x="587" y="637" on="0"/>
        <pt x="587" y="556" on="0"/>
        <pt x="585" y="506" on="1"/>
        <pt x="528" y="498" on="1"/>
        <pt x="506" y="614" on="0"/>
        <pt x="489" y="626" on="1"/>
        <pt x="480" y="633" on="0"/>
        <pt x="405" y="649" on="0"/>
        <pt x="368" y="649" on="1"/>
        <pt x="258" y="649" on="0"/>
        <pt x="146" y="487" on="0"/>
        <pt x="146" y="355" on="1"/>
        <pt x="146" y="199" on="0"/>
        <pt x="288" y="47" on="0"/>
        <pt x="393" y="47" on="1"/>
        <pt x="448" y="47" on="0"/>
        <pt x="490" y="63" on="1"/>
        <pt x="490" y="202" on="1"/>
        <pt x="490" y="233" on="0"/>
        <pt x="467" y="255" on="0"/>
        <pt x="414" y="264" on="1"/>
        <pt x="420" y="303" on="1"/>
        <pt x="654" y="303" on="1"/>
        <pt x="658" y="264" on="1"/>
        <pt x="607" y="252" on="1"/>
        <pt x="587" y="248" on="0"/>
        <pt x="587" y="226" on="1"/>
      </contour>
      <contour>
        <pt x="213" y="917" on="1"/>
        <pt x="352" y="826" on="1"/>
        <pt x="491" y="917" on="1"/>
        <pt x="516" y="891" on="1"/>
        <pt x="380" y="752" on="1"/>
        <pt x="324" y="752" on="1"/>
        <pt x="188" y="891" on="1"/>
      </contour>
    </TTGlyph>
    <TTGlyph name="Gcircumflex" xMin="35" yMin="-9" xMax="658" yMax="914">
      <contour>
        <pt x="587" y="37" on="1"/>
        <pt x="554" y="20" on="0"/>
        <pt x="429" y="-9" on="0"/>
        <pt x="364" y="-9" on="1"/>
        <pt x="201" y="-9" on="0"/>
        <pt x="35" y="183" on="0"/>
        <pt x="35" y="331" on="1"/>
        <pt x="35" y="445" on="0"/>
        <pt x="82" y="534" on="1"/>
        <pt x="137" y="639" on="0"/>
        <pt x="247" y="680" on="1"/>
        <pt x="308" y="702" on="0"/>
        <pt x="440" y="702" on="0"/>
        <pt x="562" y="682" on="0"/>
        <pt x="581" y="674" on="1"/>
        <pt x="587" y="637" on="0"/>
        <pt x="587" y="556" on="0"/>
        <pt x="585" y="506" on="1"/>
        <pt x="528" y="498" on="1"/>
        <pt x="506" y="614" on="0"/>
        <pt x="489" y="626" on="1"/>
        <pt x="480" y="633" on="0"/>
        <pt x="405" y="649" on="0"/>
        <pt x="368" y="649" on="1"/>
        <pt x="258" y="649" on="0"/>
        <pt x="146" y="487" on="0"/>
        <pt x="146" y="355" on="1"/>
        <pt x="146" y="199" on="0"/>
        <pt x="288" y="47" on="0"/>
        <pt x="393" y="47" on="1"/>
        <pt x="448" y="47" on="0"/>
        <pt x="490" y="63" on="1"/>
        <pt x="490" y="202" on="1"/>
        <pt x="490" y="233" on="0"/>
        <pt x="467" y="255" on="0"/>
        <pt x="414" y="264" on="1"/>
        <pt x="420" y="303" on="1"/>
        <pt x="654" y="303" on="1"/>
        <pt x="658" y="264" on="1"/>
        <pt x="607" y="252" on="1"/>
        <pt x="587" y="248" on="0"/>
        <pt x="587" y="226" on="1"/>
      </contour>
      <contour>
        <pt x="488" y="749" on="1"/>
        <pt x="349" y="840" on="1"/>
        <pt x="210" y="749" on="1"/>
        <pt x="185" y="775" on="1"/>
        <pt x="321" y="914" on="1"/>
        <pt x="377" y="914" on="1"/>
        <pt x="513" y="775" on="1"/>
      </contour>
    </TTGlyph>
    <TTGlyph name="Gcircumflex.sc" xMin="33" yMin="-7" xMax="536" yMax="765">
      <contour>
        <pt x="480" y="15" on="1"/>
        <pt x="379" y="-7" on="0"/>
        <pt x="300" y="-7" on="1"/>
        <pt x="162" y="-7" on="0"/>
        <pt x="33" y="151" on="0"/>
        <pt x="33" y="276" on="1"/>
        <pt x="33" y="370" on="0"/>
        <pt x="96" y="452" on="1"/>
        <pt x="127" y="493" on="0"/>
        <pt x="236" y="544" on="0"/>
        <pt x="385" y="544" on="0"/>
        <pt x="476" y="512" on="1"/>
        <pt x="476" y="490" on="1"/>
        <pt x="476" y="415" on="0"/>
        <pt x="465" y="374" on="1"/>
        <pt x="405" y="367" on="1"/>
        <pt x="404" y="377" on="0"/>
        <pt x="392" y="472" on="0"/>
        <pt x="389" y="476" on="1"/>
        <pt x="370" y="497" on="0"/>
        <pt x="304" y="497" on="1"/>
        <pt x="222" y="497" on="0"/>
        <pt x="136" y="378" on="0"/>
        <pt x="136" y="156" on="0"/>
        <pt x="249" y="40" on="0"/>
        <pt x="317" y="40" on="1"/>
        <pt x="360" y="40" on="0"/>
        <pt x="387" y="49" on="1"/>
        <pt x="387" y="157" on="1"/>
        <pt x="387" y="181" on="0"/>
        <pt x="369" y="198" on="0"/>
        <pt x="328" y="205" on="1"/>
        <pt x="333" y="235" on="1"/>
        <pt x="533" y="235" on="1"/>
        <pt x="536" y="205" on="1"/>
        <pt x="496" y="195" on="1"/>
        <pt x="480" y="192" on="0"/>
        <pt x="480" y="175" on="1"/>
      </contour>
      <contour>
        <pt x="417" y="600" on="1"/>
        <pt x="278" y="691" on="1"/>
        <pt x="139" y="600" on="1"/>
        <pt x="114" y="626" on="1"/>
        <pt x="250" y="765" on="1"/>
        <pt x="306" y="765" on="1"/>
        <pt x="442" y="626" on="1"/>
      </contour>
    </TTGlyph>
    <TTGlyph name="H" xMin="44" yMin="0" xMax="729" yMax="693">
      <contour>
        <pt x="50" y="0" on="1"/>
        <pt x="44" y="39" on="1"/>
        <pt x="97" y="48" on="0"/>
        <pt x="120" y="70" on="0"/>
        <pt x="120" y="101" on="1"/>
        <pt x="120" y="592" on="1"/>
        <pt x="120" y="623" on="0"/>
        <pt x="97" y="645" on="0"/>
        <pt x="44" y="654" on="1"/>
        <pt x="50" y="693" on="1"/>
        <pt x="295" y="693" on="1"/>
        <pt x="299" y="654" on="1"/>
        <pt x="237" y="642" on="1"/>
        <pt x="217" y="638" on="0"/>
        <pt x="217" y="616" on="1"/>
        <pt x="217" y="387" on="1"/>
        <pt x="550" y="387" on="1"/>
        <pt x="550" y="592" on="1"/>
        <pt x="550" y="623" on="0"/>
        <pt x="527" y="645" on="0"/>
        <pt x="474" y="654" on="1"/>
        <pt x="480" y="693" on="1"/>
        <pt x="725" y="693" on="1"/>
        <pt x="729" y="654" on="1"/>
        <pt x="667" y="642" on="1"/>
        <pt x="647" y="638" on="0"/>
        <pt x="647" y="616" on="1"/>
        <pt x="647" y="77" on="1"/>
        <pt x="647" y="55" on="0"/>
        <pt x="667" y="51" on="1"/>
        <pt x="729" y="39" on="1"/>
        <pt x="725" y="0" on="1"/>
        <pt x="480" y="0" on="1"/>
        <pt x="474" y="39" on="1"/>
        <pt x="527" y="48" on="0"/>
        <pt x="550" y="70" on="0"/>
        <pt x="550" y="101" on="1"/>
        <pt x="550" y="327" on="1"/>
        <pt x="217" y="327" on="1"/>
        <pt x="217" y="77" on="1"/>
        <pt x="217" y="55" on="0"/>
        <pt x="237" y="51" on="1"/>
        <pt x="299" y="39" on="1"/>
        <pt x="295" y="0" on="1"/>
      </contour>
    </TTGlyph>
    <TTGlyph name="H.sc" xMin="48" yMin="0" xMax="588" yMax="537">
      <contour>
        <pt x="53" y="0" on="1"/>
        <pt x="48" y="36" on="1"/>
        <pt x="89" y="43" on="0"/>
        <pt x="107" y="60" on="0"/>
        <pt x="107" y="84" on="1"/>
        <pt x="107" y="459" on="1"/>
        <pt x="107" y="482" on="0"/>
        <pt x="91" y="494" on="0"/>
        <pt x="48" y="501" on="1"/>
        <pt x="53" y="537" on="1"/>
        <pt x="261" y="537" on="1"/>
        <pt x="264" y="501" on="1"/>
        <pt x="216" y="492" on="1"/>
        <pt x="200" y="489" on="0"/>
        <pt x="200" y="472" on="1"/>
        <pt x="200" y="311" on="1"/>
        <pt x="431" y="311" on="1"/>
        <pt x="431" y="459" on="1"/>
        <pt x="431" y="482" on="0"/>
        <pt x="415" y="494" on="0"/>
        <pt x="372" y="501" on="1"/>
        <pt x="377" y="537" on="1"/>
        <pt x="585" y="537" on="1"/>
        <pt x="588" y="501" on="1"/>
        <pt x="540" y="492" on="1"/>
        <pt x="524" y="489" on="0"/>
        <pt x="524" y="472" on="1"/>
        <pt x="524" y="65" on="1"/>
        <pt x="524" y="48" on="0"/>
        <pt x="540" y="45" on="1"/>
        <pt x="588" y="36" on="1"/>
        <pt x="585" y="0" on="1"/>
        <pt x="377" y="0" on="1"/>
        <pt x="372" y="36" on="1"/>
        <pt x="413" y="43" on="0"/>
        <pt x="431" y="60" on="0"/>
        <pt x="431" y="84" on="1"/>
        <pt x="431" y="259" on="1"/>
        <pt x="200" y="259" on="1"/>
        <pt x="200" y="65" on="1"/>
        <pt x="200" y="48" on="0"/>
        <pt x="216" y="45" on="1"/>
        <pt x="264" y="36" on="1"/>
        <pt x="261" y="0" on="1"/>
      </contour>
    </TTGlyph>
    <TTGlyph name="H22073" xMin="81" yMin="0" xMax="919" yMax="838">
      <contour>
        <pt x="919" y="838" on="1"/>
        <pt x="919" y="0" on="1"/>
        <pt x="81" y="0" on="1"/>
        <pt x="81" y="838" on="1"/>
      </contour>
      <contour>
        <pt x="859" y="60" on="1"/>
        <pt x="859" y="778" on="1"/>
        <pt x="141" y="778" on="1"/>
        <pt x="141" y="60" on="1"/>
      </contour>
    </TTGlyph>
    <TTGlyph name="Hbar" xMin="44" yMin="0" xMax="729" yMax="693">
      <contour>
        <pt x="50" y="492" on="1"/>
        <pt x="50" y="545" on="1"/>
        <pt x="120" y="545" on="1"/>
        <pt x="120" y="592" on="1"/>
        <pt x="120" y="623" on="0"/>
        <pt x="97" y="645" on="0"/>
        <pt x="44" y="654" on="1"/>
        <pt x="50" y="693" on="1"/>
        <pt x="295" y="693" on="1"/>
        <pt x="299" y="654" on="1"/>
        <pt x="237" y="642" on="1"/>
        <pt x="217" y="638" on="0"/>
        <pt x="217" y="616" on="1"/>
        <pt x="217" y="545" on="1"/>
        <pt x="550" y="545" on="1"/>
        <pt x="550" y="592" on="1"/>
        <pt x="550" y="623" on="0"/>
        <pt x="527" y="645" on="0"/>
        <pt x="474" y="654" on="1"/>
        <pt x="480" y="693" on="1"/>
        <pt x="725" y="693" on="1"/>
        <pt x="729" y="654" on="1"/>
        <pt x="667" y="642" on="1"/>
        <pt x="647" y="638" on="0"/>
        <pt x="647" y="616" on="1"/>
        <pt x="647" y="545" on="1"/>
        <pt x="723" y="545" on="1"/>
        <pt x="723" y="492" on="1"/>
        <pt x="647" y="492" on="1"/>
        <pt x="647" y="77" on="1"/>
        <pt x="647" y="55" on="0"/>
        <pt x="667" y="51" on="1"/>
        <pt x="729" y="39" on="1"/>
        <pt x="725" y="0" on="1"/>
        <pt x="480" y="0" on="1"/>
        <pt x="474" y="39" on="1"/>
        <pt x="527" y="48" on="0"/>
        <pt x="550" y="70" on="0"/>
        <pt x="550" y="101" on="1"/>
        <pt x="550" y="327" on="1"/>
        <pt x="217" y="327" on="1"/>
        <pt x="217" y="77" on="1"/>
        <pt x="217" y="55" on="0"/>
        <pt x="237" y="51" on="1"/>
        <pt x="299" y="39" on="1"/>
        <pt x="295" y="0" on="1"/>
        <pt x="50" y="0" on="1"/>
        <pt x="44" y="39" on="1"/>
        <pt x="97" y="48" on="0"/>
        <pt x="120" y="70" on="0"/>
        <pt x="120" y="101" on="1"/>
        <pt x="120" y="492" on="1"/>
      </contour>
      <contour>
        <pt x="550" y="492" on="1"/>
        <pt x="217" y="492" on="1"/>
        <pt x="217" y="387" on="1"/>
        <pt x="550" y="387" on="1"/>
      </contour>
    </TTGlyph>
    <TTGlyph name="Hbar.sc" xMin="48" yMin="0" xMax="588" yMax="537">
      <contour>
        <pt x="53" y="0" on="1"/>
        <pt x="48" y="36" on="1"/>
        <pt x="89" y="43" on="0"/>
        <pt x="107" y="60" on="0"/>
        <pt x="107" y="84" on="1"/>
        <pt x="107" y="459" on="1"/>
        <pt x="107" y="482" on="0"/>
        <pt x="91" y="494" on="0"/>
        <pt x="48" y="501" on="1"/>
        <pt x="53" y="537" on="1"/>
        <pt x="261" y="537" on="1"/>
        <pt x="264" y="501" on="1"/>
        <pt x="216" y="492" on="1"/>
        <pt x="200" y="489" on="0"/>
        <pt x="200" y="472" on="1"/>
        <pt x="200" y="311" on="1"/>
        <pt x="431" y="311" on="1"/>
        <pt x="431" y="459" on="1"/>
        <pt x="431" y="482" on="0"/>
        <pt x="415" y="494" on="0"/>
        <pt x="372" y="501" on="1"/>
        <pt x="377" y="537" on="1"/>
        <pt x="585" y="537" on="1"/>
        <pt x="588" y="501" on="1"/>
        <pt x="540" y="492" on="1"/>
        <pt x="524" y="489" on="0"/>
        <pt x="524" y="472" on="1"/>
        <pt x="524" y="65" on="1"/>
        <pt x="524" y="48" on="0"/>
        <pt x="540" y="45" on="1"/>
        <pt x="588" y="36" on="1"/>
        <pt x="585" y="0" on="1"/>
        <pt x="377" y="0" on="1"/>
        <pt x="372" y="36" on="1"/>
        <pt x="413" y="43" on="0"/>
        <pt x="431" y="60" on="0"/>
        <pt x="431" y="84" on="1"/>
        <pt x="431" y="259" on="1"/>
        <pt x="200" y="259" on="1"/>
        <pt x="200" y="65" on="1"/>
        <pt x="200" y="48" on="0"/>
        <pt x="216" y="45" on="1"/>
        <pt x="264" y="36" on="1"/>
        <pt x="261" y="0" on="1"/>
      </contour>
      <contour>
        <pt x="54" y="365" on="1"/>
        <pt x="54" y="418" on="1"/>
        <pt x="576" y="418" on="1"/>
        <pt x="576" y="365" on="1"/>
      </contour>
    </TTGlyph>
    <TTGlyph name="Hcircumflex" xMin="44" yMin="0" xMax="729" yMax="914">
      <contour>
        <pt x="50" y="0" on="1"/>
        <pt x="44" y="39" on="1"/>
        <pt x="97" y="48" on="0"/>
        <pt x="120" y="70" on="0"/>
        <pt x="120" y="101" on="1"/>
        <pt x="120" y="592" on="1"/>
        <pt x="120" y="623" on="0"/>
        <pt x="97" y="645" on="0"/>
        <pt x="44" y="654" on="1"/>
        <pt x="50" y="693" on="1"/>
        <pt x="295" y="693" on="1"/>
        <pt x="299" y="654" on="1"/>
        <pt x="237" y="642" on="1"/>
        <pt x="217" y="638" on="0"/>
        <pt x="217" y="616" on="1"/>
        <pt x="217" y="387" on="1"/>
        <pt x="550" y="387" on="1"/>
        <pt x="550" y="592" on="1"/>
        <pt x="550" y="623" on="0"/>
        <pt x="527" y="645" on="0"/>
        <pt x="474" y="654" on="1"/>
        <pt x="480" y="693" on="1"/>
        <pt x="725" y="693" on="1"/>
        <pt x="729" y="654" on="1"/>
        <pt x="667" y="642" on="1"/>
        <pt x="647" y="638" on="0"/>
        <pt x="647" y="616" on="1"/>
        <pt x="647" y="77" on="1"/>
        <pt x="647" y="55" on="0"/>
        <pt x="667" y="51" on="1"/>
        <pt x="729" y="39" on="1"/>
        <pt x="725" y="0" on="1"/>
        <pt x="480" y="0" on="1"/>
        <pt x="474" y="39" on="1"/>
        <pt x="527" y="48" on="0"/>
        <pt x="550" y="70" on="0"/>
        <pt x="550" y="101" on="1"/>
        <pt x="550" y="327" on="1"/>
        <pt x="217" y="327" on="1"/>
        <pt x="217" y="77" on="1"/>
        <pt x="217" y="55" on="0"/>
        <pt x="237" y="51" on="1"/>
        <pt x="299" y="39" on="1"/>
        <pt x="295" y="0" on="1"/>
      </contour>
      <contour>
        <pt x="528" y="749" on="1"/>
        <pt x="389" y="840" on="1"/>
        <pt x="250" y="749" on="1"/>
        <pt x="225" y="775" on="1"/>
        <pt x="361" y="914" on="1"/>
        <pt x="417" y="914" on="1"/>
        <pt x="553" y="775" on="1"/>
      </contour>
    </TTGlyph>
    <TTGlyph name="Hcircumflex.sc" xMin="48" yMin="0" xMax="588" yMax="765">
      <contour>
        <pt x="53" y="0" on="1"/>
        <pt x="48" y="36" on="1"/>
        <pt x="89" y="43" on="0"/>
        <pt x="107" y="60" on="0"/>
        <pt x="107" y="84" on="1"/>
        <pt x="107" y="459" on="1"/>
        <pt x="107" y="482" on="0"/>
        <pt x="91" y="494" on="0"/>
        <pt x="48" y="501" on="1"/>
        <pt x="53" y="537" on="1"/>
        <pt x="261" y="537" on="1"/>
        <pt x="264" y="501" on="1"/>
        <pt x="216" y="492" on="1"/>
        <pt x="200" y="489" on="0"/>
        <pt x="200" y="472" on="1"/>
        <pt x="200" y="311" on="1"/>
        <pt x="431" y="311" on="1"/>
        <pt x="431" y="459" on="1"/>
        <pt x="431" y="482" on="0"/>
        <pt x="415" y="494" on="0"/>
        <pt x="372" y="501" on="1"/>
        <pt x="377" y="537" on="1"/>
        <pt x="585" y="537" on="1"/>
        <pt x="588" y="501" on="1"/>
        <pt x="540" y="492" on="1"/>
        <pt x="524" y="489" on="0"/>
        <pt x="524" y="472" on="1"/>
        <pt x="524" y="65" on="1"/>
        <pt x="524" y="48" on="0"/>
        <pt x="540" y="45" on="1"/>
        <pt x="588" y="36" on="1"/>
        <pt x="585" y="0" on="1"/>
        <pt x="377" y="0" on="1"/>
        <pt x="372" y="36" on="1"/>
        <pt x="413" y="43" on="0"/>
        <pt x="431" y="60" on="0"/>
        <pt x="431" y="84" on="1"/>
        <pt x="431" y="259" on="1"/>
        <pt x="200" y="259" on="1"/>
        <pt x="200" y="65" on="1"/>
        <pt x="200" y="48" on="0"/>
        <pt x="216" y="45" on="1"/>
        <pt x="264" y="36" on="1"/>
        <pt x="261" y="0" on="1"/>
      </contour>
      <contour>
        <pt x="447" y="600" on="1"/>
        <pt x="308" y="691" on="1"/>
        <pt x="169" y="600" on="1"/>
        <pt x="144" y="626" on="1"/>
        <pt x="280" y="765" on="1"/>
        <pt x="336" y="765" on="1"/>
        <pt x="472" y="626" on="1"/>
      </contour>
    </TTGlyph>
    <TTGlyph name="I" xMin="44" yMin="0" xMax="299" yMax="693">
      <contour>
        <pt x="50" y="0" on="1"/>
        <pt x="44" y="39" on="1"/>
        <pt x="97" y="48" on="0"/>
        <pt x="120" y="70" on="0"/>
        <pt x="120" y="101" on="1"/>
        <pt x="120" y="592" on="1"/>
        <pt x="120" y="623" on="0"/>
        <pt x="97" y="645" on="0"/>
        <pt x="44" y="654" on="1"/>
        <pt x="50" y="693" on="1"/>
        <pt x="295" y="693" on="1"/>
        <pt x="299" y="654" on="1"/>
        <pt x="237" y="642" on="1"/>
        <pt x="217" y="638" on="0"/>
        <pt x="217" y="616" on="1"/>
        <pt x="217" y="77" on="1"/>
        <pt x="217" y="55" on="0"/>
        <pt x="237" y="51" on="1"/>
        <pt x="299" y="39" on="1"/>
        <pt x="295" y="0" on="1"/>
      </contour>
    </TTGlyph>
    <TTGlyph name="I.sc" xMin="48" yMin="0" xMax="264" yMax="537">
      <contour>
        <pt x="53" y="0" on="1"/>
        <pt x="48" y="36" on="1"/>
        <pt x="89" y="43" on="0"/>
        <pt x="107" y="60" on="0"/>
        <pt x="107" y="84" on="1"/>
        <pt x="107" y="453" on="1"/>
        <pt x="107" y="477" on="0"/>
        <pt x="89" y="494" on="0"/>
        <pt x="48" y="501" on="1"/>
        <pt x="53" y="537" on="1"/>
        <pt x="261" y="537" on="1"/>
        <pt x="264" y="501" on="1"/>
        <pt x="216" y="492" on="1"/>
        <pt x="200" y="489" on="0"/>
        <pt x="200" y="472" on="1"/>
        <pt x="200" y="65" on="1"/>
        <pt x="200" y="48" on="0"/>
        <pt x="216" y="45" on="1"/>
        <pt x="264" y="36" on="1"/>
        <pt x="261" y="0" on="1"/>
      </contour>
    </TTGlyph>
    <TTGlyph name="IJ" xMin="44" yMin="-119" xMax="648" yMax="693">
      <contour>
        <pt x="50" y="0" on="1"/>
        <pt x="44" y="39" on="1"/>
        <pt x="97" y="48" on="0"/>
        <pt x="120" y="70" on="0"/>
        <pt x="120" y="101" on="1"/>
        <pt x="120" y="592" on="1"/>
        <pt x="120" y="623" on="0"/>
        <pt x="97" y="645" on="0"/>
        <pt x="44" y="654" on="1"/>
        <pt x="50" y="693" on="1"/>
        <pt x="295" y="693" on="1"/>
        <pt x="299" y="654" on="1"/>
        <pt x="237" y="642" on="1"/>
        <pt x="217" y="638" on="0"/>
        <pt x="217" y="616" on="1"/>
        <pt x="217" y="77" on="1"/>
        <pt x="217" y="55" on="0"/>
        <pt x="237" y="51" on="1"/>
        <pt x="299" y="39" on="1"/>
        <pt x="295" y="0" on="1"/>
      </contour>
      <contour>
        <pt x="556" y="622" on="1"/>
        <pt x="556" y="128" on="1"/>
        <pt x="556" y="37" on="0"/>
        <pt x="453" y="-119" on="0"/>
        <pt x="399" y="-119" on="1"/>
        <pt x="356" y="-119" on="0"/>
        <pt x="316" y="-111" on="1"/>
        <pt x="313" y="-99" on="0"/>
        <pt x="313" y="-53" on="0"/>
        <pt x="332" y="-23" on="1"/>
        <pt x="379" y="-34" on="0"/>
        <pt x="417" y="-34" on="0"/>
        <pt x="430" y="-26" on="1"/>
        <pt x="459" y="-6" on="0"/>
        <pt x="459" y="158" on="1"/>
        <pt x="459" y="592" on="1"/>
        <pt x="459" y="622" on="0"/>
        <pt x="428" y="644" on="0"/>
        <pt x="373" y="654" on="1"/>
        <pt x="379" y="693" on="1"/>
        <pt x="644" y="693" on="1"/>
        <pt x="648" y="654" on="1"/>
        <pt x="576" y="642" on="1"/>
        <pt x="556" y="638" on="0"/>
      </contour>
    </TTGlyph>
    <TTGlyph name="Iacute" xMin="44" yMin="0" xMax="312" yMax="914">
      <contour>
        <pt x="50" y="0" on="1"/>
        <pt x="44" y="39" on="1"/>
        <pt x="97" y="48" on="0"/>
        <pt x="120" y="70" on="0"/>
        <pt x="120" y="101" on="1"/>
        <pt x="120" y="592" on="1"/>
        <pt x="120" y="623" on="0"/>
        <pt x="97" y="645" on="0"/>
        <pt x="44" y="654" on="1"/>
        <pt x="50" y="693" on="1"/>
        <pt x="295" y="693" on="1"/>
        <pt x="299" y="654" on="1"/>
        <pt x="237" y="642" on="1"/>
        <pt x="217" y="638" on="0"/>
        <pt x="217" y="616" on="1"/>
        <pt x="217" y="77" on="1"/>
        <pt x="217" y="55" on="0"/>
        <pt x="237" y="51" on="1"/>
        <pt x="299" y="39" on="1"/>
        <pt x="295" y="0" on="1"/>
      </contour>
      <contour>
        <pt x="312" y="863" on="1"/>
        <pt x="304" y="842" on="1"/>
        <pt x="103" y="749" on="1"/>
        <pt x="78" y="785" on="1"/>
        <pt x="252" y="914" on="1"/>
      </contour>
    </TTGlyph>
    <TTGlyph name="Iacute.sc" xMin="48" yMin="0" xMax="291" yMax="765">
      <contour>
        <pt x="53" y="0" on="1"/>
        <pt x="48" y="36" on="1"/>
        <pt x="89" y="43" on="0"/>
        <pt x="107" y="60" on="0"/>
        <pt x="107" y="84" on="1"/>
        <pt x="107" y="453" on="1"/>
        <pt x="107" y="477" on="0"/>
        <pt x="89" y="494" on="0"/>
        <pt x="48" y="501" on="1"/>
        <pt x="53" y="537" on="1"/>
        <pt x="261" y="537" on="1"/>
        <pt x="264" y="501" on="1"/>
        <pt x="216" y="492" on="1"/>
        <pt x="200" y="489" on="0"/>
        <pt x="200" y="472" on="1"/>
        <pt x="200" y="65" on="1"/>
        <pt x="200" y="48" on="0"/>
        <pt x="216" y="45" on="1"/>
        <pt x="264" y="36" on="1"/>
        <pt x="261" y="0" on="1"/>
      </contour>
      <contour>
        <pt x="291" y="714" on="1"/>
        <pt x="283" y="693" on="1"/>
        <pt x="82" y="600" on="1"/>
        <pt x="57" y="636" on="1"/>
        <pt x="231" y="765" on="1"/>
      </contour>
    </TTGlyph>
    <TTGlyph name="Ibreve" xMin="20" yMin="0" xMax="318" yMax="900">
      <contour>
        <pt x="50" y="0" on="1"/>
        <pt x="44" y="39" on="1"/>
        <pt x="97" y="48" on="0"/>
        <pt x="120" y="70" on="0"/>
        <pt x="120" y="101" on="1"/>
        <pt x="120" y="592" on="1"/>
        <pt x="120" y="623" on="0"/>
        <pt x="97" y="645" on="0"/>
        <pt x="44" y="654" on="1"/>
        <pt x="50" y="693" on="1"/>
        <pt x="295" y="693" on="1"/>
        <pt x="299" y="654" on="1"/>
        <pt x="237" y="642" on="1"/>
        <pt x="217" y="638" on="0"/>
        <pt x="217" y="616" on="1"/>
        <pt x="217" y="77" on="1"/>
        <pt x="217" y="55" on="0"/>
        <pt x="237" y="51" on="1"/>
        <pt x="299" y="39" on="1"/>
        <pt x="295" y="0" on="1"/>
      </contour>
      <contour>
        <pt x="281" y="900" on="1"/>
        <pt x="318" y="900" on="1"/>
        <pt x="314" y="838" on="0"/>
        <pt x="240" y="760" on="0"/>
        <pt x="98" y="760" on="0"/>
        <pt x="24" y="838" on="0"/>
        <pt x="20" y="900" on="1"/>
        <pt x="57" y="900" on="1"/>
        <pt x="74" y="828" on="0"/>
        <pt x="264" y="828" on="0"/>
      </contour>
    </TTGlyph>
    <TTGlyph name="Ibreve.sc" xMin="3" yMin="0" xMax="301" yMax="751">
      <contour>
        <pt x="53" y="0" on="1"/>
        <pt x="48" y="36" on="1"/>
        <pt x="89" y="43" on="0"/>
        <pt x="107" y="60" on="0"/>
        <pt x="107" y="84" on="1"/>
        <pt x="107" y="453" on="1"/>
        <pt x="107" y="477" on="0"/>
        <pt x="89" y="494" on="0"/>
        <pt x="48" y="501" on="1"/>
        <pt x="53" y="537" on="1"/>
        <pt x="261" y="537" on="1"/>
        <pt x="264" y="501" on="1"/>
        <pt x="216" y="492" on="1"/>
        <pt x="200" y="489" on="0"/>
        <pt x="200" y="472" on="1"/>
        <pt x="200" y="65" on="1"/>
        <pt x="200" y="48" on="0"/>
        <pt x="216" y="45" on="1"/>
        <pt x="264" y="36" on="1"/>
        <pt x="261" y="0" on="1"/>
      </contour>
      <contour>
        <pt x="264" y="751" on="1"/>
        <pt x="301" y="751" on="1"/>
        <pt x="297" y="689" on="0"/>
        <pt x="223" y="611" on="0"/>
        <pt x="81" y="611" on="0"/>
        <pt x="7" y="689" on="0"/>
        <pt x="3" y="751" on="1"/>
        <pt x="40" y="751" on="1"/>
        <pt x="57" y="679" on="0"/>
        <pt x="247" y="679" on="0"/>
      </contour>
    </TTGlyph>
    <TTGlyph name="Icircumflex" xMin="4" yMin="0" xMax="332" yMax="914">
      <contour>
        <pt x="50" y="0" on="1"/>
        <pt x="44" y="39" on="1"/>
        <pt x="97" y="48" on="0"/>
        <pt x="120" y="70" on="0"/>
        <pt x="120" y="101" on="1"/>
        <pt x="120" y="592" on="1"/>
        <pt x="120" y="623" on="0"/>
        <pt x="97" y="645" on="0"/>
        <pt x="44" y="654" on="1"/>
        <pt x="50" y="693" on="1"/>
        <pt x="295" y="693" on="1"/>
        <pt x="299" y="654" on="1"/>
        <pt x="237" y="642" on="1"/>
        <pt x="217" y="638" on="0"/>
        <pt x="217" y="616" on="1"/>
        <pt x="217" y="77" on="1"/>
        <pt x="217" y="55" on="0"/>
        <pt x="237" y="51" on="1"/>
        <pt x="299" y="39" on="1"/>
        <pt x="295" y="0" on="1"/>
      </contour>
      <contour>
        <pt x="307" y="749" on="1"/>
        <pt x="168" y="840" on="1"/>
        <pt x="29" y="749" on="1"/>
        <pt x="4" y="775" on="1"/>
        <pt x="140" y="914" on="1"/>
        <pt x="196" y="914" on="1"/>
        <pt x="332" y="775" on="1"/>
      </contour>
    </TTGlyph>
    <TTGlyph name="Icircumflex.sc" xMin="-6" yMin="0" xMax="322" yMax="765">
      <contour>
        <pt x="53" y="0" on="1"/>
        <pt x="48" y="36" on="1"/>
        <pt x="89" y="43" on="0"/>
        <pt x="107" y="60" on="0"/>
        <pt x="107" y="84" on="1"/>
        <pt x="107" y="453" on="1"/>
        <pt x="107" y="477" on="0"/>
        <pt x="89" y="494" on="0"/>
        <pt x="48" y="501" on="1"/>
        <pt x="53" y="537" on="1"/>
        <pt x="261" y="537" on="1"/>
        <pt x="264" y="501" on="1"/>
        <pt x="216" y="492" on="1"/>
        <pt x="200" y="489" on="0"/>
        <pt x="200" y="472" on="1"/>
        <pt x="200" y="65" on="1"/>
        <pt x="200" y="48" on="0"/>
        <pt x="216" y="45" on="1"/>
        <pt x="264" y="36" on="1"/>
        <pt x="261" y="0" on="1"/>
      </contour>
      <contour>
        <pt x="297" y="600" on="1"/>
        <pt x="158" y="691" on="1"/>
        <pt x="19" y="600" on="1"/>
        <pt x="-6" y="626" on="1"/>
        <pt x="130" y="765" on="1"/>
        <pt x="186" y="765" on="1"/>
        <pt x="322" y="626" on="1"/>
      </contour>
    </TTGlyph>
    <TTGlyph name="Idieresis" xMin="19" yMin="0" xMax="317" yMax="885">
      <contour>
        <pt x="50" y="0" on="1"/>
        <pt x="44" y="39" on="1"/>
        <pt x="97" y="48" on="0"/>
        <pt x="120" y="70" on="0"/>
        <pt x="120" y="101" on="1"/>
        <pt x="120" y="592" on="1"/>
        <pt x="120" y="623" on="0"/>
        <pt x="97" y="645" on="0"/>
        <pt x="44" y="654" on="1"/>
        <pt x="50" y="693" on="1"/>
        <pt x="295" y="693" on="1"/>
        <pt x="299" y="654" on="1"/>
        <pt x="237" y="642" on="1"/>
        <pt x="217" y="638" on="0"/>
        <pt x="217" y="616" on="1"/>
        <pt x="217" y="77" on="1"/>
        <pt x="217" y="55" on="0"/>
        <pt x="237" y="51" on="1"/>
        <pt x="299" y="39" on="1"/>
        <pt x="295" y="0" on="1"/>
      </contour>
      <contour>
        <pt x="264" y="775" on="1"/>
        <pt x="212" y="775" on="0"/>
        <pt x="212" y="831" on="1"/>
        <pt x="212" y="853" on="0"/>
        <pt x="241" y="885" on="0"/>
        <pt x="264" y="885" on="1"/>
        <pt x="317" y="885" on="0"/>
        <pt x="317" y="831" on="1"/>
        <pt x="317" y="808" on="0"/>
        <pt x="287" y="775" on="0"/>
      </contour>
      <contour>
        <pt x="71" y="775" on="1"/>
        <pt x="19" y="775" on="0"/>
        <pt x="19" y="831" on="1"/>
        <pt x="19" y="853" on="0"/>
        <pt x="48" y="885" on="0"/>
        <pt x="71" y="885" on="1"/>
        <pt x="124" y="885" on="0"/>
        <pt x="124" y="831" on="1"/>
        <pt x="124" y="808" on="0"/>
        <pt x="94" y="775" on="0"/>
      </contour>
    </TTGlyph>
    <TTGlyph name="Idieresis.sc" xMin="8" yMin="0" xMax="306" yMax="736">
      <contour>
        <pt x="53" y="0" on="1"/>
        <pt x="48" y="36" on="1"/>
        <pt x="89" y="43" on="0"/>
        <pt x="107" y="60" on="0"/>
        <pt x="107" y="84" on="1"/>
        <pt x="107" y="453" on="1"/>
        <pt x="107" y="477" on="0"/>
        <pt x="89" y="494" on="0"/>
        <pt x="48" y="501" on="1"/>
        <pt x="53" y="537" on="1"/>
        <pt x="261" y="537" on="1"/>
        <pt x="264" y="501" on="1"/>
        <pt x="216" y="492" on="1"/>
        <pt x="200" y="489" on="0"/>
        <pt x="200" y="472" on="1"/>
        <pt x="200" y="65" on="1"/>
        <pt x="200" y="48" on="0"/>
        <pt x="216" y="45" on="1"/>
        <pt x="264" y="36" on="1"/>
        <pt x="261" y="0" on="1"/>
      </contour>
      <contour>
        <pt x="253" y="626" on="1"/>
        <pt x="201" y="626" on="0"/>
        <pt x="201" y="682" on="1"/>
        <pt x="201" y="704" on="0"/>
        <pt x="230" y="736" on="0"/>
        <pt x="253" y="736" on="1"/>
        <pt x="306" y="736" on="0"/>
        <pt x="306" y="682" on="1"/>
        <pt x="306" y="659" on="0"/>
        <pt x="276" y="626" on="0"/>
      </contour>
      <contour>
        <pt x="60" y="626" on="1"/>
        <pt x="8" y="626" on="0"/>
        <pt x="8" y="682" on="1"/>
        <pt x="8" y="704" on="0"/>
        <pt x="37" y="736" on="0"/>
        <pt x="60" y="736" on="1"/>
        <pt x="113" y="736" on="0"/>
        <pt x="113" y="682" on="1"/>
        <pt x="113" y="659" on="0"/>
        <pt x="83" y="626" on="0"/>
      </contour>
    </TTGlyph>
    <TTGlyph name="Igrave" xMin="7" yMin="0" xMax="299" yMax="914">
      <contour>
        <pt x="50" y="0" on="1"/>
        <pt x="44" y="39" on="1"/>
        <pt x="97" y="48" on="0"/>
        <pt x="120" y="70" on="0"/>
        <pt x="120" y="101" on="1"/>
        <pt x="120" y="592" on="1"/>
        <pt x="120" y="623" on="0"/>
        <pt x="97" y="645" on="0"/>
        <pt x="44" y="654" on="1"/>
        <pt x="50" y="693" on="1"/>
        <pt x="295" y="693" on="1"/>
        <pt x="299" y="654" on="1"/>
        <pt x="237" y="642" on="1"/>
        <pt x="217" y="638" on="0"/>
        <pt x="217" y="616" on="1"/>
        <pt x="217" y="77" on="1"/>
        <pt x="217" y="55" on="0"/>
        <pt x="237" y="51" on="1"/>
        <pt x="299" y="39" on="1"/>
        <pt x="295" y="0" on="1"/>
      </contour>
      <contour>
        <pt x="15" y="842" on="1"/>
        <pt x="7" y="863" on="1"/>
        <pt x="67" y="914" on="1"/>
        <pt x="241" y="785" on="1"/>
        <pt x="216" y="749" on="1"/>
      </contour>
    </TTGlyph>
    <TTGlyph name="Igrave.sc" xMin="0" yMin="0" xMax="264" yMax="765">
      <contour>
        <pt x="53" y="0" on="1"/>
        <pt x="48" y="36" on="1"/>
        <pt x="89" y="43" on="0"/>
        <pt x="107" y="60" on="0"/>
        <pt x="107" y="84" on="1"/>
        <pt x="107" y="453" on="1"/>
        <pt x="107" y="477" on="0"/>
        <pt x="89" y="494" on="0"/>
        <pt x="48" y="501" on="1"/>
        <pt x="53" y="537" on="1"/>
        <pt x="261" y="537" on="1"/>
        <pt x="264" y="501" on="1"/>
        <pt x="216" y="492" on="1"/>
        <pt x="200" y="489" on="0"/>
        <pt x="200" y="472" on="1"/>
        <pt x="200" y="65" on="1"/>
        <pt x="200" y="48" on="0"/>
        <pt x="216" y="45" on="1"/>
        <pt x="264" y="36" on="1"/>
        <pt x="261" y="0" on="1"/>
      </contour>
      <contour>
        <pt x="8" y="693" on="1"/>
        <pt x="0" y="714" on="1"/>
        <pt x="60" y="765" on="1"/>
        <pt x="234" y="636" on="1"/>
        <pt x="209" y="600" on="1"/>
      </contour>
    </TTGlyph>
    <TTGlyph name="Imacron" xMin="44" yMin="0" xMax="299" yMax="836">
      <contour>
        <pt x="46" y="776" on="1"/>
        <pt x="46" y="836" on="1"/>
        <pt x="295" y="836" on="1"/>
        <pt x="295" y="776" on="1"/>
      </contour>
      <contour>
        <pt x="50" y="0" on="1"/>
        <pt x="44" y="39" on="1"/>
        <pt x="97" y="48" on="0"/>
        <pt x="120" y="70" on="0"/>
        <pt x="120" y="101" on="1"/>
        <pt x="120" y="592" on="1"/>
        <pt x="120" y="623" on="0"/>
        <pt x="97" y="645" on="0"/>
        <pt x="44" y="654" on="1"/>
        <pt x="50" y="693" on="1"/>
        <pt x="295" y="693" on="1"/>
        <pt x="299" y="654" on="1"/>
        <pt x="237" y="642" on="1"/>
        <pt x="217" y="638" on="0"/>
        <pt x="217" y="616" on="1"/>
        <pt x="217" y="77" on="1"/>
        <pt x="217" y="55" on="0"/>
        <pt x="237" y="51" on="1"/>
        <pt x="299" y="39" on="1"/>
        <pt x="295" y="0" on="1"/>
      </contour>
    </TTGlyph>
    <TTGlyph name="Imacron.sc" xMin="32" yMin="0" xMax="281" yMax="710">
      <contour>
        <pt x="53" y="0" on="1"/>
        <pt x="48" y="36" on="1"/>
        <pt x="89" y="43" on="0"/>
        <pt x="107" y="60" on="0"/>
        <pt x="107" y="84" on="1"/>
        <pt x="107" y="453" on="1"/>
        <pt x="107" y="477" on="0"/>
        <pt x="89" y="494" on="0"/>
        <pt x="48" y="501" on="1"/>
        <pt x="53" y="537" on="1"/>
        <pt x="261" y="537" on="1"/>
        <pt x="264" y="501" on="1"/>
        <pt x="216" y="492" on="1"/>
        <pt x="200" y="489" on="0"/>
        <pt x="200" y="472" on="1"/>
        <pt x="200" y="65" on="1"/>
        <pt x="200" y="48" on="0"/>
        <pt x="216" y="45" on="1"/>
        <pt x="264" y="36" on="1"/>
        <pt x="261" y="0" on="1"/>
      </contour>
      <contour>
        <pt x="32" y="650" on="1"/>
        <pt x="32" y="710" on="1"/>
        <pt x="281" y="710" on="1"/>
        <pt x="281" y="650" on="1"/>
      </contour>
    </TTGlyph>
    <TTGlyph name="Iogonek" xMin="44" yMin="-215" xMax="299" yMax="693">
      <contour>
        <pt x="262" y="-169" on="1"/>
        <pt x="211" y="-215" on="0"/>
        <pt x="152" y="-215" on="1"/>
        <pt x="113" y="-215" on="0"/>
        <pt x="54" y="-164" on="0"/>
        <pt x="54" y="-125" on="1"/>
        <pt x="54" y="-67" on="0"/>
        <pt x="115" y="-20" on="1"/>
        <pt x="130" y="-9" on="0"/>
        <pt x="148" y="0" on="1"/>
        <pt x="50" y="0" on="1"/>
        <pt x="44" y="39" on="1"/>
        <pt x="97" y="48" on="0"/>
        <pt x="120" y="70" on="0"/>
        <pt x="120" y="101" on="1"/>
        <pt x="120" y="592" on="1"/>
        <pt x="120" y="623" on="0"/>
        <pt x="97" y="645" on="0"/>
        <pt x="44" y="654" on="1"/>
        <pt x="50" y="693" on="1"/>
        <pt x="295" y="693" on="1"/>
        <pt x="299" y="654" on="1"/>
        <pt x="237" y="642" on="1"/>
        <pt x="217" y="638" on="0"/>
        <pt x="217" y="616" on="1"/>
        <pt x="217" y="77" on="1"/>
        <pt x="217" y="55" on="0"/>
        <pt x="237" y="51" on="1"/>
        <pt x="299" y="39" on="1"/>
        <pt x="295" y="0" on="1"/>
        <pt x="277" y="0" on="1"/>
        <pt x="217" y="-2" on="0"/>
        <pt x="135" y="-61" on="0"/>
        <pt x="135" y="-105" on="1"/>
        <pt x="135" y="-131" on="0"/>
        <pt x="166" y="-159" on="0"/>
        <pt x="221" y="-159" on="0"/>
        <pt x="250" y="-149" on="1"/>
      </contour>
    </TTGlyph>
    <TTGlyph name="Iogonek.sc" xMin="42" yMin="-212" xMax="264" yMax="537">
      <contour>
        <pt x="53" y="0" on="1"/>
        <pt x="48" y="36" on="1"/>
        <pt x="89" y="43" on="0"/>
        <pt x="107" y="60" on="0"/>
        <pt x="107" y="84" on="1"/>
        <pt x="107" y="453" on="1"/>
        <pt x="107" y="477" on="0"/>
        <pt x="89" y="494" on="0"/>
        <pt x="48" y="501" on="1"/>
        <pt x="53" y="537" on="1"/>
        <pt x="261" y="537" on="1"/>
        <pt x="264" y="501" on="1"/>
        <pt x="216" y="492" on="1"/>
        <pt x="200" y="489" on="0"/>
        <pt x="200" y="472" on="1"/>
        <pt x="200" y="65" on="1"/>
        <pt x="200" y="48" on="0"/>
        <pt x="216" y="45" on="1"/>
        <pt x="264" y="36" on="1"/>
        <pt x="261" y="0" on="1"/>
      </contour>
      <contour>
        <pt x="223" y="-171" on="1"/>
        <pt x="178" y="-212" on="0"/>
        <pt x="92" y="-212" on="0"/>
        <pt x="42" y="-163" on="0"/>
        <pt x="42" y="-77" on="0"/>
        <pt x="124" y="8" on="0"/>
        <pt x="204" y="33" on="1"/>
        <pt x="215" y="13" on="1"/>
        <pt x="109" y="-39" on="0"/>
        <pt x="109" y="-111" on="1"/>
        <pt x="109" y="-134" on="0"/>
        <pt x="136" y="-162" on="0"/>
        <pt x="187" y="-162" on="0"/>
        <pt x="212" y="-153" on="1"/>
      </contour>
    </TTGlyph>
    <TTGlyph name="Itilde" xMin="-5" yMin="0" xMax="356" yMax="891">
      <contour>
        <pt x="50" y="0" on="1"/>
        <pt x="44" y="39" on="1"/>
        <pt x="97" y="48" on="0"/>
        <pt x="120" y="70" on="0"/>
        <pt x="120" y="101" on="1"/>
        <pt x="120" y="592" on="1"/>
        <pt x="120" y="623" on="0"/>
        <pt x="97" y="645" on="0"/>
        <pt x="44" y="654" on="1"/>
        <pt x="50" y="693" on="1"/>
        <pt x="295" y="693" on="1"/>
        <pt x="299" y="654" on="1"/>
        <pt x="237" y="642" on="1"/>
        <pt x="217" y="638" on="0"/>
        <pt x="217" y="616" on="1"/>
        <pt x="217" y="77" on="1"/>
        <pt x="217" y="55" on="0"/>
        <pt x="237" y="51" on="1"/>
        <pt x="299" y="39" on="1"/>
        <pt x="295" y="0" on="1"/>
      </contour>
      <contour>
        <pt x="331" y="891" on="1"/>
        <pt x="356" y="879" on="1"/>
        <pt x="335" y="833" on="0"/>
        <pt x="292" y="778" on="0"/>
        <pt x="247" y="778" on="0"/>
        <pt x="114" y="805" on="0"/>
        <pt x="90" y="805" on="1"/>
        <pt x="52" y="805" on="0"/>
        <pt x="18" y="771" on="1"/>
        <pt x="-5" y="787" on="1"/>
        <pt x="27" y="840" on="0"/>
        <pt x="73" y="883" on="0"/>
        <pt x="119" y="883" on="0"/>
        <pt x="248" y="856" on="0"/>
        <pt x="298" y="856" on="0"/>
      </contour>
    </TTGlyph>
    <TTGlyph name="Itilde.sc" xMin="-27" yMin="0" xMax="334" yMax="742">
      <contour>
        <pt x="53" y="0" on="1"/>
        <pt x="48" y="36" on="1"/>
        <pt x="89" y="43" on="0"/>
        <pt x="107" y="60" on="0"/>
        <pt x="107" y="84" on="1"/>
        <pt x="107" y="453" on="1"/>
        <pt x="107" y="477" on="0"/>
        <pt x="89" y="494" on="0"/>
        <pt x="48" y="501" on="1"/>
        <pt x="53" y="537" on="1"/>
        <pt x="261" y="537" on="1"/>
        <pt x="264" y="501" on="1"/>
        <pt x="216" y="492" on="1"/>
        <pt x="200" y="489" on="0"/>
        <pt x="200" y="472" on="1"/>
        <pt x="200" y="65" on="1"/>
        <pt x="200" y="48" on="0"/>
        <pt x="216" y="45" on="1"/>
        <pt x="264" y="36" on="1"/>
        <pt x="261" y="0" on="1"/>
      </contour>
      <contour>
        <pt x="309" y="742" on="1"/>
        <pt x="334" y="730" on="1"/>
        <pt x="313" y="684" on="0"/>
        <pt x="270" y="629" on="0"/>
        <pt x="225" y="629" on="0"/>
        <pt x="92" y="656" on="0"/>
        <pt x="68" y="656" on="1"/>
        <pt x="30" y="656" on="0"/>
        <pt x="-4" y="622" on="1"/>
        <pt x="-27" y="638" on="1"/>
        <pt x="5" y="691" on="0"/>
        <pt x="51" y="734" on="0"/>
        <pt x="97" y="734" on="0"/>
        <pt x="226" y="707" on="0"/>
        <pt x="276" y="707" on="0"/>
      </contour>
    </TTGlyph>
    <TTGlyph name="J" xMin="-24" yMin="-119" xMax="311" yMax="693">
      <contour>
        <pt x="219" y="622" on="1"/>
        <pt x="219" y="128" on="1"/>
        <pt x="219" y="37" on="0"/>
        <pt x="116" y="-119" on="0"/>
        <pt x="62" y="-119" on="1"/>
        <pt x="19" y="-119" on="0"/>
        <pt x="-21" y="-111" on="1"/>
        <pt x="-24" y="-99" on="0"/>
        <pt x="-24" y="-53" on="0"/>
        <pt x="-5" y="-23" on="1"/>
        <pt x="42" y="-34" on="0"/>
        <pt x="80" y="-34" on="0"/>
        <pt x="93" y="-26" on="1"/>
        <pt x="122" y="-6" on="0"/>
        <pt x="122" y="158" on="1"/>
        <pt x="122" y="592" on="1"/>
        <pt x="122" y="622" on="0"/>
        <pt x="91" y="644" on="0"/>
        <pt x="36" y="654" on="1"/>
        <pt x="42" y="693" on="1"/>
        <pt x="307" y="693" on="1"/>
        <pt x="311" y="654" on="1"/>
        <pt x="239" y="642" on="1"/>
        <pt x="219" y="638" on="0"/>
      </contour>
    </TTGlyph>
    <TTGlyph name="J.sc" xMin="-6" yMin="-102" xMax="273" yMax="537">
      <contour>
        <pt x="201" y="477" on="1"/>
        <pt x="201" y="99" on="1"/>
        <pt x="201" y="25" on="0"/>
        <pt x="113" y="-102" on="0"/>
        <pt x="25" y="-102" on="0"/>
        <pt x="-4" y="-95" on="1"/>
        <pt x="-6" y="-89" on="0"/>
        <pt x="-6" y="-43" on="0"/>
        <pt x="10" y="-18" on="1"/>
        <pt x="45" y="-27" on="0"/>
        <pt x="76" y="-27" on="0"/>
        <pt x="85" y="-21" on="1"/>
        <pt x="108" y="-5" on="0"/>
        <pt x="108" y="126" on="1"/>
        <pt x="108" y="454" on="1"/>
        <pt x="108" y="477" on="0"/>
        <pt x="84" y="495" on="0"/>
        <pt x="41" y="502" on="1"/>
        <pt x="46" y="537" on="1"/>
        <pt x="270" y="537" on="1"/>
        <pt x="273" y="502" on="1"/>
        <pt x="217" y="492" on="1"/>
        <pt x="201" y="489" on="0"/>
      </contour>
    </TTGlyph>
    <TTGlyph name="Jcircumflex" xMin="-24" yMin="-119" xMax="336" yMax="914">
      <contour>
        <pt x="219" y="622" on="1"/>
        <pt x="219" y="128" on="1"/>
        <pt x="219" y="37" on="0"/>
        <pt x="116" y="-119" on="0"/>
        <pt x="62" y="-119" on="1"/>
        <pt x="19" y="-119" on="0"/>
        <pt x="-21" y="-111" on="1"/>
        <pt x="-24" y="-99" on="0"/>
        <pt x="-24" y="-53" on="0"/>
        <pt x="-5" y="-23" on="1"/>
        <pt x="42" y="-34" on="0"/>
        <pt x="80" y="-34" on="0"/>
        <pt x="93" y="-26" on="1"/>
        <pt x="122" y="-6" on="0"/>
        <pt x="122" y="158" on="1"/>
        <pt x="122" y="592" on="1"/>
        <pt x="122" y="622" on="0"/>
        <pt x="91" y="644" on="0"/>
        <pt x="36" y="654" on="1"/>
        <pt x="42" y="693" on="1"/>
        <pt x="307" y="693" on="1"/>
        <pt x="311" y="654" on="1"/>
        <pt x="239" y="642" on="1"/>
        <pt x="219" y="638" on="0"/>
      </contour>
      <contour>
        <pt x="311" y="749" on="1"/>
        <pt x="172" y="840" on="1"/>
        <pt x="33" y="749" on="1"/>
        <pt x="8" y="775" on="1"/>
        <pt x="144" y="914" on="1"/>
        <pt x="200" y="914" on="1"/>
        <pt x="336" y="775" on="1"/>
      </contour>
    </TTGlyph>
    <TTGlyph name="K" xMin="44" yMin="0" xMax="652" yMax="693">
      <contour>
        <pt x="50" y="0" on="1"/>
        <pt x="44" y="39" on="1"/>
        <pt x="97" y="48" on="0"/>
        <pt x="120" y="70" on="0"/>
        <pt x="120" y="101" on="1"/>
        <pt x="120" y="592" on="1"/>
        <pt x="120" y="623" on="0"/>
        <pt x="97" y="645" on="0"/>
        <pt x="44" y="654" on="1"/>
        <pt x="50" y="693" on="1"/>
        <pt x="295" y="693" on="1"/>
        <pt x="299" y="654" on="1"/>
        <pt x="237" y="642" on="1"/>
        <pt x="217" y="638" on="0"/>
        <pt x="217" y="616" on="1"/>
        <pt x="217" y="352" on="1"/>
        <pt x="458" y="608" on="1"/>
        <pt x="473" y="623" on="0"/>
        <pt x="473" y="632" on="1"/>
        <pt x="473" y="650" on="0"/>
        <pt x="397" y="653" on="1"/>
        <pt x="403" y="693" on="1"/>
        <pt x="615" y="693" on="1"/>
        <pt x="619" y="651" on="1"/>
        <pt x="583" y="651" on="0"/>
        <pt x="558" y="626" on="1"/>
        <pt x="555" y="623" on="0"/>
        <pt x="542" y="609" on="0"/>
        <pt x="541" y="608" on="1"/>
        <pt x="319" y="372" on="1"/>
        <pt x="560" y="80" on="1"/>
        <pt x="576" y="60" on="0"/>
        <pt x="615" y="42" on="0"/>
        <pt x="652" y="39" on="1"/>
        <pt x="646" y="0" on="1"/>
        <pt x="494" y="0" on="1"/>
        <pt x="251" y="299" on="1"/>
        <pt x="217" y="263" on="1"/>
        <pt x="217" y="77" on="1"/>
        <pt x="217" y="55" on="0"/>
        <pt x="237" y="51" on="1"/>
        <pt x="292" y="39" on="1"/>
        <pt x="288" y="0" on="1"/>
      </contour>
    </TTGlyph>
    <TTGlyph name="K.sc" xMin="48" yMin="0" xMax="540" yMax="537">
      <contour>
        <pt x="200" y="472" on="1"/>
        <pt x="200" y="280" on="1"/>
        <pt x="375" y="465" on="1"/>
        <pt x="387" y="477" on="0"/>
        <pt x="387" y="483" on="1"/>
        <pt x="387" y="498" on="0"/>
        <pt x="327" y="501" on="1"/>
        <pt x="332" y="537" on="1"/>
        <pt x="507" y="537" on="1"/>
        <pt x="510" y="499" on="1"/>
        <pt x="473" y="497" on="0"/>
        <pt x="449" y="473" on="1"/>
        <pt x="298" y="313" on="1"/>
        <pt x="468" y="68" on="1"/>
        <pt x="479" y="52" on="0"/>
        <pt x="509" y="38" on="0"/>
        <pt x="540" y="36" on="1"/>
        <pt x="535" y="0" on="1"/>
        <pt x="397" y="0" on="1"/>
        <pt x="232" y="245" on="1"/>
        <pt x="200" y="211" on="1"/>
        <pt x="200" y="65" on="1"/>
        <pt x="200" y="48" on="0"/>
        <pt x="216" y="45" on="1"/>
        <pt x="259" y="36" on="1"/>
        <pt x="256" y="0" on="1"/>
        <pt x="53" y="0" on="1"/>
        <pt x="48" y="36" on="1"/>
        <pt x="89" y="43" on="0"/>
        <pt x="107" y="60" on="0"/>
        <pt x="107" y="84" on="1"/>
        <pt x="107" y="453" on="1"/>
        <pt x="107" y="477" on="0"/>
        <pt x="89" y="494" on="0"/>
        <pt x="48" y="501" on="1"/>
        <pt x="53" y="537" on="1"/>
        <pt x="261" y="537" on="1"/>
        <pt x="264" y="501" on="1"/>
        <pt x="216" y="492" on="1"/>
        <pt x="200" y="489" on="0"/>
      </contour>
    </TTGlyph>
    <TTGlyph name="L" xMin="44" yMin="0" xMax="548" yMax="693">
      <contour>
        <pt x="50" y="0" on="1"/>
        <pt x="44" y="39" on="1"/>
        <pt x="97" y="48" on="0"/>
        <pt x="120" y="70" on="0"/>
        <pt x="120" y="101" on="1"/>
        <pt x="120" y="592" on="1"/>
        <pt x="120" y="623" on="0"/>
        <pt x="97" y="645" on="0"/>
        <pt x="44" y="654" on="1"/>
        <pt x="50" y="693" on="1"/>
        <pt x="295" y="693" on="1"/>
        <pt x="299" y="654" on="1"/>
        <pt x="237" y="642" on="1"/>
        <pt x="217" y="638" on="0"/>
        <pt x="217" y="616" on="1"/>
        <pt x="217" y="51" on="1"/>
        <pt x="306" y="52" on="1"/>
        <pt x="417" y="54" on="0"/>
        <pt x="436" y="59" on="1"/>
        <pt x="452" y="64" on="0"/>
        <pt x="492" y="213" on="1"/>
        <pt x="547" y="208" on="1"/>
        <pt x="548" y="191" on="0"/>
        <pt x="548" y="86" on="0"/>
        <pt x="537" y="0" on="1"/>
      </contour>
    </TTGlyph>
    <TTGlyph name="L.sc" xMin="48" yMin="0" xMax="442" yMax="537">
      <contour>
        <pt x="53" y="0" on="1"/>
        <pt x="48" y="36" on="1"/>
        <pt x="89" y="43" on="0"/>
        <pt x="107" y="60" on="0"/>
        <pt x="107" y="84" on="1"/>
        <pt x="107" y="453" on="1"/>
        <pt x="107" y="477" on="0"/>
        <pt x="89" y="494" on="0"/>
        <pt x="48" y="501" on="1"/>
        <pt x="53" y="537" on="1"/>
        <pt x="261" y="537" on="1"/>
        <pt x="264" y="501" on="1"/>
        <pt x="216" y="492" on="1"/>
        <pt x="200" y="489" on="0"/>
        <pt x="200" y="472" on="1"/>
        <pt x="200" y="45" on="1"/>
        <pt x="262" y="46" on="1"/>
        <pt x="344" y="47" on="0"/>
        <pt x="371" y="56" on="0"/>
        <pt x="393" y="171" on="1"/>
        <pt x="441" y="167" on="1"/>
        <pt x="442" y="154" on="0"/>
        <pt x="442" y="80" on="0"/>
        <pt x="434" y="0" on="1"/>
      </contour>
    </TTGlyph>
    <TTGlyph name="Lacute" xMin="44" yMin="0" xMax="548" yMax="914">
      <contour>
        <pt x="50" y="0" on="1"/>
        <pt x="44" y="39" on="1"/>
        <pt x="97" y="48" on="0"/>
        <pt x="120" y="70" on="0"/>
        <pt x="120" y="101" on="1"/>
        <pt x="120" y="592" on="1"/>
        <pt x="120" y="623" on="0"/>
        <pt x="97" y="645" on="0"/>
        <pt x="44" y="654" on="1"/>
        <pt x="50" y="693" on="1"/>
        <pt x="295" y="693" on="1"/>
        <pt x="299" y="654" on="1"/>
        <pt x="237" y="642" on="1"/>
        <pt x="217" y="638" on="0"/>
        <pt x="217" y="616" on="1"/>
        <pt x="217" y="51" on="1"/>
        <pt x="306" y="52" on="1"/>
        <pt x="417" y="54" on="0"/>
        <pt x="436" y="59" on="1"/>
        <pt x="452" y="64" on="0"/>
        <pt x="492" y="213" on="1"/>
        <pt x="547" y="208" on="1"/>
        <pt x="548" y="191" on="0"/>
        <pt x="548" y="86" on="0"/>
        <pt x="537" y="0" on="1"/>
      </contour>
      <contour>
        <pt x="340" y="863" on="1"/>
        <pt x="332" y="842" on="1"/>
        <pt x="131" y="749" on="1"/>
        <pt x="106" y="785" on="1"/>
        <pt x="280" y="914" on="1"/>
      </contour>
    </TTGlyph>
    <TTGlyph name="Lacute.sc" xMin="48" yMin="0" xMax="442" yMax="765">
      <contour>
        <pt x="53" y="0" on="1"/>
        <pt x="48" y="36" on="1"/>
        <pt x="89" y="43" on="0"/>
        <pt x="107" y="60" on="0"/>
        <pt x="107" y="84" on="1"/>
        <pt x="107" y="453" on="1"/>
        <pt x="107" y="477" on="0"/>
        <pt x="89" y="494" on="0"/>
        <pt x="48" y="501" on="1"/>
        <pt x="53" y="537" on="1"/>
        <pt x="261" y="537" on="1"/>
        <pt x="264" y="501" on="1"/>
        <pt x="216" y="492" on="1"/>
        <pt x="200" y="489" on="0"/>
        <pt x="200" y="472" on="1"/>
        <pt x="200" y="45" on="1"/>
        <pt x="262" y="46" on="1"/>
        <pt x="344" y="47" on="0"/>
        <pt x="371" y="56" on="0"/>
        <pt x="393" y="171" on="1"/>
        <pt x="441" y="167" on="1"/>
        <pt x="442" y="154" on="0"/>
        <pt x="442" y="80" on="0"/>
        <pt x="434" y="0" on="1"/>
      </contour>
      <contour>
        <pt x="303" y="714" on="1"/>
        <pt x="295" y="693" on="1"/>
        <pt x="94" y="600" on="1"/>
        <pt x="69" y="636" on="1"/>
        <pt x="243" y="765" on="1"/>
      </contour>
    </TTGlyph>
    <TTGlyph name="Lcaron" xMin="44" yMin="0" xMax="548" yMax="774">
      <contour>
        <pt x="50" y="0" on="1"/>
        <pt x="44" y="39" on="1"/>
        <pt x="97" y="48" on="0"/>
        <pt x="120" y="70" on="0"/>
        <pt x="120" y="101" on="1"/>
        <pt x="120" y="592" on="1"/>
        <pt x="120" y="623" on="0"/>
        <pt x="97" y="645" on="0"/>
        <pt x="44" y="654" on="1"/>
        <pt x="50" y="693" on="1"/>
        <pt x="295" y="693" on="1"/>
        <pt x="299" y="654" on="1"/>
        <pt x="237" y="642" on="1"/>
        <pt x="217" y="638" on="0"/>
        <pt x="217" y="616" on="1"/>
        <pt x="217" y="51" on="1"/>
        <pt x="306" y="52" on="1"/>
        <pt x="417" y="54" on="0"/>
        <pt x="436" y="59" on="1"/>
        <pt x="452" y="64" on="0"/>
        <pt x="492" y="213" on="1"/>
        <pt x="547" y="208" on="1"/>
        <pt x="548" y="191" on="0"/>
        <pt x="548" y="86" on="0"/>
        <pt x="537" y="0" on="1"/>
      </contour>
      <contour>
        <pt x="450" y="774" on="1"/>
        <pt x="462" y="755" on="1"/>
        <pt x="453" y="659" on="0"/>
        <pt x="397" y="577" on="1"/>
        <pt x="355" y="591" on="1"/>
        <pt x="369" y="644" on="0"/>
        <pt x="369" y="725" on="0"/>
        <pt x="365" y="752" on="1"/>
      </contour>
    </TTGlyph>
    <TTGlyph name="Lcaron.sc" xMin="24" yMin="0" xMax="442" yMax="768">
      <contour>
        <pt x="53" y="0" on="1"/>
        <pt x="48" y="36" on="1"/>
        <pt x="89" y="43" on="0"/>
        <pt x="107" y="60" on="0"/>
        <pt x="107" y="84" on="1"/>
        <pt x="107" y="453" on="1"/>
        <pt x="107" y="477" on="0"/>
        <pt x="89" y="494" on="0"/>
        <pt x="48" y="501" on="1"/>
        <pt x="53" y="537" on="1"/>
        <pt x="261" y="537" on="1"/>
        <pt x="264" y="501" on="1"/>
        <pt x="216" y="492" on="1"/>
        <pt x="200" y="489" on="0"/>
        <pt x="200" y="472" on="1"/>
        <pt x="200" y="45" on="1"/>
        <pt x="262" y="46" on="1"/>
        <pt x="344" y="47" on="0"/>
        <pt x="371" y="56" on="0"/>
        <pt x="393" y="171" on="1"/>
        <pt x="441" y="167" on="1"/>
        <pt x="442" y="154" on="0"/>
        <pt x="442" y="80" on="0"/>
        <pt x="434" y="0" on="1"/>
      </contour>
      <contour>
        <pt x="49" y="768" on="1"/>
        <pt x="188" y="677" on="1"/>
        <pt x="327" y="768" on="1"/>
        <pt x="352" y="742" on="1"/>
        <pt x="216" y="603" on="1"/>
        <pt x="160" y="603" on="1"/>
        <pt x="24" y="742" on="1"/>
      </contour>
    </TTGlyph>
    <TTGlyph name="Ldot.sc" xMin="48" yMin="0" xMax="442" yMax="537">
      <contour>
        <pt x="53" y="0" on="1"/>
        <pt x="48" y="36" on="1"/>
        <pt x="89" y="43" on="0"/>
        <pt x="107" y="60" on="0"/>
        <pt x="107" y="84" on="1"/>
        <pt x="107" y="453" on="1"/>
        <pt x="107" y="477" on="0"/>
        <pt x="89" y="494" on="0"/>
        <pt x="48" y="501" on="1"/>
        <pt x="53" y="537" on="1"/>
        <pt x="261" y="537" on="1"/>
        <pt x="264" y="501" on="1"/>
        <pt x="216" y="492" on="1"/>
        <pt x="200" y="489" on="0"/>
        <pt x="200" y="472" on="1"/>
        <pt x="200" y="45" on="1"/>
        <pt x="262" y="46" on="1"/>
        <pt x="344" y="47" on="0"/>
        <pt x="371" y="56" on="0"/>
        <pt x="393" y="171" on="1"/>
        <pt x="441" y="167" on="1"/>
        <pt x="442" y="154" on="0"/>
        <pt x="442" y="80" on="0"/>
        <pt x="434" y="0" on="1"/>
      </contour>
      <contour>
        <pt x="402" y="298" on="0"/>
        <pt x="371" y="264" on="0"/>
        <pt x="320" y="264" on="0"/>
        <pt x="287" y="294" on="0"/>
        <pt x="287" y="347" on="0"/>
        <pt x="318" y="379" on="0"/>
        <pt x="345" y="379" on="1"/>
        <pt x="402" y="379" on="0"/>
        <pt x="402" y="323" on="1"/>
      </contour>
    </TTGlyph>
    <TTGlyph name="Ldotaccent" xMin="44" yMin="0" xMax="548" yMax="693">
      <contour>
        <pt x="50" y="0" on="1"/>
        <pt x="44" y="39" on="1"/>
        <pt x="97" y="48" on="0"/>
        <pt x="120" y="70" on="0"/>
        <pt x="120" y="101" on="1"/>
        <pt x="120" y="592" on="1"/>
        <pt x="120" y="623" on="0"/>
        <pt x="97" y="645" on="0"/>
        <pt x="44" y="654" on="1"/>
        <pt x="50" y="693" on="1"/>
        <pt x="295" y="693" on="1"/>
        <pt x="299" y="654" on="1"/>
        <pt x="237" y="642" on="1"/>
        <pt x="217" y="638" on="0"/>
        <pt x="217" y="616" on="1"/>
        <pt x="217" y="51" on="1"/>
        <pt x="306" y="52" on="1"/>
        <pt x="417" y="54" on="0"/>
        <pt x="436" y="59" on="1"/>
        <pt x="452" y="64" on="0"/>
        <pt x="492" y="213" on="1"/>
        <pt x="547" y="208" on="1"/>
        <pt x="548" y="191" on="0"/>
        <pt x="548" y="86" on="0"/>
        <pt x="537" y="0" on="1"/>
      </contour>
      <contour>
        <pt x="513" y="369" on="0"/>
        <pt x="481" y="334" on="0"/>
        <pt x="431" y="334" on="0"/>
        <pt x="398" y="364" on="0"/>
        <pt x="398" y="416" on="0"/>
        <pt x="430" y="449" on="0"/>
        <pt x="455" y="449" on="1"/>
        <pt x="513" y="449" on="0"/>
        <pt x="513" y="393" on="1"/>
      </contour>
    </TTGlyph>
    <TTGlyph name="Lslash" xMin="34" yMin="0" xMax="548" yMax="693">
      <contour>
        <pt x="50" y="0" on="1"/>
        <pt x="44" y="39" on="1"/>
        <pt x="97" y="48" on="0"/>
        <pt x="120" y="70" on="0"/>
        <pt x="120" y="101" on="1"/>
        <pt x="120" y="253" on="1"/>
        <pt x="62" y="215" on="1"/>
        <pt x="34" y="258" on="1"/>
        <pt x="120" y="315" on="1"/>
        <pt x="120" y="592" on="1"/>
        <pt x="120" y="623" on="0"/>
        <pt x="97" y="645" on="0"/>
        <pt x="44" y="654" on="1"/>
        <pt x="50" y="693" on="1"/>
        <pt x="295" y="693" on="1"/>
        <pt x="299" y="654" on="1"/>
        <pt x="237" y="642" on="1"/>
        <pt x="217" y="638" on="0"/>
        <pt x="217" y="616" on="1"/>
        <pt x="217" y="378" on="1"/>
        <pt x="382" y="487" on="1"/>
        <pt x="410" y="444" on="1"/>
        <pt x="217" y="317" on="1"/>
        <pt x="217" y="51" on="1"/>
        <pt x="306" y="52" on="1"/>
        <pt x="417" y="54" on="0"/>
        <pt x="436" y="59" on="1"/>
        <pt x="452" y="64" on="0"/>
        <pt x="492" y="213" on="1"/>
        <pt x="547" y="208" on="1"/>
        <pt x="548" y="191" on="0"/>
        <pt x="548" y="86" on="0"/>
        <pt x="537" y="0" on="1"/>
      </contour>
    </TTGlyph>
    <TTGlyph name="Lslash.sc" xMin="24" yMin="0" xMax="442" yMax="537">
      <contour>
        <pt x="52" y="165" on="1"/>
        <pt x="24" y="208" on="1"/>
        <pt x="327" y="408" on="1"/>
        <pt x="355" y="365" on="1"/>
      </contour>
      <contour>
        <pt x="53" y="0" on="1"/>
        <pt x="48" y="36" on="1"/>
        <pt x="89" y="43" on="0"/>
        <pt x="107" y="60" on="0"/>
        <pt x="107" y="84" on="1"/>
        <pt x="107" y="453" on="1"/>
        <pt x="107" y="477" on="0"/>
        <pt x="89" y="494" on="0"/>
        <pt x="48" y="501" on="1"/>
        <pt x="53" y="537" on="1"/>
        <pt x="261" y="537" on="1"/>
        <pt x="264" y="501" on="1"/>
        <pt x="216" y="492" on="1"/>
        <pt x="200" y="489" on="0"/>
        <pt x="200" y="472" on="1"/>
        <pt x="200" y="45" on="1"/>
        <pt x="262" y="46" on="1"/>
        <pt x="344" y="47" on="0"/>
        <pt x="371" y="56" on="0"/>
        <pt x="393" y="171" on="1"/>
        <pt x="441" y="167" on="1"/>
        <pt x="442" y="154" on="0"/>
        <pt x="442" y="80" on="0"/>
        <pt x="434" y="0" on="1"/>
      </contour>
    </TTGlyph>
    <TTGlyph name="M" xMin="37" yMin="0" xMax="875" yMax="693">
      <contour>
        <pt x="43" y="0" on="1"/>
        <pt x="37" y="39" on="1"/>
        <pt x="91" y="49" on="0"/>
        <pt x="120" y="71" on="0"/>
        <pt x="120" y="101" on="1"/>
        <pt x="120" y="592" on="1"/>
        <pt x="120" y="623" on="0"/>
        <pt x="97" y="645" on="0"/>
        <pt x="44" y="654" on="1"/>
        <pt x="50" y="693" on="1"/>
        <pt x="260" y="693" on="1"/>
        <pt x="452" y="167" on="1"/>
        <pt x="457" y="151" on="0"/>
        <pt x="459" y="142" on="1"/>
        <pt x="469" y="142" on="1"/>
        <pt x="470" y="153" on="0"/>
        <pt x="474" y="162" on="1"/>
        <pt x="669" y="693" on="1"/>
        <pt x="850" y="693" on="1"/>
        <pt x="854" y="654" on="1"/>
        <pt x="812" y="642" on="1"/>
        <pt x="793" y="636" on="0"/>
        <pt x="793" y="619" on="1"/>
        <pt x="793" y="77" on="1"/>
        <pt x="793" y="55" on="0"/>
        <pt x="813" y="51" on="1"/>
        <pt x="875" y="39" on="1"/>
        <pt x="871" y="0" on="1"/>
        <pt x="624" y="0" on="1"/>
        <pt x="618" y="39" on="1"/>
        <pt x="667" y="48" on="0"/>
        <pt x="696" y="69" on="0"/>
        <pt x="696" y="93" on="1"/>
        <pt x="696" y="550" on="1"/>
        <pt x="696" y="573" on="0"/>
        <pt x="699" y="588" on="1"/>
        <pt x="691" y="588" on="1"/>
        <pt x="480" y="20" on="1"/>
        <pt x="408" y="20" on="1"/>
        <pt x="195" y="590" on="1"/>
        <pt x="187" y="590" on="1"/>
        <pt x="187" y="100" on="1"/>
        <pt x="187" y="76" on="0"/>
        <pt x="206" y="52" on="0"/>
        <pt x="231" y="48" on="1"/>
        <pt x="280" y="39" on="1"/>
        <pt x="276" y="0" on="1"/>
      </contour>
    </TTGlyph>
    <TTGlyph name="M.sc" xMin="26" yMin="0" xMax="693" yMax="537">
      <contour>
        <pt x="30" y="0" on="1"/>
        <pt x="26" y="36" on="1"/>
        <pt x="68" y="44" on="0"/>
        <pt x="87" y="57" on="0"/>
        <pt x="88" y="80" on="1"/>
        <pt x="111" y="453" on="1"/>
        <pt x="112" y="478" on="0"/>
        <pt x="92" y="493" on="0"/>
        <pt x="52" y="501" on="1"/>
        <pt x="56" y="537" on="1"/>
        <pt x="218" y="537" on="1"/>
        <pt x="348" y="171" on="1"/>
        <pt x="350" y="166" on="0"/>
        <pt x="354" y="152" on="1"/>
        <pt x="362" y="152" on="1"/>
        <pt x="364" y="163" on="0"/>
        <pt x="366" y="167" on="1"/>
        <pt x="501" y="537" on="1"/>
        <pt x="665" y="537" on="1"/>
        <pt x="668" y="501" on="1"/>
        <pt x="620" y="492" on="1"/>
        <pt x="604" y="490" on="0"/>
        <pt x="604" y="474" on="1"/>
        <pt x="604" y="470" on="1"/>
        <pt x="629" y="65" on="1"/>
        <pt x="629" y="48" on="0"/>
        <pt x="644" y="45" on="1"/>
        <pt x="693" y="36" on="1"/>
        <pt x="690" y="0" on="1"/>
        <pt x="476" y="0" on="1"/>
        <pt x="471" y="36" on="1"/>
        <pt x="509" y="42" on="0"/>
        <pt x="531" y="59" on="0"/>
        <pt x="531" y="78" on="1"/>
        <pt x="531" y="84" on="1"/>
        <pt x="519" y="413" on="1"/>
        <pt x="519" y="430" on="0"/>
        <pt x="522" y="442" on="1"/>
        <pt x="515" y="444" on="1"/>
        <pt x="367" y="36" on="1"/>
        <pt x="301" y="36" on="1"/>
        <pt x="164" y="417" on="1"/>
        <pt x="161" y="429" on="0"/>
        <pt x="161" y="439" on="1"/>
        <pt x="154" y="439" on="1"/>
        <pt x="138" y="88" on="1"/>
        <pt x="138" y="68" on="0"/>
        <pt x="148" y="46" on="0"/>
        <pt x="166" y="43" on="1"/>
        <pt x="202" y="36" on="1"/>
        <pt x="199" y="0" on="1"/>
      </contour>
    </TTGlyph>
    <TTGlyph name="N" xMin="44" yMin="0" xMax="739" yMax="693">
      <contour>
        <pt x="50" y="0" on="1"/>
        <pt x="44" y="39" on="1"/>
        <pt x="97" y="48" on="0"/>
        <pt x="120" y="70" on="0"/>
        <pt x="120" y="101" on="1"/>
        <pt x="120" y="592" on="1"/>
        <pt x="120" y="623" on="0"/>
        <pt x="97" y="645" on="0"/>
        <pt x="44" y="654" on="1"/>
        <pt x="50" y="693" on="1"/>
        <pt x="127" y="693" on="1"/>
        <pt x="186" y="693" on="1"/>
        <pt x="241" y="693" on="1"/>
        <pt x="583" y="189" on="1"/>
        <pt x="590" y="189" on="1"/>
        <pt x="590" y="572" on="1"/>
        <pt x="590" y="617" on="0"/>
        <pt x="557" y="647" on="0"/>
        <pt x="494" y="654" on="1"/>
        <pt x="500" y="693" on="1"/>
        <pt x="735" y="693" on="1"/>
        <pt x="739" y="654" on="1"/>
        <pt x="677" y="642" on="1"/>
        <pt x="657" y="638" on="0"/>
        <pt x="657" y="616" on="1"/>
        <pt x="657" y="0" on="1"/>
        <pt x="598" y="0" on="1"/>
        <pt x="598" y="0" on="1"/>
        <pt x="595" y="0" on="1"/>
        <pt x="195" y="592" on="1"/>
        <pt x="187" y="592" on="1"/>
        <pt x="187" y="100" on="1"/>
        <pt x="187" y="75" on="0"/>
        <pt x="206" y="51" on="0"/>
        <pt x="231" y="48" on="1"/>
        <pt x="301" y="39" on="1"/>
        <pt x="297" y="0" on="1"/>
      </contour>
    </TTGlyph>
    <TTGlyph name="N.sc" xMin="31" yMin="-4" xMax="557" yMax="537">
      <contour>
        <pt x="36" y="0" on="1"/>
        <pt x="31" y="36" on="1"/>
        <pt x="72" y="43" on="0"/>
        <pt x="90" y="60" on="0"/>
        <pt x="90" y="84" on="1"/>
        <pt x="90" y="453" on="1"/>
        <pt x="90" y="477" on="0"/>
        <pt x="72" y="494" on="0"/>
        <pt x="31" y="501" on="1"/>
        <pt x="36" y="537" on="1"/>
        <pt x="191" y="537" on="1"/>
        <pt x="424" y="188" on="1"/>
        <pt x="435" y="172" on="0"/>
        <pt x="437" y="160" on="1"/>
        <pt x="443" y="160" on="1"/>
        <pt x="443" y="438" on="1"/>
        <pt x="443" y="473" on="0"/>
        <pt x="417" y="496" on="0"/>
        <pt x="368" y="501" on="1"/>
        <pt x="373" y="537" on="1"/>
        <pt x="554" y="537" on="1"/>
        <pt x="557" y="501" on="1"/>
        <pt x="509" y="492" on="1"/>
        <pt x="494" y="489" on="0"/>
        <pt x="494" y="472" on="1"/>
        <pt x="494" y="0" on="1"/>
        <pt x="441" y="-4" on="1"/>
        <pt x="160" y="412" on="1"/>
        <pt x="148" y="430" on="0"/>
        <pt x="147" y="441" on="1"/>
        <pt x="141" y="441" on="1"/>
        <pt x="141" y="83" on="1"/>
        <pt x="141" y="63" on="0"/>
        <pt x="155" y="45" on="0"/>
        <pt x="175" y="43" on="1"/>
        <pt x="229" y="36" on="1"/>
        <pt x="226" y="0" on="1"/>
      </contour>
    </TTGlyph>
    <TTGlyph name="Nacute" xMin="44" yMin="0" xMax="739" yMax="914">
      <contour>
        <pt x="540" y="863" on="1"/>
        <pt x="532" y="842" on="1"/>
        <pt x="331" y="749" on="1"/>
        <pt x="306" y="785" on="1"/>
        <pt x="480" y="914" on="1"/>
      </contour>
      <contour>
        <pt x="50" y="0" on="1"/>
        <pt x="44" y="39" on="1"/>
        <pt x="97" y="48" on="0"/>
        <pt x="120" y="70" on="0"/>
        <pt x="120" y="101" on="1"/>
        <pt x="120" y="592" on="1"/>
        <pt x="120" y="623" on="0"/>
        <pt x="97" y="645" on="0"/>
        <pt x="44" y="654" on="1"/>
        <pt x="50" y="693" on="1"/>
        <pt x="127" y="693" on="1"/>
        <pt x="186" y="693" on="1"/>
        <pt x="241" y="693" on="1"/>
        <pt x="583" y="189" on="1"/>
        <pt x="590" y="189" on="1"/>
        <pt x="590" y="572" on="1"/>
        <pt x="590" y="617" on="0"/>
        <pt x="557" y="647" on="0"/>
        <pt x="494" y="654" on="1"/>
        <pt x="500" y="693" on="1"/>
        <pt x="735" y="693" on="1"/>
        <pt x="739" y="654" on="1"/>
        <pt x="677" y="642" on="1"/>
        <pt x="657" y="638" on="0"/>
        <pt x="657" y="616" on="1"/>
        <pt x="657" y="0" on="1"/>
        <pt x="598" y="0" on="1"/>
        <pt x="598" y="0" on="1"/>
        <pt x="595" y="0" on="1"/>
        <pt x="195" y="592" on="1"/>
        <pt x="187" y="592" on="1"/>
        <pt x="187" y="100" on="1"/>
        <pt x="187" y="75" on="0"/>
        <pt x="206" y="51" on="0"/>
        <pt x="231" y="48" on="1"/>
        <pt x="301" y="39" on="1"/>
        <pt x="297" y="0" on="1"/>
      </contour>
    </TTGlyph>
    <TTGlyph name="Nacute.sc" xMin="31" yMin="-4" xMax="557" yMax="765">
      <contour>
        <pt x="36" y="0" on="1"/>
        <pt x="31" y="36" on="1"/>
        <pt x="72" y="43" on="0"/>
        <pt x="90" y="60" on="0"/>
        <pt x="90" y="84" on="1"/>
        <pt x="90" y="453" on="1"/>
        <pt x="90" y="477" on="0"/>
        <pt x="72" y="494" on="0"/>
        <pt x="31" y="501" on="1"/>
        <pt x="36" y="537" on="1"/>
        <pt x="191" y="537" on="1"/>
        <pt x="424" y="188" on="1"/>
        <pt x="435" y="172" on="0"/>
        <pt x="437" y="160" on="1"/>
        <pt x="443" y="160" on="1"/>
        <pt x="443" y="438" on="1"/>
        <pt x="443" y="473" on="0"/>
        <pt x="417" y="496" on="0"/>
        <pt x="368" y="501" on="1"/>
        <pt x="373" y="537" on="1"/>
        <pt x="554" y="537" on="1"/>
        <pt x="557" y="501" on="1"/>
        <pt x="509" y="492" on="1"/>
        <pt x="494" y="489" on="0"/>
        <pt x="494" y="472" on="1"/>
        <pt x="494" y="0" on="1"/>
        <pt x="441" y="-4" on="1"/>
        <pt x="160" y="412" on="1"/>
        <pt x="148" y="430" on="0"/>
        <pt x="147" y="441" on="1"/>
        <pt x="141" y="441" on="1"/>
        <pt x="141" y="83" on="1"/>
        <pt x="141" y="63" on="0"/>
        <pt x="155" y="45" on="0"/>
        <pt x="175" y="43" on="1"/>
        <pt x="229" y="36" on="1"/>
        <pt x="226" y="0" on="1"/>
      </contour>
      <contour>
        <pt x="421" y="714" on="1"/>
        <pt x="413" y="693" on="1"/>
        <pt x="212" y="600" on="1"/>
        <pt x="187" y="636" on="1"/>
        <pt x="361" y="765" on="1"/>
      </contour>
    </TTGlyph>
    <TTGlyph name="Ncaron" xMin="44" yMin="0" xMax="739" yMax="917">
      <contour>
        <pt x="235" y="917" on="1"/>
        <pt x="374" y="826" on="1"/>
        <pt x="513" y="917" on="1"/>
        <pt x="538" y="891" on="1"/>
        <pt x="402" y="752" on="1"/>
        <pt x="346" y="752" on="1"/>
        <pt x="210" y="891" on="1"/>
      </contour>
      <contour>
        <pt x="50" y="0" on="1"/>
        <pt x="44" y="39" on="1"/>
        <pt x="97" y="48" on="0"/>
        <pt x="120" y="70" on="0"/>
        <pt x="120" y="101" on="1"/>
        <pt x="120" y="592" on="1"/>
        <pt x="120" y="623" on="0"/>
        <pt x="97" y="645" on="0"/>
        <pt x="44" y="654" on="1"/>
        <pt x="50" y="693" on="1"/>
        <pt x="127" y="693" on="1"/>
        <pt x="186" y="693" on="1"/>
        <pt x="241" y="693" on="1"/>
        <pt x="583" y="189" on="1"/>
        <pt x="590" y="189" on="1"/>
        <pt x="590" y="572" on="1"/>
        <pt x="590" y="617" on="0"/>
        <pt x="557" y="647" on="0"/>
        <pt x="494" y="654" on="1"/>
        <pt x="500" y="693" on="1"/>
        <pt x="735" y="693" on="1"/>
        <pt x="739" y="654" on="1"/>
        <pt x="677" y="642" on="1"/>
        <pt x="657" y="638" on="0"/>
        <pt x="657" y="616" on="1"/>
        <pt x="657" y="0" on="1"/>
        <pt x="598" y="0" on="1"/>
        <pt x="598" y="0" on="1"/>
        <pt x="595" y="0" on="1"/>
        <pt x="195" y="592" on="1"/>
        <pt x="187" y="592" on="1"/>
        <pt x="187" y="100" on="1"/>
        <pt x="187" y="75" on="0"/>
        <pt x="206" y="51" on="0"/>
        <pt x="231" y="48" on="1"/>
        <pt x="301" y="39" on="1"/>
        <pt x="297" y="0" on="1"/>
      </contour>
    </TTGlyph>
    <TTGlyph name="Ncaron.sc" xMin="31" yMin="-4" xMax="557" yMax="768">
      <contour>
        <pt x="36" y="0" on="1"/>
        <pt x="31" y="36" on="1"/>
        <pt x="72" y="43" on="0"/>
        <pt x="90" y="60" on="0"/>
        <pt x="90" y="84" on="1"/>
        <pt x="90" y="453" on="1"/>
        <pt x="90" y="477" on="0"/>
        <pt x="72" y="494" on="0"/>
        <pt x="31" y="501" on="1"/>
        <pt x="36" y="537" on="1"/>
        <pt x="191" y="537" on="1"/>
        <pt x="424" y="188" on="1"/>
        <pt x="435" y="172" on="0"/>
        <pt x="437" y="160" on="1"/>
        <pt x="443" y="160" on="1"/>
        <pt x="443" y="438" on="1"/>
        <pt x="443" y="473" on="0"/>
        <pt x="417" y="496" on="0"/>
        <pt x="368" y="501" on="1"/>
        <pt x="373" y="537" on="1"/>
        <pt x="554" y="537" on="1"/>
        <pt x="557" y="501" on="1"/>
        <pt x="509" y="492" on="1"/>
        <pt x="494" y="489" on="0"/>
        <pt x="494" y="472" on="1"/>
        <pt x="494" y="0" on="1"/>
        <pt x="441" y="-4" on="1"/>
        <pt x="160" y="412" on="1"/>
        <pt x="148" y="430" on="0"/>
        <pt x="147" y="441" on="1"/>
        <pt x="141" y="441" on="1"/>
        <pt x="141" y="83" on="1"/>
        <pt x="141" y="63" on="0"/>
        <pt x="155" y="45" on="0"/>
        <pt x="175" y="43" on="1"/>
        <pt x="229" y="36" on="1"/>
        <pt x="226" y="0" on="1"/>
      </contour>
      <contour>
        <pt x="140" y="768" on="1"/>
        <pt x="279" y="677" on="1"/>
        <pt x="418" y="768" on="1"/>
        <pt x="443" y="742" on="1"/>
        <pt x="307" y="603" on="1"/>
        <pt x="251" y="603" on="1"/>
        <pt x="115" y="742" on="1"/>
      </contour>
    </TTGlyph>
    <TTGlyph name="Ntilde" xMin="44" yMin="0" xMax="739" yMax="891">
      <contour>
        <pt x="550" y="891" on="1"/>
        <pt x="575" y="879" on="1"/>
        <pt x="554" y="833" on="0"/>
        <pt x="511" y="778" on="0"/>
        <pt x="466" y="778" on="0"/>
        <pt x="333" y="805" on="0"/>
        <pt x="309" y="805" on="1"/>
        <pt x="271" y="805" on="0"/>
        <pt x="237" y="771" on="1"/>
        <pt x="214" y="787" on="1"/>
        <pt x="246" y="840" on="0"/>
        <pt x="292" y="883" on="0"/>
        <pt x="338" y="883" on="0"/>
        <pt x="467" y="856" on="0"/>
        <pt x="517" y="856" on="0"/>
      </contour>
      <contour>
        <pt x="50" y="0" on="1"/>
        <pt x="44" y="39" on="1"/>
        <pt x="97" y="48" on="0"/>
        <pt x="120" y="70" on="0"/>
        <pt x="120" y="101" on="1"/>
        <pt x="120" y="592" on="1"/>
        <pt x="120" y="623" on="0"/>
        <pt x="97" y="645" on="0"/>
        <pt x="44" y="654" on="1"/>
        <pt x="50" y="693" on="1"/>
        <pt x="127" y="693" on="1"/>
        <pt x="186" y="693" on="1"/>
        <pt x="241" y="693" on="1"/>
        <pt x="583" y="189" on="1"/>
        <pt x="590" y="189" on="1"/>
        <pt x="590" y="572" on="1"/>
        <pt x="590" y="617" on="0"/>
        <pt x="557" y="647" on="0"/>
        <pt x="494" y="654" on="1"/>
        <pt x="500" y="693" on="1"/>
        <pt x="735" y="693" on="1"/>
        <pt x="739" y="654" on="1"/>
        <pt x="677" y="642" on="1"/>
        <pt x="657" y="638" on="0"/>
        <pt x="657" y="616" on="1"/>
        <pt x="657" y="0" on="1"/>
        <pt x="598" y="0" on="1"/>
        <pt x="598" y="0" on="1"/>
        <pt x="595" y="0" on="1"/>
        <pt x="195" y="592" on="1"/>
        <pt x="187" y="592" on="1"/>
        <pt x="187" y="100" on="1"/>
        <pt x="187" y="75" on="0"/>
        <pt x="206" y="51" on="0"/>
        <pt x="231" y="48" on="1"/>
        <pt x="301" y="39" on="1"/>
        <pt x="297" y="0" on="1"/>
      </contour>
    </TTGlyph>
    <TTGlyph name="Ntilde.sc" xMin="31" yMin="-4" xMax="557" yMax="742">
      <contour>
        <pt x="36" y="0" on="1"/>
        <pt x="31" y="36" on="1"/>
        <pt x="72" y="43" on="0"/>
        <pt x="90" y="60" on="0"/>
        <pt x="90" y="84" on="1"/>
        <pt x="90" y="453" on="1"/>
        <pt x="90" y="477" on="0"/>
        <pt x="72" y="494" on="0"/>
        <pt x="31" y="501" on="1"/>
        <pt x="36" y="537" on="1"/>
        <pt x="191" y="537" on="1"/>
        <pt x="424" y="188" on="1"/>
        <pt x="435" y="172" on="0"/>
        <pt x="437" y="160" on="1"/>
        <pt x="443" y="160" on="1"/>
        <pt x="443" y="438" on="1"/>
        <pt x="443" y="473" on="0"/>
        <pt x="417" y="496" on="0"/>
        <pt x="368" y="501" on="1"/>
        <pt x="373" y="537" on="1"/>
        <pt x="554" y="537" on="1"/>
        <pt x="557" y="501" on="1"/>
        <pt x="509" y="492" on="1"/>
        <pt x="494" y="489" on="0"/>
        <pt x="494" y="472" on="1"/>
        <pt x="494" y="0" on="1"/>
        <pt x="441" y="-4" on="1"/>
        <pt x="160" y="412" on="1"/>
        <pt x="148" y="430" on="0"/>
        <pt x="147" y="441" on="1"/>
        <pt x="141" y="441" on="1"/>
        <pt x="141" y="83" on="1"/>
        <pt x="141" y="63" on="0"/>
        <pt x="155" y="45" on="0"/>
        <pt x="175" y="43" on="1"/>
        <pt x="229" y="36" on="1"/>
        <pt x="226" y="0" on="1"/>
      </contour>
      <contour>
        <pt x="436" y="742" on="1"/>
        <pt x="461" y="730" on="1"/>
        <pt x="440" y="684" on="0"/>
        <pt x="397" y="629" on="0"/>
        <pt x="352" y="629" on="0"/>
        <pt x="219" y="656" on="0"/>
        <pt x="195" y="656" on="1"/>
        <pt x="157" y="656" on="0"/>
        <pt x="123" y="622" on="1"/>
        <pt x="100" y="638" on="1"/>
        <pt x="132" y="691" on="0"/>
        <pt x="178" y="734" on="0"/>
        <pt x="224" y="734" on="0"/>
        <pt x="353" y="707" on="0"/>
        <pt x="403" y="707" on="0"/>
      </contour>
    </TTGlyph>
    <TTGlyph name="O" xMin="35" yMin="-9" xMax="676" yMax="702">
      <contour>
        <pt x="199" y="-9" on="0"/>
        <pt x="35" y="178" on="0"/>
        <pt x="35" y="503" on="0"/>
        <pt x="209" y="702" on="0"/>
        <pt x="512" y="702" on="0"/>
        <pt x="676" y="519" on="0"/>
        <pt x="676" y="194" on="0"/>
        <pt x="502" y="-9" on="0"/>
      </contour>
      <contour>
        <pt x="364" y="44" on="1"/>
        <pt x="418" y="44" on="0"/>
        <pt x="499" y="94" on="0"/>
        <pt x="522" y="138" on="1"/>
        <pt x="565" y="223" on="0"/>
        <pt x="565" y="481" on="0"/>
        <pt x="452" y="649" on="0"/>
        <pt x="347" y="649" on="1"/>
        <pt x="293" y="649" on="0"/>
        <pt x="212" y="600" on="0"/>
        <pt x="190" y="557" on="1"/>
        <pt x="146" y="474" on="0"/>
        <pt x="146" y="217" on="0"/>
        <pt x="258" y="44" on="0"/>
      </contour>
    </TTGlyph>
    <TTGlyph name="O.sc" xMin="33" yMin="-7" xMax="549" yMax="544">
      <contour>
        <pt x="165" y="-7" on="0"/>
        <pt x="33" y="138" on="0"/>
        <pt x="33" y="390" on="0"/>
        <pt x="173" y="544" on="0"/>
        <pt x="417" y="544" on="0"/>
        <pt x="549" y="402" on="0"/>
        <pt x="549" y="150" on="0"/>
        <pt x="409" y="-7" on="0"/>
      </contour>
      <contour>
        <pt x="136" y="168" on="0"/>
        <pt x="219" y="34" on="0"/>
        <pt x="375" y="34" on="0"/>
        <pt x="446" y="168" on="0"/>
        <pt x="446" y="373" on="0"/>
        <pt x="363" y="503" on="0"/>
        <pt x="208" y="503" on="0"/>
        <pt x="136" y="372" on="0"/>
      </contour>
    </TTGlyph>
</ttFont>
